<?xml version="1.0" encoding="UTF-8"?>
<svg id="Layer_2" data-name="Layer 2" xmlns="http://www.w3.org/2000/svg" viewBox="0 0 339.3492562855 315.2173913043">
  <defs>
    <style>
      .cls-1 {
        fill: #fff;
      }
    </style>
  </defs>
  <g id="Layer_1-2" data-name="Layer 1">
    <g>
      <g>
        <path class="cls-1" d="m284.551675195,11.4664578217c-3.5579088078-3.1631363608-7.9170463581-5.5402683874-11.7273970984-7.4482762057-.2464229804-.222701228-.4868270087-.3413099901-.6826199802-.4393835039-.169238771-.0828491055-.278996133-.1394980665-.501343305-.3409559341-1.8131208085-1.2080390937-5.3416429678-3.2378421781-8.585150042-3.2378421781-1.6410495895,0-2.9701758373.3979589511-4.347099646,1.3177964557-3.2969695312,2.4716649803-4.9677598251,5.4244920733-4.958908425,8.8963652716.4747891045,2.843069731,2.4157241313,5.2495884062,5.5639901398,6.8162862343l.670936132.2343850762c.833801895.2998854374,1.6261792372.5817140185,2.6823283041.5817140185,1.7391231032,0,3.3741537405-.4390294479,4.6144119308-1.2402581903l.6054357709-.2106633238c.7983962943-.2850150851,1.3740913607-.4928459608,2.1664687029-.4928459608,2.3265020178,0,5.2672912065,3.3235237316,7.8547325009,8.8729975752,3.4155782933,7.9733412631-.6348224194,17.8847851049-3.8963863499,25.8556479759l-2.3353534179,5.8429862728c-1.560678876,4.0978442175-3.1245442561,8.2969484529-4.6855771881,12.4928661842-1.5132353712,4.068457569-3.0268247983,8.1397475861-4.5400601695,12.1193370975-2.5045921889,1.3411641521-4.0298654643,3.4984273987-4.4246379114,6.2554615202-.1929605235,1.2462771424-.4301780477,2.451129732-.7212120849,3.679704074-3.2523584743,13.6651456212-10.703467128,14.7273136403-12.9113603837,14.7273136403h-.77750699c-3.8163696925,0-7.1190041197-2.7357907611-9.8462975367-8.1871910909l-1.1273143242-1.8665832655c-1.8340101129-4.0326979123-2.6235550071-7.7598454912-2.6621471118-8.362094758-.3944183911-2.3622616744-1.5281057234-4.0833279213-3.5579088078-5.3951054248-.1394980665-.5194001613-.4687701524-1.1007601237-.8040611904-1.4895136187l-2.3534102742-6.5967715104c-3.8280535407-10.7186915363-8.5936473862-24.0573975197-12.7481405647-37.1649049309-.3827345429-1.2137039898-.6528792757-2.4479432279-.7983962943-3.6704986179-.6645631239-5.5848794442,1.3652399605-10.6266369747,5.9736329392-14.9323120679,1.45127557-1.0890762755,2.8101425224-2.1041548457,4.2079556355-1.7925855602.3501613903,0,.5636571621.112943866,1.0090596181.3710506947.1777361152.1037384098.3706966387.2134957718.6943038285.3678641906.3204206857.1069249139.6408413715.2464229804.9704675134.3859210469.8900968.3855669909,1.8991564181.8189315427,3.1571174086.8189315427h.388753495c4.958908425,0,10.089534013-3.3383940839,10.089534013-8.9232735281,0-2.5311463894-.8607101514-4.6735392839-2.5548681418-6.3680513303-1.8488804652-1.8488804652-4.0953658255-2.5492032457-6.7571588812-2.1664687029-2.4776839325,0-4.5251898172.8192855987-6.4601058919,1.5936060846l-3.4332810936,1.1485576846c-6.5670308058,1.5458085237-12.2648541161,6.0922417013-16.051129048,12.8253247741-1.9320836267,3.6676661698-3.1603039127,7.6058311285-3.6559823216,11.6976563939-.5640112181,4.6441526353-.1366656184,9.1488072042,1.2731853989,13.3836710962,2.3767779706,7.3264809395,4.8544619031,14.8519413545,7.3799433964,22.5317701883,2.4097051793,7.3208160434,4.8664998073,14.7811301532,7.3208160434,22.3334988247-.3678641906,1.1570550288-.7449338374,2.7892532181-.3384775421,4.4126000072.7509527895,4.1275849221,1.9083618742,8.1160258336,3.5494114637,12.2198890032,2.2581692085,5.1635527967,6.4363841395,12.2467972598,13.5759235076,16.7040083237l4.6650419397,2.3325209699c.1037384099.053462457.2195147239.0800166575.3381234861.0800166575h.7895448942c-.0655003612,2.4274079796-.4184941995,4.9022594639-.7658231417,7.3445377958-1.1067790759,14.3566170016-7.1041337675,28.867602422-17.329979343,41.9602394809-19.3863366279,24.0276568151-48.9160237817,35.8410895231-79.0150329938,31.6037472391-9.0153280898-1.1276683802-17.831676704-3.7214826828-26.193771462-7.7007181382l-3.8875349498-1.9437674749c-.1366656185-.0743517614-.3027178854-.0832031615-.4627512003-.0711652573l-6.3358322337,1.1960011895c-3.7657396836,1.2551285425-6.741934473,1.9405809708-10.1100692614,2.3321669138-.9584296092.3207747418-1.9200457225.3473289422-3.0802872553.3501613903h-.000354056c-.053462457,0-.278996133.0060189521-.3260855819.0148703522l-1.9019888661.3827345429c-5.7658020635.8160990947-11.9678011267.6886389324-18.555721237-.3976048951h-.77750699c-.4245131516,0-.7923773422-.0591273531-1.1425387325-.1334791144l11.2260537934-11.2260537934,1.3829427608-1.3825887048,6.6084553586-7.7779023476c.225533676-.2669582288.2432364764-.6496927717.0385921047-.9347078568l-5.8252834725-8.1574503864c-12.9708417927-18.4696856274-18.445609819-40.5061314628-15.4219715247-62.0649557457,1.8786211697-15.4010822203,8.2732267004-30.1882313257,18.4994263319-42.7703196234,15.0034773252-18.4696856274,35.0756204374-29.5056113454,58.0676634339-31.9390382771,3.118525304,5.8043941681,9.3237108713,9.6710398135,15.6000616959,9.6710398135,9.7984999758,0,17.4751423056-7.6766423297,17.4751423056-17.4754963616,0-.7357283812-.0591273531-1.4541080181-.1423305146-2.1661146469,0-.000354056-.000708112-.000708112-.000708112-.001062168,0-.000708112.000708112-.001416224.000708112-.0021243361-1.0681869712-8.8698110712-8.35926231-15.3090276587-17.332811791-15.3090276587-6.7334371288,0-12.985712145,3.9675516072-16.0482966,10.1486613661-27.8199506992,2.4660000842-52.6934473135,15.9353527339-70.0768891134,37.954095769-11.7185456983,14.4546905154-19.170008408,31.9270003729-21.5439539306,50.5273326666-3.510465303,25.3334153666,2.617181999,50.8566047525,17.2588140857,71.9406399308l-13.154950916,12.7690298691c-3.5844630083,3.5848170643-4.9674057691,8.5107982807-3.67651757,13.2317810694,2.1009683417,5.8815783775,7.6709774336,9.4486926415,16.6533783148,10.6149531265l.670582076-.0092054562c4.344621254.6234926272,8.6325935469.9350619128,12.8462140785.9350619128,3.2495260263,0,6.4544409958-.1869415714,9.6058935084-.5611787701l1.3709048566-.3646776865c.5905654186,0,1.2462771424-.0892221136,1.9377485228-.1812766753.7654690857-.1009059618,1.5550139799-.2074768197,2.4868893886-.222347172,4.0178275601-.8044152464,6.9972088536-1.5075704751,9.9705711949-2.3534102742.000708112-.000354056.000708112-.000708112.001416224-.001062168l.3993751752-.1086951939c.2283661241-.0651463052.4538998001-.1274601623.6854524283-.1929605235,9.3739868242,4.6501715874,19.8494418842,7.7216074425,30.2799318313,8.8846814234,5.1100903397.7835259421,9.8848896414.7835259421,14.4993015722.7835259421,30.7876481444,0,59.7678403764-13.9915852591,79.5135438507-38.3842738167,11.7213781463-14.4518580673,19.170008408-31.9241679248,21.5467863786-50.5450354669l.109757362-.9587836652c.3236071898-2.89901058.6319899714-5.6468392453.670582076-8.6322394909,2.733312369-.6914713804,5.5908983963-2.1484118466,8.2973025089-4.2316773879,2.1572632467-1.6615848378,4.0801414172-3.6142037129,5.5370818834-5.6142660927,5.071498235-6.3386646818,7.3147970912-14.7188162961,8.7186291564-21.4699562252l-.0237217524-2.9259188365c.1600333149-.6380089235.388753495-1.2728313429.6259710192-1.9377485228.3444964942-.9732999615.7035092846-1.9791730755.9141726084-3.0593979509.9732999615-2.9198998844,2.0414869326-5.9350408345,3.1128604079-8.9498277286,1.0681869712-3.009121998,2.1363739423-6.021076444,3.1068414558-8.9353114323.9913568178-2.9733623414,2.0506923888-5.9435381786,3.121711808-8.9466412245,1.4392376658-4.0270330162,2.9259188365-8.190377595,4.2585856444-12.4100170787,1.2848692471-3.4244296934,1.9912109797-7.3863164046,1.9912109797-11.1134639834.388399439-7.7895861958-2.3208371216-15.1341239916-7.2556697382-19.6564813607Z"/>
        <path class="cls-1" d="m106.5585153452,103.7532802137h-9.585004204c-.5399354097,0-1.0235759144.333520758-1.2158283258.838050567l-14.269519224,37.4885121207c-.3239612458.8515046953.3048422215,1.7635529676,1.2158283258,1.7635529676h8.2973025089c.555513874,0,1.0497760588-.3526397823,1.2299905661-.8780588958l1.7893990561-5.2088719655c.1805685632-.5254191134.6748307481-.8784129518,1.2303446221-.8784129518h13.0299691458c.555513874,0,1.0497760588.3529938383,1.2303446221.8784129518l1.7893990561,5.2088719655c.1805685632.5254191134.6748307481.8780588958,1.2303446221.8780588958h8.2969484529c.9109861044,0,1.5397895716-.9120482724,1.2158283258-1.7635529676l-14.269519224-37.4885121207c-.1918983554-.5045298091-.6758929161-.838050567-1.2158283258-.838050567Zm-1.948016147,25.2024146442h-5.6889719101c-.8961157521,0-1.5238570513-.8854940719-1.227512174-1.7313338711l2.844840011-8.1131933856c.4068103513-1.1605955888,2.0482139968-1.1605955888,2.4550243481,0l2.844131899,8.1131933856c.2966989333.8458397992-.3310423659,1.7313338711-1.227512174,1.7313338711Z"/>
        <path class="cls-1" d="m194.599498109,144.9600885131c2.4461729479,0,4.6342390672-.3282099179,6.5666767498-.9839216416,1.9317295707-.6553576677,3.5621574799-1.5766113963,4.8916377838-2.7648233536,1.3291262479-1.1867957333,2.33960209-2.6132873829,3.0310734704-4.2801830608.6907632684-1.6654794539,1.0363219306-3.5263978233,1.0363219306-5.5827551082,0-3.0480681587-.7891908382-5.5204412511-2.3658022344-7.4167652211-1.5776735643-1.895969914-4.067749457-3.4116836772-7.470227678-4.5467872336-.8507965833-.2828907491-1.7107986227-.5484327539-2.5789439503-.7969800703-.8692074956-.2478392044-1.6481307096-.5399354097-2.33960209-.8777048397-.6911173244-.336353206-1.2491095904-.7350202692-1.6746849101-1.1960011895-.4255753196-.4606268643-.6380089234-1.0455273868-.6380089234-1.7547015675,0-1.0274705304.4248672076-1.8612724254,1.2756637909-2.4989272928.8511506393-.6383629795,1.949078315-.9573674412,3.2969695312-.9573674412,1.0632301871,0,2.1618659748.221993116,3.2962614191.6649171799.7477662854.2924502613,1.4955325708.6886389324,2.2436529123,1.1889200693.6369467554.4255753196,1.506154251.1773820592,1.8541913053-.5048838651l2.8590022513-5.6086011967c.334936982-.6567738918.053462457-1.4558782981-.612516891-1.7724043678-1.615203501-.7675934218-3.287055963-1.3709048566-5.014849274-1.8102883605-2.1625740868-.5491408659-4.236280116-.8242423828-6.2207640316-.8242423828-2.1268144302,0-4.0504007127.3190044617-5.7693426235.9570133851-1.7200040789.6383629795-3.1726958729,1.5334165635-4.3598456622,2.6848066962-1.1882119573,1.1528063567-2.1091116299,2.5350410055-2.7644692976,4.1477661144-.6564198358,1.6130791649-.9839216416,3.4120377332-.9839216416,5.3965216488,0,1.9859001397.3097990056,3.6248253931.9301051287,4.9185460403.6199520671,1.2944287592,1.4360511618,2.3658022345,2.4458188919,3.2169528737,1.0104758421.8504425272,2.1618659748,1.5334165635,3.456294734,2.0464437167,1.2933665912.5144433772,2.6136414389.9839216416,3.9611785991,1.4094969613,1.1340413883.390169719,2.1002602297.7438716693,2.897948412,1.0635842431.7973341263.3186504057,1.4438403939.6642090679,1.9402269148,1.0363219306.4963865209.3724669187.8515046953.779985382,1.0635842431,1.2229094459.2127876598.443632176.3193585177.9665728974.3193585177,1.5688221642,0,.9927730418-.4170779755,1.8789752257-1.2494636464,2.6582524957-.8330937829.780339438-2.1002602297,1.169801045-3.8014993402,1.169801045-1.4891595627,0-2.9963759818-.3367072621-4.5195249211-1.0104758421-1.1305008283-.498864913-2.2705611687-1.1931687414-3.4201810214-2.0825574294-.6415494835-.4960324649-1.5727167802-.3115692856-1.9533269871.4046860153l-3.1652606968,5.9538058028c-.3207747418.6033114348-.1164844261,1.3496614962.4602728083,1.7157554068,4.0419033685,2.563719542,8.4003328067,3.845048229,13.0759964266,3.845048229Z"/>
        <path class="cls-1" d="m167.8261369645,103.7532802137h-8.3231485973c-.5402894657,0-1.0239299704.335645094-1.2129958778.8419451831l-6.4523166598,17.2924494063c-.4184941995,1.1216494281-2.003956996,1.1230656522-2.4249295875.0028324481l-6.4976358286-17.2981143024c-.1894199634-.5048838651-.6723523561-.8391127351-1.2115796537-.8391127351h-8.3249188774c-.6312818593,0-1.170509157.4553160242-1.2763719029,1.0777464833l-6.3662810502,37.5012581369c-.1341872264.7902530062.4747891045,1.5111110351,1.2760178469,1.5111110351h7.7205452745c.6408413715,0,1.1853795093-.4687701524,1.280266519-1.1028844598l2.5700925501-17.1600324599c.1965010835-1.3121315595,2.005019164-1.5146515952,2.4865353326-.277933965l6.8991353398,17.7162544459c.1936686355.4970946329.6723523561.8245964388,1.2062688136.8245964388h2.393418603c.5254191134,0,.9984379379-.3172341817,1.1977714695-.8033530784l7.3523270279-17.9262096577c.4988649129-1.2165364378,2.283307185-1.00091633,2.4780379885.2991773254l2.5952305266,17.3275009509c.0948870097.6341143074.6394251475,1.1028844598,1.280266519,1.1028844598h7.7201912185c.8015827984,0,1.4105591293-.7208580289,1.2763719029-1.5111110351l-6.3659269942-37.5012581369c-.1058627459-.6224304592-.6450900436-1.0777464833-1.2763719029-1.0777464833Z"/>
      </g>
      <g>
        <path class="cls-1" d="m0,272.270643781l6.1889847842-17.9412401503h6.1274895309l6.2007713744,17.9412401503h-4.8652994569l-.9065425257-3.2110771432h-6.9484511625l-.9316530875,3.2110771432H0Zm6.8505712176-6.7034950702h4.8652994569l-1.8258965626-5.9194305906c-.0409968355-.106079312-.1188908231-.3997191465-.2331695021-.8824568849-.1388767804-.5637064885-.2654545101-1.074117091-.3797331891-1.5317442676-.1142786791.416630341-.2126710843.8378728262-.294152295,1.2621900739-.1306774133.4089434345-.2408564087.7927763071-.3310494469,1.1520110785l-1.8012984613,5.9194305906Z"/>
        <path class="cls-1" d="m20.2329632566,272.270643781v-17.9412401503h4.8893850978v13.7498261775h6.0782933283v4.1914139729h-10.9676784261Z"/>
        <path class="cls-1" d="m31.4824949269,272.270643781l6.1889847842-17.9412401503h6.1274895309l6.2007713744,17.9412401503h-4.8652994569l-.9065425257-3.2110771432h-6.9484511625l-.9316530875,3.2110771432h-4.8652994569Zm6.8505712176-6.7034950702h4.8652994569l-1.8258965625-5.9194305906c-.0409968355-.106079312-.1188908231-.3997191465-.2331695021-.8824568849-.1388767804-.5637064885-.2654545101-1.074117091-.3797331891-1.5317442675-.114278679.416630341-.2126710843.8378728262-.2941522949,1.2621900739-.1306774133.4089434345-.2408564088.7927763071-.3310494469,1.1520110785l-1.8012984612,5.9194305906Z"/>
        <path class="cls-1" d="m51.715970644,272.270643781v-17.9412401503h10.9922765274v3.9459454201h-6.2253694757v3.1003856872h5.8702343879v3.8603645259h-5.8702343879v7.0345445171h-4.7669070516Z"/>
        <path class="cls-1" d="m63.2596546093,272.270643781l6.1889847842-17.9412401503h6.1274895309l6.2007713744,17.9412401503h-4.8652994569l-.9065425257-3.2110771432h-6.9484511625l-.9316530875,3.2110771432h-4.8652994569Zm6.8505712176-6.7034950702h4.8652994569l-1.8258965626-5.9194305906c-.0409968355-.106079312-.118890823-.3997191465-.2331695021-.8824568849-.1388767804-.5637064885-.2654545101-1.074117091-.3797331892-1.5317442676-.114278679.4166303411-.2126710843.8378728262-.2941522949,1.2621900739-.1306774133.4089434345-.2408564088.7927763071-.3310494469,1.1520110785l-1.8012984612,5.9194305906Z"/>
        <path class="cls-1" d="m83.4926178659,272.270643781v-17.9412401503h10.9922765274v3.9459454201s-6.2253694757,0-6.2253694757,0v3.1003856872h5.8702343879v3.8603645259h-5.8702343879v7.0345445171h-4.7669070516Z"/>
        <path class="cls-1" d="m125.5758695408,272.270643781h-4.571147162l-1.0541311337-7.7576262038c-.0896805777-.6943839019-.1552755146-1.3026744491-.1957598897-1.8258965627-.0573955697-.5150227463-.1147911395-1.2457913397-.1716742488-2.1938431615-.1470761475.8501718769-.376145966,1.7977112381-.6861845347,2.8431305442-.0655949369.2044717173-.1147911395.3802456496-.1470761475.5273217971l-2.4387992538,8.4069135866h-3.2597608854l-2.4387992538-8.4069135866c-.0245981013-.1388767804-.0732818435-.3146507128-.1470761475-.5273217971-.3433484976-1.1028148758-.5678061721-2.0503542371-.6738854841-2.8431305442-.0655949368.898855619-.1270901902,1.5686414196-.1839732995,2.0098698621-.0245981013.2290698185-.0609827929.5637064886-.1101789955,1.004934931s-.0860933546.7763775729-.1101789955,1.0049349311l-1.0541311336,7.7576262038h-4.5465490607l2.7698487007-17.9412401503h4.8407013556l2.707840987,9.2524733194c.0491962026.1716742488.0819936711.2818532444.0983924053.3305369865.2367567252.7681782058.3961319234,1.4707614747.477613134,2.1082622672.0163987342-.2208704514.0778939875-.5801052227.1839732994-1.078729235.0327974684-.1224780461.1552755146-.5836924459.3679465989-1.3846681201l2.7324390883-9.2278752181h4.8530004063l2.75754965,17.9412401503Z"/>
        <path class="cls-1" d="m128.2104286843,272.270643781v-17.9412401503h10.9922765274v3.9459454201s-6.2253694757,0-6.2253694757,0v3.1003856872s5.8702343879,0,5.8702343879,0v3.8603645259h-5.8702343879v3.014804793h6.2253694757v4.0197397241h-10.9922765274Z"/>
        <path class="cls-1" d="m142.4383804562,272.270643781v-17.9412401503s3.7373740193,0,3.7373740193,0c2.82673181,0,4.7997045201.1311898737,5.9194305906.3930571607,1.1596979851.261867287,2.1728322833.6984835854,3.0388904339,1.3113862766,1.1438117114.7840644796,2.0057701785,1.7971987777,2.5858754013,3.0388904338.5883045899,1.2498910234.8824568849,2.6632569284.8824568849,4.2400977151,0,1.5763283263-.294152295,2.9896942313-.8824568849,4.240097715-.5801052228,1.225292922-1.4420636899,2.2384272201-2.5858754013,3.0383779735-.8988556191.6129026912-1.8873918159,1.0377323994-2.9656085904,1.2744891246-1.0782167745.2695541937-2.8021337087.4048437509-5.1717508025.4048437509h-4.5583356508Zm4.8401888951-4.0197397241h.821474092c1.927876191,0,3.3289430453-.3997191465,4.203200563-1.1996698997.8824568849-.7835520192,1.3236853273-2.0278059776,1.3236853273-3.7332743357,0-1.6972689912-.4412284424-2.9497223167-1.3236853273-3.7573599767-.8824568848-.8076376599-2.2835237392-1.21145649-4.203200563-1.21145649h-.821474092v9.9017607022Z"/>
        <path class="cls-1" d="m161.7888868279,272.270643781v-17.9412401503h4.9385813004v17.9412401503s-4.9385813004,0-4.9385813004,0Z"/>
        <path class="cls-1" d="m183.6760723983,255.0278872161v5.3429125909c-.7025832689-.7599788387-1.3646821628-1.3113862767-1.9852717607-1.6542223138-.6943839019-.33463667-1.413365905-.5027236956-2.1569460095-.5027236957-1.3969671708,0-2.5366791986.4781255944-3.4191360835,1.4338643228-.3023516621.3433484976-.5473077544.7010458877-.7353807374,1.0725797096-.188072983.3715338221-.3289996052.7922638467-.4227798664,1.262190074-.0937802613.4699262274-.1409266221.9460019799-.1409266221,1.4277147975,0,1.4379640063.4412284424,2.6345591435,1.3236853273,3.5902978719.8906562519.9398524546,2.0221689127,1.4097786819,3.3945379821,1.4097786819.7353807374,0,1.4543627405-.1757739323,2.1569460095-.527321797.6205895979-.3187503963,1.2826884918-.8655456902,1.9852717607-1.6419232632v5.3552116416c-.9070549862.4253421686-1.6788204151.7066829525-2.3158087472.8455597328-.7922638467.188072983-1.5681289591.2818532444-2.3275953374.2818532444-.9639380955,0-1.8709930816-.1163285209-2.7206524981-.3489855625-.849146956-.2331695021-1.6086133343-.5862547482-2.2783991348-1.060280659-1.3364968384-.9147418929-2.3552682014-2.04215487-3.056314089-3.3822389315-.7005334272-1.3887678037-1.051056371-2.9287114384-1.051056371-4.6203433647,0-1.3559703352.2285573581-2.601761675.6856720743-3.7373740193.2039592568-.5473077543.4627517811-1.0643803426.7774024938-1.5501928436.3141382522-.4858125011.7205193845-.9905860386,1.2181184758-1.513808152.8573463231-.8819444245,1.8202594977-1.5358439512,2.8897644447-1.9606736594,1.0613055799-.4325166149,2.2404770619-.6492873827,3.538539367-.6492873827.7425551836,0,1.5179078356.0896805778,2.3260579561.2695541936.7999507533.2126710843,1.5712037218.4986240122,2.3142713659.8578587835Z"/>
        <path class="cls-1" d="m184.325359781,272.270643781l6.1889847842-17.9412401503h6.1274895309l6.2007713744,17.9412401503h-4.8652994569l-.9065425257-3.2110771432h-6.9484511625l-.9316530875,3.2110771432h-4.8652994569Zm6.8505712176-6.7034950702h4.8652994569l-1.8258965626-5.9194305906c-.0409968355-.106079312-.1188908231-.3997191465-.2331695021-.8824568849-.1388767804-.5637064885-.2654545101-1.074117091-.3797331892-1.5317442676-.114278679.416630341-.2126710843.8378728262-.2941522949,1.2621900739-.1306774133.4089434345-.2408564088.7927763071-.3310494469,1.1520110785l-1.8012984613,5.9194305906Z"/>
        <path class="cls-1" d="m204.5583230377,272.270643781v-17.9412401503h4.8893850978v13.7498261775h6.0782933283v4.1914139729h-10.9676784261Z"/>
        <path class="cls-1" d="m226.5649118915,266.4736912366c.7507545507.8332606822,1.4681991726,1.450263057,2.1538712469,1.8504946638.7179570823.4089434345,1.4195154303.6129026913,2.1046750442.6129026913.6446752387,0,1.1786590216-.1757739324,1.6029762693-.5268093366.4243172478-.3510354043.6364758716-.7968759907.6364758716-1.3359843779,0-.58830459-.1752614719-1.0495189897-.5262968761-1.3846681202-.3751210451-.3187503962-1.2027446625-.6497998432-2.4833833124-.9926358803-1.7459527332-.4740259109-2.9814948642-1.0864161416-3.7076513135-1.8381956132-.733843356-.7676657454-1.1012774945-1.8141099723-1.1012774945-3.1372828391,0-1.7157175671.5754930788-3.1126847379,1.7264792364-4.1914139729,1.134074963-1.0864161416,2.6196977906-1.6296242124,4.4563560225-1.6296242124,1.0361950181,0,1.9750225518.1347770968,2.8154576803.4043312905.885019187.2695541936,1.7244293946.6697858005,2.5192555435,1.2012072811l-1.5363564116,3.5170160282c-.5385959268-.4658265437-1.1094768616-.8250613151-1.7136677252-1.0787292349-.5872796691-.2367567252-1.1627727478-.3551350878-1.7254543156-.3551350878-.5713933952,0-1.0490065292.1429764639-1.4323269414.4289293917-.366921678.2695541937-.5508949775.6293014255-.5508949775,1.0782167745,0,.4335415358.1593751981.7927763072.4781255944,1.0787292349.33463667.2695541937.9639380954.5268093366,1.8873918159.7717654289.032285008.0081993671.0609827929.0143488925.0855808942.018448576.0245981014.0040996836.0609827929.0143488924.1101789955.0307476266,1.9934711278.5309090202,3.308957088,1.1274129772,3.9459454201,1.7889994106.4166303411.4166303412.7435801045.9439521382.9803368297,1.5809404702.2126710843.6047033242.3187503963,1.2908878589.3187503963,2.0590660647,0,1.895591183-.6246892814,3.4273354505-1.8750927652,4.5952328028-1.2580903904,1.1520110785-2.9246117548,1.7280166178-4.9995640933,1.7280166176-1.2744891247.0000000001-2.4126637712-.2080589402-3.4129865582-.6252017418-1.0008352474-.4161178807-1.9878340629-1.0864161417-2.9599715255-2.0093574017l2.2030674494-3.6400065348Z"/>
        <path class="cls-1" d="m240.3547099836,272.270643781v-17.9412401503h10.9922765274v3.9459454201h-6.2253694758v3.1003856872h5.8702343879v3.8603645259h-5.8702343879v3.014804793h6.2253694758v4.0197397241h-10.9922765274Z"/>
        <path class="cls-1" d="m254.5703627048,272.270643781v-17.9412401503h5.116917535c.9895611177,0,1.8258965626.0204984178,2.5090063347.0609827929.6831097721.0409968355,1.2457913398.1101789955,1.6875322426.2085714007.7599788387.179873616,1.4379640063.4899121847,2.0344679633.9311406271.6533870663.4904246451,1.1473989345,1.1197260705,1.482548065,1.8873918159.3515478647.7353807374.527321797,1.5686414196.527321797,2.4997820467,0,1.381080897-.3433484976,2.5125935577-1.0295330323,3.3945379821-.670298261.8824568849-1.6629341413,1.4584624242-2.9779076411,1.7280166177l4.8893850978,7.2308168673h-5.5268858903l-4.1176196689-7.0222454664v7.0222454664h-4.5952328028Zm4.5952328028-9.4610447203h.9070549862c1.0700174074,0,1.8422952968-.1752614719,2.3163212076-.5268093366.4817128175-.3925447003.7230816867-.959838412.7230816867-1.7034185164,0-.8988556191-.224970135-1.5358439512-.6743979445-1.9119899172-.4576271766-.3838328727-1.2211932384-.5760055393-2.2917231063-.5760055393h-.9803368297v4.7182233094Z"/>
        <path class="cls-1" d="m275.807748432,272.270643781l-7.5244567017-17.9412401503h5.1963489038l3.5908103323,10.036537799c.0568831093.2208704515.1224780462.4699262274.1957598897.7476797881.0978799449.4248297082.2331695021.9762371461.4043312905,1.6542223138.1060793119-.4899121847.2331695021-.9803368297.3802456495-1.4707614748.1060793119-.4817128175.1875605226-.7922638466.2449560923-.9311406271l3.5662122309-10.036537799h5.1958364434l-7.5244567017,17.9412401503h-3.7255874291Z"/>
        <path class="cls-1" d="m288.638733033,272.270643781v-17.9412401503h4.9385813004v17.9412401503h-4.9385813004Z"/>
        <path class="cls-1" d="m310.5259186034,255.0278872161v5.3429125909c-.7025832689-.7599788387-1.3646821628-1.3113862767-1.9852717607-1.6542223138-.6943839019-.33463667-1.413365905-.5027236956-2.1569460095-.5027236956-1.3969671708,0-2.5366791986.4781255943-3.4191360835,1.4338643227-.3023516621.3433484976-.5473077544.7010458877-.7353807374,1.0725797096-.188072983.3715338221-.3289996052.7922638467-.4227798664,1.262190074s-.1409266221.9460019799-.1409266221,1.4277147975c0,1.4379640063.4412284424,2.6345591435,1.3236853273,3.5902978719.8906562519.9398524546,2.0221689127,1.4097786819,3.3945379822,1.4097786819.7353807374,0,1.4543627405-.1757739323,2.1569460095-.527321797.6205895979-.3187503963,1.2826884917-.8655456902,1.9852717607-1.6419232632v5.3552116416c-.9070549862.4253421686-1.6788204151.7066829525-2.3158087472.8455597328-.7922638467.188072983-1.5681289592.2818532444-2.3275953374.2818532444-.9639380955,0-1.8709930817-.1163285209-2.7206524981-.3489855625-.849146956-.2331695021-1.6086133343-.5862547482-2.2783991348-1.060280659-1.3364968384-.9147418929-2.3552682014-2.04215487-3.056314089-3.3822389315-.7005334272-1.3887678037-1.051056371-2.9287114384-1.051056371-4.6203433647,0-1.3559703352.2285573581-2.601761675.6856720743-3.7373740193.2039592568-.5473077543.4627517811-1.0643803426.7774024938-1.5501928436.3141382523-.4858125011.7205193845-.9905860386,1.2181184758-1.513808152.857346323-.8819444245,1.8202594977-1.5358439512,2.8897644446-1.9606736594,1.0613055799-.4325166149,2.2404770619-.6492873827,3.5385393669-.6492873827.7425551836,0,1.5179078357.0896805777,2.3260579561.2695541936.7999507533.2126710843,1.5712037218.4986240122,2.3142713658.8578587835Z"/>
        <path class="cls-1" d="m313.2834682534,272.270643781v-17.9412401503h10.9922765274v3.9459454201h-6.2253694757v3.1003856872h5.8702343879v3.8603645259h-5.8702343879v3.014804793s6.2253694757,0,6.2253694757,0v4.0197397241h-10.9922765274Z"/>
        <path class="cls-1" d="m328.3047087929,266.4736912366c.7507545507.8332606822,1.4681991725,1.450263057,2.1538712468,1.8504946638.7179570823.4089434345,1.4195154303.6129026913,2.1046750442.6129026913.6446752388,0,1.1786590216-.1757739324,1.6029762694-.5268093366s.6364758716-.7968759907.6364758716-1.3359843779c0-.58830459-.1752614719-1.0495189897-.5262968761-1.3846681202-.3751210452-.3187503962-1.2027446625-.6497998432-2.4833833125-.9926358803-1.7459527333-.4740259109-2.9814948642-1.0864161417-3.7076513135-1.8381956133-.7338433561-.7676657454-1.1012774945-1.8141099723-1.1012774945-3.1372828391,0-1.7157175671.5754930788-3.1126847378,1.7264792364-4.1914139729,1.134074963-1.0864161416,2.6196977906-1.6296242124,4.4563560224-1.6296242124,1.0361950181,0,1.9750225519.1347770968,2.8154576803.4043312905.885019187.2695541936,1.7244293946.6697858005,2.5192555435,1.2012072811l-1.5363564116,3.5170160282c-.5385959268-.4658265437-1.1094768616-.8250613151-1.7136677253-1.0787292349-.587279669-.2367567252-1.1627727478-.3551350878-1.7254543155-.3551350878-.5713933953,0-1.0490065292.1429764639-1.4323269415.4289293917-.366921678.2695541937-.5508949775.6293014255-.5508949775,1.0782167745,0,.4335415358.1593751981.7927763072.4781255944,1.078729235.3346366701.2695541937.9639380955.5268093366,1.8873918159.7717654289.032285008.0081993671.0609827929.0143488925.0855808942.018448576.0245981013.0040996836.0609827928.0143488924.1101789955.0307476266,1.9934711278.5309090202,3.308957088,1.1274129772,3.9459454201,1.7889994106.4166303411.4166303412.7435801045.9439521382.9803368297,1.5809404702.2126710843.6047033242.3187503963,1.2908878589.3187503963,2.0590660647,0,1.895591183-.6246892814,3.4273354505-1.8750927652,4.5952328028-1.2580903905,1.1520110785-2.9246117549,1.7280166178-4.9995640933,1.7280166178-1.2744891246,0-2.4126637711-.2080589403-3.4129865581-.6252017419-1.0008352475-.4161178807-1.9878340629-1.0864161417-2.9599715255-2.0093574017l2.2030674495-3.6400065348Z"/>
        <path class="cls-1" d="m47.8889160469,304.1021242704c0,.1798736159.0081993671.3289996052.0245981013.4473779678.0163987342.1183783626.0471463609.2142084656.0922428799.2880027696.0445840586.0737943039.106079312.1245278879.183460839.1532256727.0778939875.0286977849.1819234577.0425342169.312600871.0425342169h1.9975708113c.188072983,0,.3371989723.026647943.4473779678.0799438292.1101789955.0532958863.1916602061.1347770969.2449560923.2449560924.0532958862.1106914559.0860933546.2557177615.0983924053.4350789171.0117865902.1798736159.0179361155.3920322397.0179361155.6375007924v.6492873828c0,.3187503963-.0143488924.5739556975-.0425342169.7661283641-.0286977849.1921726665-.073794304.3366865118-.1347770968.4350789171-.0614952533.0978799448-.1429764639.1634748817-.2454685528.1957598896-.1019796284.0327974685-.2306071998.0491962027-.3858827145.0491962027h-2.5612772999c-.5391083873,0-1.0172339817-.0327974685-1.4338643228-.0978799449-.4166303412-.0655949368-.7779149543-.1552755146-1.0843662999-.2700666541-.3064513456-.1137662186-.5698560139-.2552053012-.7907264654-.4222674061-.220357991-.1675745652-.4043312905-.3576973899-.5514074379-.5698560138-.5145102859.1875605226-1.0090346145.3269497634-1.4825480649.4166303411-.4740259109.0896805777-.9562511888.1347770968-1.4461633735.1347770968-.6293014254,0-1.2642399157-.0840435128-1.9058403919-.2511056176-.6410880157-.1675745652-1.2232430802-.4273920105-1.7459527333-.7784274147-.5232221135-.3510354042-.9480518217-.8030255161-1.2744891246-1.3544329539-.3269497634-.5514074379-.490424645-1.2109440296-.490424645-1.9791222354,0-.628788965.1183783626-1.1986449788.3551350878-1.7095680417.2372691857-.5104106024.5534572797-.9741873043.9501016635-1.3908176455.3961319233-.4166303411.8558089418-.7861143214,1.3785185948-1.1089644012.522709653-.3228500798,1.0700174074-.6067531659,1.6424357236-.8517092582.5713933952-.2449560924,1.1514986181-.4576271767,1.739803208-.6375007926.5883045899-.1793611555,1.1438117114-.3305369865,1.6670338249-.4530150326,0-.2367567252.0035872231-.4801754362.0117865902-.729231212.0081993671-.2490557759.0122990506-.4965741704.0122990506-.7415302627h4.3994729132v8.3700164346Zm-8.7989458263-12.5245332554c0-.294152295.0553457279-.5672937117.1655247234-.8209616316.1101789955-.2531554594.2593049848-.4760757526.4473779677-.6677359587.188072983-.1921726666.408430974-.3433484976.6615864334-.4535274932.2531554594-.1101789955.522709653-.1655247234.8091750413-.1655247234.2859529279,0,.5534572797.055345728.8025130556.1655247235.2490557759.1101789954.4678763855.2613548265.6554369081.453527493.188072983.1916602061.3371989722.4145804993.4473779678.6677359587.1106914559.2536679199.1655247235.5268093366.1655247235.8209616316s-.0548332675.5683186326-.1655247235.821474092c-.1101789955.2531554594-.2593049848.4735134504-.4473779678.6615864334-.1875605226.188072983-.4063811322.3366865118-.6554369081.4473779677-.2490557759.1101789955-.5165601277.165012263-.8025130556.165012263-.2864653883,0-.5560195819-.0548332675-.8091750413-.165012263-.2531554594-.1106914559-.4735134504-.2593049847-.6615864334-.4473779677s-.3371989723-.408430974-.4473779678-.6615864334-.1655247234-.5273217971-.1655247234-.821474092Zm4.3994729132,9.1299952733c-.5309090202.1388767804-1.0105719959.2921024531-1.4395013877.4596770184s-.7927763071.3535977064-1.0910282857.5575569633c-.2982519785.2039592567-.5288591783.4289293918-.69233406.6738854841-.1634748817.2454685527-.2449560923.5150227463-.2449560923.8091750412,0,.3510354043.1429764639.628788965.4289293917.8332606823.2859529279.2039592567.6615864334.3064513456,1.1274129772.3064513456.33463667,0,.6636362752-.0348473103.986486355-.1045419306.3228500798-.06918216.6267391232-.1691119466.9126920511-.3003018203l.0122990507-3.235162784Zm.6375007926-9.1299952733c0-.294152295.0553457279-.5672937117.1655247234-.8209616316.1101789955-.2531554593.2593049848-.4760757526.4473779678-.6677359587.1875605226-.1921726666.4058686718-.3433484976.6554369081-.4535274932.2490557759-.1101789955.5165601277-.1655247234.8025130556-.1655247234s.5534572797.055345728.803025516.1655247235c.2490557759.1101789954.4673639251.2613548265.6554369081.453527493.188072983.1916602061.3371989723.4145804993.4473779678.6677359587.1101789955.2536679199.1655247235.5268093366.1655247235.8209616316s-.055345728.5683186326-.1655247235.821474092-.2593049848.4735134504-.4473779678.6615864334-.4063811322.3366865118-.6554369081.4473779677c-.2495682363.1101789955-.5170725882.165012263-.803025516.165012263s-.5534572797-.0548332675-.8025130556-.165012263c-.2495682363-.1106914559-.4678763855-.2593049848-.6554369081-.4473779677-.188072983-.188072983-.3371989722-.408430974-.4473779678-.6615864334-.1101789955-.2531554594-.1655247234-.5273217971-.1655247234-.821474092Z"/>
        <path class="cls-1" d="m57.5703187581,304.0775261691v.1470761475c0,.0491962026-.0040996835.0942927217-.0122990507.1347770968.4412284424.2536679199.9173041951.4289293917,1.4277147975.527321797.5104106024.0978799449.9987854057.1465636871,1.4646119494.1465636871h.0614952533c.1957598897,0,.3469357207.026647943.4530150327.0799438292.1060793119.0532958863.188072983.1347770969.2454685527.2449560924.0568831093.1106914559.0917304195.2557177615.1040294702.4350789171.0122990506.1798736159.018448576.3920322397.018448576.6375007925v.6492873827c0,.3187503963-.0143488924.5739556975-.0430466773.7661283641-.0286977849.1921726665-.0732818435.3366865118-.1347770968.4350789171-.0614952533.0978799448-.1450263057.1634748817-.2511056176.1957598896-.1065917724.0327974685-.2372691857.0491962027-.3920322398.0491962027h-.0983924053c-.6211020583,0-1.2539907069-.1306774133-1.8991784061-.3920322398-.6457001596-.2613548266-1.2381044331-.6293014254-1.7772128204-1.1033273364-.3269497634.44994027-.766128364.8112248832-1.3175358019,1.0848787603s-1.2519408651.4104808158-2.1016002815.4104808158h-2.8431305442c-.1547630541,0-.2859529279-.0163987342-.3920322398-.0491962027-.1060793119-.0322850079-.1901228248-.0978799448-.2511056176-.1957598896-.0614952533-.0983924053-.106079312-.2429062505-.1347770968-.4350789171-.0286977849-.1921726667-.0430466773-.4473779678-.0430466773-.7661283641v-.6492873827c0-.2454685528.0061495254-.4576271766.018448576-.6375007925.0122990507-.1793611555.0471463609-.3243874612.1040294702-.4350789171.0573955698-.1101789955.1388767803-.1916602062.2449560923-.2449560924.1065917724-.0532958862.2577676034-.0799438292.4535274931-.0799438292h1.7157175671c.3433484976,0,.5862547481-.0809687503.7292312121-.2449560924.1429764639-.1629624212.2142084656-.4735134504.2142084656-.9311406271v-6.1151904802h4.4363700652s0,6.3355484712,0,6.3355484712Zm-7.2549025081,8.9952181764c0-.294152295.055345728-.5678061722.1655247234-.8209616315.1101789955-.2531554595.2593049848-.4760757527.4473779678-.6682484193.188072983-.1916602061.408430974-.3428360371.6615864334-.4530150326.2531554594-.110691456.5227096531-.1655247235.8091750414-.1655247235.2854404674,0,.5529448192.0548332675.8025130556.1655247235.2490557759.1101789955.4673639251.2613548265.6554369081.4530150326.188072983.1921726666.3371989722.4150929598.4473779678.6682484193.1101789955.2531554593.1655247235.5268093365.1655247235.8209616316s-.055345728.5678061721-.1655247235.8209616315c-.1101789955.2531554594-.2593049848.4740259109-.4473779678.6620988938-.188072983.1875605226-.4063811322.3366865119-.6554369081.4468655074-.2495682363.1106914559-.5170725882.1655247234-.8025130556.1655247234-.2864653883,0-.556019582-.0548332675-.8091750414-.1655247234-.2531554594-.1101789956-.4735134504-.2593049848-.6615864334-.4468655074-.188072983-.188072983-.3371989723-.4089434344-.4473779678-.6620988938-.1101789955-.2531554594-.1655247234-.5268093366-.1655247234-.8209616316Zm5.0369737057,0c0-.294152295.0548332675-.5678061722.1655247235-.8209616316.1101789955-.2531554595.2593049848-.4760757527.4473779677-.6682484193.1875605226-.1916602061.4058686718-.3428360371.6554369081-.4530150326.2490557758-.110691456.5165601277-.1655247235.8025130555-.1655247235s.5534572797.0548332675.803025516.1655247235c.2490557759.1101789955.4673639251.2613548265.6554369081.4530150326.188072983.1921726666.3371989722.4150929598.4473779677.6682484193.1101789955.2531554593.1655247235.5268093365.1655247235.8209616316s-.055345728.5678061721-.1655247235.8209616315-.2593049847.4740259109-.4473779677.6620988938c-.188072983.1875605226-.4063811322.3366865119-.6554369081.4468655074-.2495682363.1106914559-.5170725882.1655247234-.803025516.1655247234s-.5534572797-.0548332675-.8025130556-.1655247234c-.2495682363-.1101789956-.4678763856-.2593049848-.6554369081-.4468655074-.188072983-.188072983-.3371989722-.4089434344-.4473779677-.6620988938-.1106914559-.2531554594-.1655247235-.5268093366-.1655247235-.8209616315Z"/>
        <path class="cls-1" d="m67.5827709162,304.0775261691v.1470761475c0,.0491962026-.0040996835.0942927217-.0122990507.1347770968.4412284424.2536679199.9173041951.4289293917,1.4277147975.527321797.5104106024.0978799449.9987854057.1465636871,1.4646119494.1465636871h.0614952533c.1957598896,0,.3469357207.026647943.4530150326.0799438292.1060793119.0532958863.188072983.1347770969.2454685527.2449560924.0568831093.1106914559.0917304195.2557177615.1040294702.4350789171.0122990507.1798736159.018448576.3920322397.018448576.6375007925v.6492873827c0,.3187503963-.0143488924.5739556975-.0430466773.7661283641-.0286977849.1921726665-.0732818435.3366865118-.1347770968.4350789171-.0614952533.0978799448-.1450263057.1634748817-.2511056177.1957598896-.1065917724.0327974685-.2372691856.0491962027-.3920322397.0491962027h-.0983924053c-.6211020583,0-1.2539907068-.1306774133-1.8991784061-.3920322398-.6457001597-.2613548266-1.2381044331-.6293014254-1.7772128204-1.1033273364-.3269497634.44994027-.766128364.8112248832-1.317535802,1.0848787603s-1.2519408651.4104808158-2.1016002815.4104808158h-2.8431305442c-.1547630542,0-.2859529278-.0163987342-.3920322398-.0491962027-.106079312-.0322850079-.1901228248-.0978799448-.2511056177-.1957598896-.0614952533-.0983924053-.106079312-.2429062505-.1347770968-.4350789171s-.0430466773-.4473779678-.0430466773-.7661283641v-.6492873827c0-.2454685528.0061495253-.4576271766.018448576-.6375007925.0122990507-.1793611555.0471463609-.3243874612.1040294702-.4350789171.0573955698-.1101789955.1388767804-.1916602062.2449560923-.2449560924.1065917724-.0532958862.2577676034-.0799438292.4535274931-.0799438292h1.7157175671c.3433484976,0,.5862547481-.0809687503.7292312121-.2449560924.1429764639-.1629624212.2142084656-.4735134504.2142084656-.9311406271v-6.1151904802h4.4363700652v6.3355484712Zm-4.3379776599,9.0444143791c0-.294152295.0548332675-.5678061721.1655247235-.8209616315.1101789955-.2536679199.2593049848-.4765882131.4468655073-.6682484192.188072983-.1921726666.408430974-.3433484976.6620988938-.4535274931.2531554595-.1101789955.5227096531-.1655247235.8086625809-.1655247235s.5534572797.055345728.8025130555.1655247235c.2495682363.1101789954.4678763855.2613548265.6559493686.4535274931.1875605226.1916602061.33463667.4145804993.4412284424.6682484192.1060793119.2531554594.1593751982.5268093365.1593751981.8209616315s-.0532958862.5678061722-.1593751981.8209616316c-.1065917724.2531554594-.2536679199.4735134504-.4412284424.6615864335-.188072983.188072983-.4063811322.3371989722-.6559493686.4473779678-.2490557759.1101789955-.5165601277.1655247234-.8025130556.1655247234s-.5555071215-.055345728-.8086625809-.1655247234c-.2536679199-.1101789956-.4740259108-.2593049847-.6620988939-.4473779678-.1875605225-.188072983-.3366865118-.408430974-.4468655073-.6615864335-.1106914559-.2531554594-.1655247235-.5268093366-.1655247235-.8209616316Z"/>
        <path class="cls-1" d="m70.499183304,308.5261952849c-.1547630542,0-.2859529278-.0163987342-.3920322398-.0491962027-.106079312-.0322850079-.1901228248-.0978799448-.2511056176-.1957598896-.0614952533-.0983924053-.106079312-.2429062506-.1347770968-.4350789171-.0286977849-.1921726667-.0430466773-.4473779678-.0430466773-.7661283641v-.6492873827c0-.2454685528.0061495254-.4576271766.018448576-.6375007925.0122990507-.1793611555.0471463609-.3243874612.1040294702-.4350789171.0573955698-.1101789955.1388767804-.1916602062.2449560923-.2449560924.1065917724-.0532958862.2577676034-.0799438292.4535274931-.0799438292h2.7329515487c.114278679-.2772411004.2449560923-.5672937117.3920322398-.8696453738s.3105510292-.6129026912.4904246451-.9316530876v-12.3651580572h4.4117719638v7.3896796048c.6533870663-.4243172477,1.3600700188-.7635660617,2.1200488575-1.0167215211.7594663783-.2531554595,1.5763283263-.3802456496,2.4510983045-.3802456496,1.0618180403,0,1.9791222354.1716742488,2.7508876643.5145102859.7722778894.3433484977,1.4113160632.8153245667,1.9181394425,1.4154157469.5063109188.6006036405.8819444244,1.3098488952,1.1274129771,2.1267108433.2449560923.816861948.3674341385,1.6993188329.3674341385,2.6468581941v1.4702490143h2.6227725532c.1957598897,0,.3469357207.026647943.4530150327.0799438292.1060793119.0532958863.188072983.1347770969.2454685528.2449560924.0568831093.1106914559.0917304195.2557177615.1040294702.4350789171.0122990506.1798736159.018448576.3920322397.018448576.6375007925v.6492873827c0,.3187503963-.0143488924.5739556975-.0430466773.7661283641-.0286977849.1921726665-.0732818435.3366865118-.1347770968.4350789171-.0609827929.0978799448-.1450263058.1634748817-.2511056177.1957598896-.1060793119.0327974685-.2372691856.0491962027-.3920322398.0491962027h-21.384974335Zm14.3996260206-4.7305223601c0-.6369883321-.0655949368-1.1658475105-.1962723501-1.5870899955-.1306774133-.4202175643-.3167005545-.7594663783-.5575569633-1.0167215212-.2408564088-.257255143-.5370585455-.4391786007-.8886064102-.5452579126-.3510354042-.1065917724-.7471673276-.1598876586-1.18839577-.1598876586-.4822252779,0-.9741873044.1188908231-1.4769110001.3556475483-.5022112353.2372691857-.9844365132.5616566468-1.4461633734.9741873043-.4617268602.4125306576-.8880939497.8947559356-1.28063865,1.4461633735-.3920322398.551407438-.7230816867,1.1417618696-.9926358804,1.7705508347h8.0271803974v-1.2375919727Z"/>
        <path class="cls-1" d="m91.8595595378,308.5261952849c-.1547630542,0-.2859529279-.0163987342-.3920322398-.0491962027-.1060793119-.0322850079-.1901228247-.0978799448-.2511056176-.1957598896-.0614952533-.0983924053-.106079312-.2429062506-.1347770968-.4350789171-.0286977849-.1921726667-.0430466773-.4473779678-.0430466773-.7661283641v-.6492873827c0-.2454685528.0061495253-.4576271766.018448576-.6375007925.0122990507-.1793611555.0471463609-.3243874612.1040294702-.4350789171.0573955698-.1101789955.1388767804-.1916602062.2449560924-.2449560924.1065917724-.0532958862.2577676034-.0799438292.4535274931-.0799438292h2.4756964057v-14.154157468h4.4363700652v17.6470878554h-6.9120664709Z"/>
        <path class="cls-1" d="m102.4475047747,290.8791074295h4.4117719638v17.6470878554s-4.4117719638,0-4.4117719638,0v-17.6470878554Z"/>
        <path class="cls-1" d="m134.6043976462,305.0332648975v-7.2912871997s4.4117719638,0,4.4117719638,0v10.784217587h-14.9141363066c-1.0705298678,0-2.0037203367-.0614952533-2.8005963274-.1839732994-.7963635302-.1224780462-1.4784483814-.2956896763-2.0462545536-.5206598113-.5678061721-.2244576746-1.0377323994-.4945243287-1.4092662215-.8086625809-.3720462825-.3146507128-.6641487356-.6620988939-.8763073595-1.041832083-.2126710843-.3797331892-.3617970736-.7861143214-.4473779677-1.2196558571-.0855808942-.4325166149-.1286275715-.8819444244-.1286275715-1.3477709682,0-.1634748816.0102492089-.3674341385.0307476267-.6129026912.0199859573-.2449560923.0486837422-.5124604442.0855808942-.8025130556s.0799438293-.5883045899.1286275715-.8947559355c.0491962026-.3064513456.1019796284-.5980413384.1593751981-.8763073595.6615864334.0573955698,1.3236853273.1168409812,1.9852717607.1778237741.6620988939.0614952533,1.3236853273.1209406648,1.9852717607.1778237741-.0814812106.4330290753-.1388767804.8394102076-.1716742488,1.2196558571-.032285008.3797331891-.0486837422.6759353258-.0486837422.8880939498,0,.4084309739.0568831093.7599788387.1716742488,1.0541311336.114278679.2941522949.3305369865.5370585455.6492873827.7287187516.3187503963.1921726666.7635660618.3351491305,1.3359843779.4294418522.5713933952.0937802613,1.3149734997.1404141618,2.230227853.1404141618h9.6691036606Zm-10.5638595961-12.7694893478c0-.2941522949.0553457279-.5678061722.1655247234-.8209616315s.2593049848-.4755632922.4473779678-.6677359588c.1875605226-.1921726666.408430974-.3433484977.6615864334-.453527493.2531554595-.1101789955.5227096531-.1655247235.8091750414-.1655247235.2854404674,0,.5529448193.055345728.8025130556.1655247235.2490557759.1101789954.4673639251.2613548264.6554369081.453527493s.3371989722.4145804993.4473779677.6677359588c.1101789955.2531554593.1655247235.5268093366.1655247235.8209616315s-.055345728.5683186326-.1655247235.821474092-.2593049847.4740259109-.4473779677.6615864335c-.188072983.188072983-.4063811322.3371989722-.6554369081.4473779677-.2495682363.1101789955-.5170725882.1655247235-.8025130556.1655247235-.2864653883,0-.5560195819-.055345728-.8091750414-.1655247235s-.4740259108-.2593049847-.6615864334-.4473779677c-.188072983-.1875605226-.3371989722-.4084309741-.4473779677-.6615864335s-.1655247235-.527321797-.1655247234-.821474092Zm5.0369737057,0c0-.2941522949.0548332675-.5678061722.1655247235-.8209616315.1101789955-.2531554594.2587925243-.4755632922.4468655073-.6677359588s.4063811322-.3433484977.6559493685-.453527493c.2490557759-.1101789955.5165601277-.1655247235.8025130556-.1655247235s.5534572797.055345728.803025516.1655247235c.2490557758.1101789954.4673639251.2613548264.6554369081.453527493.1875605226.1921726666.3371989723.4145804993.4473779678.6677359588s.1655247234.5268093366.1655247235.8209616315-.055345728.5683186326-.1655247235.821474092-.2598174452.4740259109-.4473779678.6615864335c-.188072983.188072983-.4063811322.3371989722-.6554369081.4473779677-.2495682363.1101789955-.5170725882.1655247235-.803025516.1655247235s-.5534572797-.055345728-.8025130556-.1655247235c-.2495682363-.1101789955-.4678763855-.2593049847-.6559493685-.4473779677-.188072983-.1875605226-.3366865118-.4084309741-.4468655073-.6615864335-.110691456-.2531554594-.1655247235-.527321797-.1655247235-.821474092Z"/>
        <path class="cls-1" d="m142.6925608365,290.8791074295h4.4117719638v12.5245332555c0,.5719058557.1019796283.986486355.3064513456,1.243741498.2039592568.2577676034.5432080708.3858827145,1.0172339817.3858827145h1.4092662214c.1957598897,0,.3469357207.026647943.4535274931.0799438292.1060793119.0532958863.1875605225.1347770969.2449560923.2449560924.0568831093.1106914559.0917304195.2557177615.1040294702.4350789171.0122990507.1798736159.018448576.3920322397.018448576.6375007925v.6492873827c0,.3187503963-.0143488925.5739556975-.0430466773.7661283641s-.0732818435.3366865118-.1347770968.4350789171c-.0609827929.0978799448-.1450263057.1634748817-.2511056177.1957598896-.1060793119.0327974685-.2372691856.0491962027-.3920322398.0491962027h-2.6350716039c-.7902140049,0-1.4707614748-.0978799448-2.0411299491-.2941522949-.5703684744-.1957598897-1.0387573203-.4837626593-1.4051665379-.8640083089-.366921678-.3797331891-.6354509508-.8476095747-.8066127391-1.4031166961s-.2567426825-1.193007914-.2567426825-1.9114774568v-13.1743330987Z"/>
        <path class="cls-1" d="m153.8693231237,307.1784243167c-.4007440673.4161178807-.8599086253.7451174858-1.3790310552.9859738946-.5186099695.2413688693-1.1253631354.3617970736-1.8197470373.3617970736h-.8455597329c-.1547630541,0-.2839030861-.0163987342-.3858827145-.0491962027-.1019796284-.0322850079-.1860231412-.0978799448-.2511056176-.1957598896-.0655949369-.0983924053-.1122288373-.2429062505-.1409266221-.4350789171-.0286977849-.1921726667-.0430466773-.4473779678-.0430466773-.7661283641v-.6492873828c0-.2454685527.0061495253-.4576271765.018448576-.6375007924.0122990507-.1793611555.0471463609-.3243874612.1040294702-.4350789171.0573955698-.1101789955.1388767804-.1916602062.2449560923-.2449560924.1065917724-.0532958862.2577676034-.0799438292.4535274931-.0799438292h.6861845348c.2454685527,0,.4514776513-.0363846915.6190522166-.1101789956.1675745652-.0732818435.3105510291-.1716742488.4289293917-.2936398345.1183783626-.1229905066.2142084657-.2613548266.2880027696-.4171428015.0732818435-.1547630542.1388767804-.3187503963.1962723501-.4899121847.3920322398-1.2094066482.8716952155-2.211779277,1.4395013877-3.0086552677.5678061721-.7968759906,1.1622602874-1.4297646391,1.7833623457-1.8996908665.6205895979-.4694137668,1.2396418145-.7984133719,1.8566441892-.986486355.6164899143-.1875605226,1.1658475105-.2818532443,1.6480727884-.2818532443.6620988939,0,1.2662897576.0819936711,1.8135975119.2454685527.5473077544.1634748816,1.0377323994.3879325562,1.4707614748.6738854841.4330290753.2859529278.8107124227.6170023747,1.1335625025.9926358803.3228500798.3756335055.5883045899.7738152706.7968759907,1.1950577558.2080589403.4207300246.3653842967.8558089417.4714636086,1.3047242908.106079312.4494278095.1593751981.8824568849.1593751981,1.299087226,0,.6293014254-.1142786791,1.2642399158-.3433484976,1.9058403918-.2285573581.6416004761-.578055381,1.2211932384-1.0474691479,1.7403156684-.4699262273.5186099695-1.0664301843.941389836-1.789511871,1.2678271389-.7225692263.3269497634-1.5788906285.490424645-2.5669143649.490424645-.5560195819,0-1.0746295514-.0430466773-1.5568548294-.1286275714-.4817128175-.0860933547-.9290907853-.1962723502-1.3416214428-.331049447-.4125306575-.1347770968-.7886766236-.2900526114-1.1274129772-.4653140834-.3392488141-.1757739323-.6354509508-.3576973899-.8886064102-.5452579125l-.0855808942-.0122990507Zm6.764477863-4.019739724c0-.2613548265-.0450965191-.5145102859-.1347770968-.7599788386-.0901930382-.2449560924-.220357991-.4617268602-.3920322398-.6492873828-.1716742488-.188072983-.3843453331-.3392488141-.6375007926-.4535274931s-.5391083872-.1716742488-.8578587835-.1716742488c-.6047033241,0-1.1602104456.2531554594-1.6665213644.7599788387-.5068233793.5068233792-.9311406271,1.3318846943-1.2744891246,2.4751839453.1798736159.1065917724.3838328727.206521559.6129026912.3003018203.2285573581.0942927217.4632642415.1778237742.7046331107.2516180781.2408564088.0732818435.4817128175.1306774133.7230816867.1711617884.2408564088.0409968355.4632642415.0614952533.6677359587.0614952533.3187503962,0,.6144400725-.0348473102.8886064102-.1045419307.2736538772-.0691821599.5124604442-.1814109971.7169321614-.3366865117.2039592568-.1552755147.3633344549-.3592347714.477613134-.6129026913.1142786791-.2531554594.1716742488-.5637064886.1716742488-.931140627Z"/>
        <path class="cls-1" d="m166.4789248129,308.5261952849v-3.4929303874h5.061571807c.3756335056,0,.6861845347-.040484375.9311406271-.1219655858.2449560923-.0819936711.4391786007-.188072983.5821550646-.3187503963s.2408564088-.2757037189.2941522949-.4350789171.0794313689-.3208002381.0794313689-.4842751197c0-.2695541936-.1286275715-.596503957-.3858827145-.9803368297s-.5944541152-.7963635302-1.0110844563-1.2375919727c-.4166303411-.4412284424-.8880939498-.890656252-1.4154157468-1.3482834286-.5268093366-.4576271766-1.0597681986-.8901437915-1.5988765859-1.299087226l3.0634885353-3.0019932819c.8332606822.7025832689,1.5809404702,1.3969671708,2.2425269037,2.0831517055.6620988939.6861845348,1.2232430802,1.3564827957,1.6849699404,2.0098698621.4617268602.6533870663.816861948,1.2908878588,1.0664301843,1.9114774568.2490557759.6211020583.3735836638,1.2176060153.3735836638,1.789511871,0,.1388767804-.0040996835.2736538772-.0122990506.4043312904-.0081993671.1306774133-.0204984178.2654545101-.0363846916.4043312905.4325166149.2372691856.8962933169.4002316069,1.3908176455.4904246451.4940118682.0896805777.9659879373.1342646364,1.4154157468.1342646364h.0609827929c.1962723501,0,.3474481811.026647943.4535274931.0799438292.1060793119.0532958863.188072983.1347770969.2449560923.2449560924.0573955698.1106914559.0922428799.2557177615.1045419306.4350789171.0122990507.1798736159.018448576.3920322397.018448576.6375007924v.6492873828c0,.3187503963-.0143488924.5739556975-.0430466773.7661283641-.0286977849.1921726665-.0737943039.3366865118-.1347770968.4350789171-.0614952533.0978799448-.1450263057.1634748817-.2511056176.1957598896-.1065917724.0327974685-.2372691857.0491962027-.3925447002.0491962027h-.0978799449c-.6615864334,0-1.3318846944-.1450263058-2.009869862-.4350789171-.6779851676-.2900526114-1.2908878588-.6964337436-1.8381956132-1.2191433967-.4658265438.5063109187-1.0884659834.9085923675-1.8689432399,1.206844346-.779964796.2982519785-1.7705508346.4473779678-2.9717581157.4473779678h-5.0000765537Z"/>
        <path class="cls-1" d="m188.0970686501,305.0332648975c-.0901930382-.1547630541-.1573253563-.3387363536-.2024218755-.5514074379-.0445840586-.2121586239-.0876307359-.4202175643-.1286275714-.6246892815-.0732818435-.4248297082-.1511758311-.8332606822-.2326570417-1.225292922-.0819936711-.3925447003-.2147209261-.7374305791-.3981817651-1.0356825576-.1839732995-.2982519785-.4391786007-.5370585455-.7661283641-.7169321614-.3269497634-.1798736159-.7681782058-.2695541937-1.3236853273-.2695541937-.0896805777,0-.2347068834.0061495254-.4345664567.018448576-.2003720336.0122990506-.4396910611.0348473101-.7169321614.0671323181-.2782660212.0327974684-.5883045899.0794313689-.9316530875.1409266222-.3428360371.0614952532-.7025832689.1450263057-1.0782167745.2511056176v-3.2715474756c.7266689098-.1962723501,1.4354017041-.3699964408,2.1261983829-.5211722717.6902842183-.151175831,1.4113160632-.2265075164,2.1630955348-.2265075164.7922638467,0,1.5050963246.1060793119,2.1379849731.3182379359.633401109.2126710843,1.1807088634.5170725881,1.6424357236.9132045115.4612143997.3966443837.8332606822.8742575177,1.1151139265,1.4338643228.2818532443.559606805.4678763855,1.1868583886.5575569632,1.8812422905.0491962027.3920322398.1101789955.7922638466.1839732995,1.2006948207.0732818435.4089434344.1793611554.7763775729.3187503963,1.1028148759.1383643199.3269497633.3202877776.5944541152.5452579126.803025516.2244576746.2080589403.5206598113.3120884105.8886064102.3120884105.1957598896,0,.3469357207.026647943.4530150326.0799438292.1060793119.0532958863.188072983.1347770969.2454685527.2449560924.0568831093.1106914559.0917304195.2557177615.1040294702.4350789171.0122990507.1798736159.018448576.3920322397.018448576.6375007924v.6492873828c0,.3187503963-.0143488924.5739556975-.0430466773.7661283641-.0286977849.1921726665-.0732818435.3366865118-.1347770968.4350789171-.0614952533.0978799448-.1450263057.1634748817-.2511056177.1957598896-.1065917724.0327974685-.2372691857.0491962027-.3920322397.0491962027h-13.3091101955c-.1547630541,0-.283903086-.0163987342-.3858827144-.0491962027-.1019796284-.0322850079-.1860231412-.0978799448-.2511056177-.1957598896-.0655949368-.0983924053-.1122288372-.2429062505-.1409266221-.4350789171-.0286977848-.1921726667-.0430466773-.4473779678-.0430466773-.7661283641v-.6492873827c0-.2454685528.0061495253-.4576271766.018448576-.6375007925.0122990507-.1793611555.0471463608-.3243874612.1040294702-.4350789171.0573955698-.1101789955.1409266222-.1916602062.2511056176-.2449560924.1106914559-.0532958862.2598174452-.0799438292.4473779677-.0799438292h7.843207098Zm-4.2523967657-12.7694893478c0-.2941522949.055345728-.5678061722.1655247235-.8209616315s.2593049847-.4755632922.4473779678-.6677359588c.1875605225-.1921726666.408430974-.3433484977.6615864334-.453527493.2531554594-.1101789955.5227096531-.1655247235.8086625809-.1655247235s.5534572797.055345728.803025516.1655247235c.2490557759.1101789954.4673639251.2613548264.6554369081.453527493s.3371989723.4145804993.4473779678.6677359588.1655247234.5268093366.1655247235.8209616315c0,.294152295-.0553457279.5683186326-.1655247235.821474092s-.2593049848.4740259109-.4473779678.6615864335c-.188072983.188072983-.4063811322.3371989722-.6554369081.4473779677-.2495682363.1101789955-.5170725882.1655247235-.803025516.1655247235s-.5555071215-.055345728-.8086625809-.1655247235c-.2531554594-.1101789955-.4740259108-.2593049847-.6615864334-.4473779677-.188072983-.1875605226-.3371989723-.4084309741-.4473779678-.6615864335-.1101789955-.2531554594-.1655247235-.527321797-.1655247235-.821474092Z"/>
        <path class="cls-1" d="m200.6333884958,290.8791074295v4.3933233879c0,1.2703894412,0,2.3757666192,0,3.3151066134,0,.9398524546,0,1.7321163013,0,2.3773040004,0,.6457001597,0,1.1807088634,0,1.6055385717,0,.4248297081,0,.7558791551,0,.9926358803,0,.2372691856-.0020498418.4125306575-.0061495254.5268093366-.0040996836.1147911395-.0061495253.1860231413-.0061495253.2147209261v.0548332675c.4412284424.2536679199.9173041951.4289293917,1.4277147974.527321797.5104106024.0978799449.9987854057.1465636871,1.4646119494.1465636871h.0614952533c.1957598897,0,.3469357207.026647943.4530150327.0799438292.1060793119.0532958863.188072983.1347770969.2454685527.2449560924.0568831093.1106914559.0917304195.2557177615.1040294701.4350789171.0122990507.1798736159.018448576.3920322397.018448576.6375007925v.6492873827c0,.3187503963-.0143488924.5739556975-.0430466773.7661283641-.0286977849.1921726665-.0732818435.3366865118-.1347770968.4350789171-.0614952533.0978799448-.1450263057.1634748817-.2511056176.1957598896-.1065917724.0327974685-.2372691857.0491962027-.3920322398.0491962027h-.0983924053c-.6211020583,0-1.2539907069-.1306774133-1.8991784061-.3920322398-.6457001597-.2613548266-1.2381044331-.6293014254-1.7772128204-1.1033273364-.3269497634.44994027-.766128364.8112248832-1.317535802,1.0848787603-.5514074379.2736538772-1.2519408651.4104808158-2.1016002815.4104808158h-2.8431305443c-.1547630542,0-.2859529278-.0163987342-.3920322398-.0491962027-.1060793119-.0322850079-.1901228248-.0978799448-.2511056176-.1957598896-.0614952533-.0983924053-.1060793119-.2429062505-.1347770968-.4350789171-.0286977849-.1921726667-.0430466773-.4473779678-.0430466773-.7661283641v-.6492873828c0-.2454685527.0061495253-.4576271765.018448576-.6375007924.0122990507-.1793611555.0471463609-.3243874612.1040294702-.4350789171.0573955697-.1101789955.1388767803-.1916602062.2449560923-.2449560924.1065917724-.0532958862.2577676034-.0799438292.4535274931-.0799438292h1.7157175671c.3433484976,0,.5862547481-.0809687503.7292312121-.2449560924.1429764639-.1629624212.2142084656-.4735134504.2142084656-.9311406271v-12.9780607486h4.4363700652Z"/>
        <path class="cls-1" d="m203.550313344,308.5261952849c-.1547630542,0-.2859529279-.0163987342-.3920322398-.0491962027-.1060793119-.0322850079-.1901228248-.0978799448-.2511056176-.1957598896-.0614952533-.0983924053-.1060793119-.2429062505-.1347770968-.4350789171s-.0430466773-.4473779678-.0430466773-.7661283641v-.6492873827c0-.2454685528.0061495253-.4576271766.018448576-.6375007925.0122990507-.1793611555.0471463609-.3243874612.1040294701-.4350789171.0573955698-.1101789955.1388767804-.1916602062.2449560923-.2449560924.1065917724-.0532958862.2577676034-.0799438292.4535274931-.0799438292h2.4756964058v-14.154157468h4.4363700651v17.6470878554h-6.9120664709Z"/>
        <path class="cls-1" d="m227.6764385949,308.5261952849c-1.0618180403,0-1.9903963651-.0614952533-2.7867598954-.1839732994-.7963635302-.1224780462-1.477935921-.2956896763-2.0457420931-.5206598113-.5672937117-.2244576746-1.037219939-.4945243287-1.408753761-.8086625809-.371533822-.3146507128-.6631238148-.6620988939-.8757948991-1.041832083-.2121586239-.3797331892-.3612846131-.7861143214-.4468655073-1.2196558571-.0860933546-.4325166149-.1286275715-.8819444244-.1286275715-1.3477709682,0-.1634748817.0122990507-.3674341385.036897152-.6129026912.0245981013-.2449560923.0548332675-.5124604442.0917304195-.8025130556s.0799438293-.5883045899.1286275715-.8947559355c.0491962026-.3064513456.0978799448-.5980413384.1470761475-.8763073595.6779851676.0573955698,1.3523831121.1168409812,2.0221689127.1778237741.6697858005.0614952533,1.3436712846.1209406648,2.0221689127.1778237741l-.036897152.1716742487c-.0737943039.3920322398-.1388767803.771765429-.1962723501,1.1397120279-.0568831093.3674341384-.0855808942.6902842183-.0855808942.968037779,0,.3597472318.0568831093.6759353259.1716742488.9495892031.114278679.2741663376.3325868283.5027236957.6554369081.6861845347.3228500798.1839732994.7722778894.3208002381,1.3482834286.4109932762.5760055392.0896805777,1.3211230251.1342646364,2.2363773783.1342646364h5.8820209781c-.0568831093-.1547630541-.1101789955-.3223376194-.1588627377-.5022112353-.0491962027-.1793611554-.09224288-.3633344549-.1286275715-.5514074379-.036897152-.1875605226-.0655949368-.371533822-.0860933546-.5514074379-.0204984178-.1793611554-.0307476267-.3433484976-.0307476267-.4904246451,0-.9147418928.1655247235-1.7254543155.4960617099-2.4326497284.3305369865-.7061704921.7835520191-1.2985747655,1.3590450979-1.7767003599.5749806183-.4781255944,1.2545031674-.8414600493,2.0380551865-1.0905158252.7835520191-.2495682362,1.624499608-.3740961243,2.5223303062-.3740961243.8896313311,0,1.6972689911.1286275715,2.4239379009.3858827145.7261564494.2577676034,1.3462335869.6272515837,1.8607438728,1.1094768616.5139978255.4822252779.9101297488,1.0679675657,1.1873708491,1.758251784.2777535608.6907966787.4166303411,1.4728113166.4166303411,2.3470688343v5.6616629871h-18.6310119081Zm10.2850811144-16.2624197352c0-.2941522949.055345728-.5678061722.1655247235-.8209616315.1106914559-.2531554594.2593049847-.4755632922.4473779677-.6677359588s.408430974-.3433484977.6615864334-.453527493c.2531554594-.1101789955.5232221135-.1655247235.8091750414-.1655247235s.5534572797.055345728.8025130555.1655247235c.2490557759.1101789954.4678763855.2613548264.6559493685.453527493.1875605226.1921726666.3366865118.4145804993.4468655073.6677359588.1106914559.2531554593.1655247235.5268093366.1655247235.8209616315s-.0548332675.5683186326-.1655247235.821474092c-.1101789955.2531554594-.2593049847.4740259109-.4468655073.6615864335-.188072983.188072983-.4068935927.3371989722-.6559493685.4473779677-.2490557759.1101789955-.5165601277.1655247235-.8025130555.1655247235s-.5560195819-.055345728-.8091750414-.1655247235c-.2531554594-.1101789955-.4735134504-.2593049847-.6615864334-.4473779677-.188072983-.1875605226-.3366865118-.4084309741-.4473779677-.6615864335-.1101789955-.2531554594-.1655247235-.527321797-.1655247235-.821474092Zm3.9341588299,12.7694893478v-1.6665213645c0-.4735134504-.0532958862-.8701578342-.1593751982-1.18839577-.1060793119-.3187503962-.2449560923-.5739556975-.4166303411-.766128364-.1716742488-.1916602062-.3638469153-.3289996052-.5760055393-.4104808158-.2126710843-.0814812106-.4207300246-.1224780461-.6252017419-.1224780461-.2285573581,0-.4535274931.0389469937-.673885484.1163285208-.220357991.0778939874-.4166303411.2003720336-.5883045899.3674341385-.1716742488.1675745652-.3085011874.3781958077-.4104808158.6313512672s-.1532256728.5514074379-.1532256728.8947559355c0,.294152295.0532958862.5698560139.1593751981.827111157.1060793119.257255143.257255143.4837626592.4535274931.6800350094.1957598897.1962723501.4330290753.3515478647.710782636.4658265437.2777535607.1142786791.5883045899.1711617884.931140627.1711617884h1.3482834286Z"/>
        <path class="cls-1" d="m249.7511846879,290.8791074295h4.4117719638v12.5245332555c0,.5719058557.1019796284.986486355.3064513456,1.243741498.2039592568.2577676034.5432080708.3858827145,1.0172339817.3858827145h1.4092662214c.1957598897,0,.3469357207.026647943.4535274931.0799438292.1060793119.0532958863.1875605226.1347770969.2449560923.2449560924.0568831093.1106914559.0917304195.2557177615.1040294702.4350789171.0122990506.1798736159.018448576.3920322397.018448576.6375007925v.6492873827c0,.3187503963-.0143488924.5739556975-.0430466773.7661283641-.0286977849.1921726665-.0732818435.3366865118-.1347770968.4350789171-.0609827929.0978799448-.1450263057.1634748817-.2511056176.1957598896-.106079312.0327974685-.2372691857.0491962027-.3920322398.0491962027h-2.6350716039c-.7902140049,0-1.4707614748-.0978799448-2.0411299491-.2941522949-.5703684743-.1957598897-1.0387573203-.4837626593-1.4051665379-.8640083089-.366921678-.3797331891-.6354509508-.8476095747-.8066127391-1.4031166961-.1711617884-.5555071214-.2567426825-1.193007914-.2567426825-1.9114774568v-13.1743330987Z"/>
        <path class="cls-1" d="m270.6452219174,308.5261952849c-.9393399942,0-1.840245455-.0348473102-2.7022039221-.1040294702-.8619584671-.06918216-1.6193750036-.1532256727-2.2732745303-.2516180781-.482225278.0573955698-1.0069847728.1065917724-1.5747909449.1475886079-.5678061721.0409968355-1.151498618.077381527-1.7521022586.1101789955-.6006036406.0322850079-1.2012072811.0568831092-1.8018109217.0732818434-.6000911802.0163987342-1.1745593381.0245981013-1.721354632.0245981013h-1.9119899172c-.1552755146,0-.2859529279-.0163987342-.3920322398-.0491962027-.1060793119-.0322850079-.1901228248-.0978799448-.2511056176-.1957598896-.0614952533-.0983924053-.1060793119-.2429062505-.1352895573-.4350789171-.0281853244-.1921726667-.0425342169-.4473779678-.0425342169-.7661283641v-.6492873828c0-.2454685527.0061495254-.4576271765.018448576-.6375007924.0122990507-.1793611555.0471463609-.3243874612.1040294702-.4350789171.0573955698-.1101789955.1388767804-.1916602062.2449560923-.2449560924.1065917724-.0532958862.257255143-.0799438292.4535274931-.0799438292h2.304022157c-.1962723501-.4161178807-.3392488141-.8373603658-.4289293918-1.2616776136-.0901930382-.4248297081-.1347770968-.7681782058-.1347770968-1.0295330323,0-.7353807373.151175831-1.4338643228.4535274931-2.0954507562.3018392016-.6620988939.734868277-1.2442539584,1.2985747655-1.7464651938.5637064886-.5027236957,1.2457913398-.9009054608,2.046767014-1.1950577558.8004632138-.294152295,1.6993188328-.4412284424,2.6960543968-.4412284424,1.004934931,0,1.8689432398.1327272551,2.5920249266.3981817652.7230816867.2659669705,1.3175358019.6272515837,1.7828498852,1.0848787603.4658265438.4576271766.8091750413.9905860386,1.0295330323,1.5993890463s.3310494469,1.2560405486.3310494469,1.9422250833c0,.2126710844-.0163987342.4391786007-.0491962027.6800350095-.0327974684.2413688692-.0732818435.4822252779-.1224780462.7230816867s-.1060793119.4760757527-.1716742488.7046331107c-.0655949368.2290698185-.1306774132.4412284425-.1962723501.6369883322h2.2307403135c.1957598897,0,.3469357207.026647943.4535274931.0799438292.106079312.0532958863.1875605226.1347770969.2449560923.2449560924.0568831093.1106914559.0917304195.2557177615.1040294702.4350789171.0122990507.1798736159.018448576.3920322397.018448576.6375007925v.6492873827c0,.3187503963-.0143488924.5739556975-.0430466773.7661283641-.0286977848.1921726665-.0732818435.3366865118-.1347770968.4350789171-.0609827929.0978799448-.1450263057.1634748817-.2511056177.1957598896-.1060793119.0327974685-.2372691856.0491962027-.3920322398.0491962027h-1.9242889678Zm-7.8795917895-16.2624197352c0-.2941522949.0548332675-.5678061722.1655247235-.8209616315.1101789955-.2531554594.2593049847-.4755632922.4468655073-.6677359588.188072983-.1921726666.408430974-.3433484977.6620988939-.453527493.2531554595-.1101789955.522709653-.1655247235.8086625809-.1655247235s.5534572797.055345728.8025130556.1655247235c.2495682363.1101789954.4678763855.2613548264.6559493685.453527493.1875605226.1921726666.3366865118.4145804993.4473779678.6677359588.1101789955.2531554593.1655247235.5268093366.1655247235.8209616315,0,.294152295-.055345728.5683186326-.1655247235.821474092-.1106914559.2531554594-.2598174452.4740259109-.4473779678.6615864335-.188072983.188072983-.4063811322.3371989722-.6559493685.4473779677-.2490557758.1101789955-.5165601277.1655247235-.8025130556.1655247235s-.5555071214-.055345728-.8086625809-.1655247235c-.2536679199-.1101789955-.4740259108-.2593049847-.6620988939-.4473779677-.1875605225-.1875605226-.3366865118-.4084309741-.4468655073-.6615864335-.110691456-.2531554594-.1655247235-.527321797-.1655247235-.821474092Zm.1716742488,10.2328101492c0,.3515478646.06918216.6825973116.2080589403.9931483408s.3269497634.5801052227.5637064886.8086625809c.2367567252.2285573581.5150227464.4084309741.8332606822.5391083873.3187503963.1306774132.6574867499.1957598897,1.0172339817.1957598897h.2695541936c.0737943039-.1383643199.1450263057-.3018392016.2147209261-.4899121847.0691821599-.1875605225.1306774132-.3879325562.183460839-.6006036406.0532958862-.2121586239.0983924053-.4263670896.1347770968-.6431378574.036897152-.2167707679.055345728-.4227798665.055345728-.6190522165,0-.6369883322-.1614250399-1.1233132936-.4842751197-1.4579499637-.3228500798-.3351491304-.7287187517-.5027236957-1.2191433967-.5027236957-.220357991,0-.4371287589.0348473102-.6492873828.1040294701-.2126710843.0696946204-.4027939091.1778237741-.5698560139.3248999216-.1675745652.1470761475-.302351662.3330992887-.4048437509.5575569633-.1019796284.2249701349-.1527132124.4883748033-.1527132123.7902140049Z"/>
        <path class="cls-1" d="m288.4393859202,307.0800319114c0,.3187503963-.0143488924.5739556975-.0425342169.7661283641-.0286977849.1921726665-.073794304.3366865118-.1347770968.4350789171-.0614952533.0978799448-.1455387661.1634748817-.2516180781.1957598896-.1060793119.0327974685-.2367567252.0491962027-.3920322398.0491962027h-2.0344679633c-.5877921295,0-1.1540609203-.0389469937-1.6972689911-.1163285208s-1.0495189897-.1757739324-1.5194452169-.294152295c-.4699262273-.1183783626-.8988556191-.2490557759-1.2867881753-.3920322398-.3879325563-.1429764639-.721031845-.2757037189-.9987854057-.3986942255-.7271813703.3269497633-1.5604420525.6088030076-2.4997820466.8455597328-.9398524546.2372691856-1.9365880185.3556475482-2.9902066917.3556475482h-2.046767014c-.1547630541,0-.2859529278-.0163987342-.3920322398-.0491962027-.106079312-.0322850079-.1901228248-.0978799448-.2511056176-.1957598896-.0614952533-.0983924053-.1060793119-.2429062505-.1347770968-.4350789171-.0286977849-.1921726667-.0430466774-.4473779678-.0430466774-.7661283641v-.6492873827c0-.2454685528.0061495254-.4576271766.018448576-.6375007925.0122990507-.1793611555.0471463609-.3243874612.1040294702-.4350789171.0573955697-.1101789955.1388767803-.1916602062.2449560923-.2449560924.1065917724-.0532958862.2577676034-.0799438292.4535274931-.0799438292h2.2061422121c.3346366701,0,.6615864334-.0097367485.9803368297-.0302351663s.6205895979-.050733584.9065425258-.0917304195c-.4166303411-.4248297082-.7758651125-.8517092582-1.0782167745-1.2811511105-.3023516621-.4284169313-.5719058557-.7943136884-.8086625809-1.0966653505-.2290698185-.3023516621-.4273920104-.5575569632-.5944541152-.7656159036-.1675745652-.2085714008-.2921024532-.3576973901-.3740961242-.4473779678l-.0363846915-.0245981013c.0486837422-.2208704514.1224780462-.4740259109.220357991-.7599788387s.2126710843-.5678061721.3433484976-.8455597329c.1306774132-.2777535608.2736538772-.5288591784.4289293918-.7533168529.1547630542-.2249701351.3182379358-.3863951749.4899121846-.4842751198.2941522949-.1388767804.6477500014-.2900526115,1.060280659-.4535274931.4125306575-.1634748817.8742575177-.3146507127,1.3846681201-.453527493.5104106024-.1388767804,1.060280659-.2531554595,1.6480727884-.3428360372.5883045899-.0901930382,1.2053069647-.1347770968,1.8504946638-.1347770968.5719058557,0,1.1540609203.0568831093,1.7464651938.1716742488.5924042734.114278679,1.1294628189.2936398345,1.6116880969.5391083872.4817128175.2449560923.8763073595.5637064886,1.1822462447.9557387284.3064513456.3920322398.4596770184.8660581506.4596770184,1.4215652721,0,.1716742488-.0327974684.408430974-.0978799448.710782636-.0655949368.3023516621-.1839732994.6579992103-.3556475483,1.0659177239-.1711617883.4089434345-.4063811322.8599086253-.7046331107,1.3544329539-.2982519785.4945243287-.6800350094,1.0110844563-1.1458615531,1.5501928437.3925447002.0655949368.7907264654.1147911394,1.1950577558.1470761475.4043312905.0327974684.798413372.0486837422,1.1827587051.0486837422h1.3723690695c.1962723501,0,.3474481811.026647943.4535274931.0799438292.1060793119.0532958863.1875605226.1347770969.2449560923.2449560924.0573955697.1106914559.09224288.2557177615.1040294702.4350789171.0122990507.1798736159.018448576.3920322397.018448576.6375007925v.6492873827Zm-8.1860431351-3.1495818899c.408430974-.3187503962.7476797881-.6144400725,1.0172339817-.8886064101.2695541937-.2731414168.4858125011-.5165601278.6492873828-.7287187517.1634748817-.2126710843.2798034026-.3986942255.3494980229-.5575569632.06918216-.1593751981.1040294702-.2880027696.1040294702-.3863951749,0-.146563687-.0655949369-.2777535607-.1962723501-.3920322397s-.2962021368-.2085714007-.49606171-.2818532443c-.2003720337-.0732818435-.4248297082-.1286275714-.6738854841-.1655247235-.2495682363-.0368971519-.4924744868-.0548332675-.729231212-.0548332675-.1306774133,0-.2982519785.0102492089-.5027236957.0302351662-.2039592568.0204984178-.4207300247.0491962027-.6492873828.0860933546-.2290698186.0368971521-.4576271766.0819936711-.6861845348.1347770968-.2290698185.0532958862-.4289293917.1163285208-.6006036405.1901228248.5391083873.816861948,1.004934931,1.464099489,1.3969671708,1.9422250834.3920322398.4776131339.7312810538.835310524,1.0172339817,1.0720672491Z"/>
        <path class="cls-1" d="m287.5938261874,308.5261952849c-.1547630542,0-.2859529279-.0163987342-.3920322398-.0491962027-.106079312-.0322850079-.1901228248-.0978799448-.2511056176-.1957598896-.0614952533-.0983924053-.1060793119-.2429062506-.1347770968-.4350789171-.0286977849-.1921726667-.0430466773-.4473779678-.0430466773-.7661283641v-.6492873827c0-.2454685528.0061495253-.4576271766.018448576-.6375007925.0122990507-.1793611555.0471463609-.3243874612.1040294701-.4350789171.0573955698-.1101789955.1388767804-.1916602062.2449560923-.2449560924.1065917724-.0532958862.2577676034-.0799438292.4535274931-.0799438292h2.4756964058v-14.154157468h4.4363700651v17.6470878554s-6.9120664709,0-6.9120664709,0Z"/>
        <path class="cls-1" d="m298.1822838847,290.8791074295h4.4117719639v17.6470878554s-4.4117719639,0-4.4117719639,0v-17.6470878554Z"/>
      </g>
    </g>
  </g>
</svg>