<?xml version="1.0" encoding="UTF-8"?>
<svg id="Layer_2" data-name="Layer 2" xmlns="http://www.w3.org/2000/svg" viewBox="0 0 363.8443935927 229.1616622628">
  <defs>
    <style>
      .cls-1 {
        fill: #000;
      }
    </style>
  </defs>
  <g id="Layer_1-2" data-name="Layer 1">
    <g>
      <g>
        <path class="cls-1" d="m241.685106825,53.772583031c-16.288624697,0-30.7517112283,7.4915895149-39.8662739844,19.0785240415,6.9151812682-3.9365812248,15.1797320334-6.2333803686,24.0662098745-6.2333803686,24.2800624871,0,43.9628459187,17.0907867056,43.9628459187,38.1734888462,0,21.0825794483-19.6827834317,38.1734888462-43.9628459187,38.1734888462-4.1919038219,0-8.2414846199-.5202151907-12.0817524191-1.4716936821,7.962359724,5.1552834628,17.5557903784,8.1656608021,27.881816529,8.1656608021,27.5772943348,0,49.9331740776-21.4648885365,49.9331740776-47.9431055888s-22.3558797428-47.9429828965-49.9331740776-47.9429828965Z"/>
        <path class="cls-1" d="m200.616963981,82.4177908138s-9.4076892929,18.0917101786-4.3420104429,49.4506744883c5.06567885,31.3589643096,5.7893472572,73.5729547265-10.3725805024,87.5638772646,0,0,30.1528502977-27.2581766692,25.0871714477-62.7179286193,0,0-10.3725805024-41.731544812-10.3725805024-74.2966231336Z"/>
        <path class="cls-1" d="m171.9154159114,136.6595490545c-3.985412745-4.4326260399-5.1222792443-17.0213428854-4.9449889258-29.0338968687.0349672947-2.3722548849-.0790138167-12.0524289685-1.4180771637-15.367819271-.0053984595-.0132507643-.0112876881-.0231888375-.0166861476-.0363169095-3.8732720176-23.3728759022-24.1702529126-41.1990800259-48.6412245593-41.1990800259-27.2376821537,0-49.3181177685,22.0804356148-49.3181177685,49.3181177685s22.0804356148,49.3181177685,49.3181177685,49.3181177685c18.3661727686,0,34.3755498774-10.0469012546,42.8637686361-24.9372022421.9409269569,7.0906312028,2.7859731922,13.5420357209,6.1776780816,17.312982392.7940643194.8833842861,1.8904423722,1.3329287339,2.9907465774,1.3329287339.9579811813,0,1.918906977-.3396121811,2.6874513058-1.0306150004,1.6509470768-1.4860486768,1.7854177959-4.0262692683.3013321953-5.6772163451Z"/>
        <g>
          <path class="cls-1" d="m240.5749872388,14.1724285628c-22.9228406853,0-44.9740755417,9.4453410942-60.6727958432,25.9538303246-15.9382155968-16.5084892304-38.3212103296-25.9538303246-61.5875893484-25.9538303246-.4031667728,0-.800444317.0239249911-1.2022614749.0294461429v-.0068707667c-37.442733734,0-69.1386846103,24.4654504949-79.3136765864,57.9111157189-2.2538568521,7.3064468916-3.4831106246,15.033850934-3.4831106246,23.0363310276,0,.0955772721.0294461429.1818299322.0543526721.2694322073.0480953667,15.5251107508,4.6077078977,30.6014132074,13.2112573826,43.6141545102.1933630048.2924983525.513344424.451507524.8392150718.451507524.1904183906,0,.3827998573-.0530030571.5535874859-.1668614762.462304443-.3062398858.5899043955-.9285350385.2836645096-1.3918210196-8.4304307034-12.7521429384-12.8866136575-27.5370512729-12.8866136575-42.7538363694,0-7.8196686234,1.1856980195-15.3703958085,3.3606637472-22.5082635322,10.0808870112-32.6158974565,41.4853210731-56.4741439469,78.5829214742-56.4741439469,23.0749790902,0,45.2587215895,9.5111041467,60.8612511576,26.0951718104.1904183906.2012153096.4554336764.3160552668.7322274193.3160552668.2856275858-.0706707429.5467167193-.1168030334.7371351098-.3219444954,15.3620527347-16.5801415114,37.2052015148-26.0892825819,59.9297715048-26.0892825819,44.5206049416,0,80.7413237465,35.420765257,80.7413237465,78.9598321029,0,15.2148220204-4.4561829542,29.9997303548-12.8856321194,42.7538363694-.3062398858.4632859811-.1786399334,1.0855811338.2846460478,1.3918210196.1707876286.1138584191.3631690954.1668614763.5535874859.1668614763.3258706478,0,.6458520669-.1590091715.8382335337-.451507524,8.6473506225-13.0839028148,13.219355072-28.2506294684,13.219355072-43.8610113413,0-44.6472233559-37.1217707767-80.9700221228-82.7515137663-80.9700221228Z"/>
          <path class="cls-1" d="m240.5749872388,25.5690673911c-24.5580831526,0-47.6242283999,12.5470014764-60.6011435623,32.8510985226-13.2026689243-20.3050785843-36.673207867-32.8510985226-61.6592416294-32.8510985226-.402798696,0-.7999535479.022943453-1.2012799368.0292007583v-.0066253821c-32.3397171748,0-59.7070850494,21.0923948293-68.4340629499,49.9032371657-1.9191523615,6.2350980602-2.9670669708,12.8246540652-2.9670669708,19.6475707525,0,.0923872733.0292007584.1755726269.0525122881.2604756721.0436784452,12.4721591966,3.5011463871,24.6904681033,10.0191728034,35.346781823.1904183906.3101660382.5202151907.4809536668.8588458337.4809536668.1786399334,0,.3602244811-.0471138286.523159805-.1472307143.4740829002-.2905352763.6232766907-.9089042766.3337229525-1.3820056387-6.3672376263-10.4101930422-9.7329317563-22.3525670518-9.7329317563-34.5363994328,0-6.6343386806,1.0031319337-13.0416966766,2.8408166333-19.103553263,8.6263702457-27.9894176427,35.705533997-48.4822153878,67.7071112978-48.4822153878,24.8476368909,0,48.1493512811,12.7442906337,60.8121742528,33.2584368323.1825660858.2964245049.5064736573.4770275145.8549196813.4770275145.3268521858-.0520215191.677261286-.184529162.8598273718-.4838982811,12.4390322859-20.5102200463,35.3265375998-33.2515660656,59.7334638857-33.2515660656,38.2367980534,0,69.3456664562,30.3089148549,69.3456664562,67.5631932746,0,12.182850843-3.3647125918,24.1242433144-9.7329317563,34.5363994328-.2885722001.4731013621-.1393784096,1.0914703623.3337229525,1.3820056387.1629353239.1001168857.3435383335.1472307143.5241413431.1472307143.3376491049,0,.667445905-.1707876286.8578642956-.4809536669,6.5606006312-10.726248309,10.027393185-23.0317914139,10.027393185-35.584682119,0-38.3624349296-32.0099203747-69.5733832944-71.3558564761-69.5733832944Z"/>
        </g>
        <path class="cls-1" d="m176.2871865893,122.931757249c-.6546859098,0-1.3162425862-.2002337715-1.8865162198-.6144428479-.3572798668-.2591260573-.7076889669-.533956724-1.0590796052-.810750467-.7685443289-.6046274669-1.4948825196-1.1758826386-2.0946022961-1.3486333434-1.7059132102-.4946952002-2.6884328439-2.2791314581-2.1937376437-3.9850446683.4937136621-1.7078762864,2.2752053057-2.6913774582,3.9840631302-2.1937376437,1.8021039436.5221782669,3.1762572775,1.6028517102,4.2814691731,2.4715129248.2856275859.2247722239.5702736336.4505259859.8608089099.6605751384,1.4379533101,1.0443565338,1.7569531912,3.0545465536.7135781955,4.4934814018-.6291659193.8657166003-1.6107040149,1.3270395053-2.6059836439,1.3270395053Z"/>
        <path class="cls-1" d="m181.6424423907,106.1767099556c-.5543022109.3483714964-1.22097009.5308673547-1.9242120031.4836234362-.4403839277-.0292781994-.8833073284-.0755090762-1.3281063591-.1228797326-.9724369908-.1029614397-1.8913812891-.2001263264-2.4910694963-.0272660638-1.7075809246.4889075658-3.4889840632-.4991007574-3.977891629-2.206681682-.4907831958-1.7087207041.4942097179-3.4893879922,2.2058506442-3.9773693329,1.8036469194-.5168235249,3.5421478381-.333065445,4.9401284434-.1857023989.3614378052.0383194915.7225668686.077992317,1.0803254213.1012347611,1.7731934199.1190604351,3.1129431097,1.6512796129,2.9952360084,3.4247817745-.072030071,1.0677671352-.6575887031,1.9806509965-1.5002610297,2.5102592383Z"/>
        <path class="cls-1" d="m178.9375094686,86.1163688125c-.450132395.475388754-1.0503850788.8180949184-1.7432501098.94739776-.4338093296.0812691967-.8742982593.1467515274-1.3168875038.2115968625-.9674559787.1423505833-1.8816602172.2769991951-2.4194402983.5936996856-1.5321229903.8985890965-3.503396277.3851309985-4.4019853735-1.1469919919-.9006894112-1.5327599859-.3899686234-3.5025699534,1.1463171307-4.4012726467,1.6182157337-.9495402072,3.3477335316-1.2043355426,4.7383903892-1.4096137546.3595990279-.0528602833.7192359214-.1043329786,1.0715183536-.1708798132,1.747012883-.3260924383,3.4260071807.8243870219,3.7534872069,2.5713620393.1960390042,1.0520854029-.1438405769,2.0819969166-.8281497951,2.8047018589Z"/>
        <path class="cls-1" d="m170.3738938895,64.8917689298c-.1583112266.6352567953-.5125753241,1.2287614277-1.0523912016,1.681950124-.3378307053.284016956-.6892385173.5575694784-1.0427884955.8315997136-.7725275508.5995297678-1.5024672248,1.1661757867-1.8151109362,1.7063244015-.8925252425,1.5356633463-2.8615902976,2.0575257782-4.3972536439,1.1650005357-1.5378055125-.8920475299-2.0613323979-2.8584927061-1.1652378839-4.396301235.9424528144-1.6223536786,2.323342543-2.6944059318,3.4334785326-3.556765326.2871699746-.2227982856.5750550101-.4444068142.8491255907-.6755273672,1.3610782268-1.1427407196,3.3887499891-.9661845971,4.5326804658.3941785688.6878845535.8198352439.8981686122,1.8837978704.657497572,2.8495405847Z"/>
        <path class="cls-1" d="m153.6895634592,51.1749746321c-.0281606252.6540799796-.2566652387,1.3064115218-.6950206728,1.8583405837-.2742542461.3458031597-.5639030279.6840663946-.8555552889,1.0232258194-.6371259924.7418256055-1.2390951239,1.4429196101-1.4374822579,2.0346536392-.5676154067,1.6830555463-2.3926621662,2.5879101835-4.0757177125,2.0202947768-1.6850590255-.5667192167-2.5910209517-2.3888663071-2.0203369966-4.0747370829.5992105801-1.7779750973,1.7379915887-3.1043725832,2.6533883591-4.1711970265.2368501608-.2756948889.4746387314-.5503669283.6969905465-.8315982629,1.1052420002-1.391700547,3.1272929767-1.6239389773,4.5200163732-.519635387.8378524456.6658214967,1.2565285554,1.6662944703,1.21371765,2.66065294Z"/>
        <path class="cls-1" d="m133.8110782478,39.7775901914c.3353545274.5622730488.5022589494,1.233014216.438633393,1.9349636191-.039536787.4395816867-.096080846.8813069432-.1538081009,1.3248807486-.1256036029.9697723929-.2441651683,1.8862017649-.0853322453,2.4897568318.4489663448,1.7185146037-.5803028018,3.4764004398-2.2988174055,3.9253667846-1.7196977994.4508148937-3.4769182824-.5754225083-3.9248640042-2.2979744174-.4746351579-1.8152052866-.250397844-3.5489498189-.0704841253-4.9431150508.0467351735-.3604462429.0948161154-.720552278.1263925657-1.0776717553.1603660289-1.7699358826,1.7234019848-3.0736012693,3.493678075-2.9145810089,1.0657977228.0969030452,1.9647825209.7035843359,2.4746018474,1.5583742482Z"/>
        <path class="cls-1" d="m111.0971206478,39.2152610363c.3406661523.5590708481.5139173271,1.2282007532.4569445183,1.9307214113-.0353706514.4399365111-.0877275046.8821776136-.1412499884,1.3262783911-.1164108624.9709187764-.2262853466,1.8884302129-.0617417937,2.4904534978.4652264845,1.71418422-.5473432058,3.4817419167-2.2615274258,3.9469684012-1.7153498505.4670861594-3.4822135028-.5424582256-3.9464576573-2.2606892386-.4918101414-1.8106273914-.2840074568-3.5464184273-.1173093862-4.9422255033.0433184017-.3608728121.0879857344-.7214181808.1161776091-1.078820771.1435914083-1.7713756798,1.6942069967-3.0897899308,3.4659101198-2.9475474536,1.0666679035.0868019001,1.9713597338.6849394661,2.4892540042,1.5348612652Z"/>
        <path class="cls-1" d="m87.2984909591,44.0391944761c.6086817714.241081193,1.1500175294.6708560137,1.5276904616,1.2659562846.2367537179.3724820718.4613364141.7570351181.6861087945,1.1437747383.4918917723.8451492433.9568321869,1.643729264,1.4507966133,2.0251814389,1.4038740592,1.0881180303,1.6602531361,3.1089662081.5721351059,4.5128402673-1.0879283461,1.406060633-3.1064002659,1.6644365996-4.5119277009.5724965469-1.4831852139-1.1490911135-2.3628315205-2.6598441878-3.0705059115-3.8744480723-.18278681-.3141570507-.3642996126-.6288652267-.5570708705-.9311409871-.9523364405-1.5004817879-.5086892028-3.4868860691.9912414598-4.440496517.9037460685-.5731998166,1.9861897449-.6406649434,2.911532048-.2741636995Z"/>
        <path class="cls-1" d="m67.0410348681,59.9933554664c.6487923222-.0876479498,1.3312004286.0222154918,1.9517937929.3563487769.3887548187.2089614983.7728032219.4344060742,1.1580871397.6616646481.8425720021.496293442,1.6388500009.965165479,2.2562984987,1.0560718529,1.7567850415.2618578615,2.9693563868,1.8986927101,2.7074985253,3.6554777517-.260622347,1.7585990396-1.894407683,2.9717488683-3.6545050496,2.7073671191-1.8557892247-.2762157115-3.3622504599-1.1631920489-4.5738075669-1.8760700304-.3131483452-.1845095778-.6254553946-.370123264-.9414961571-.5393852787-1.5648248435-.8424449541-2.1500729784-2.7918318989-1.3087321326-4.3574980384.5076017793-.9421546687,1.4185429874-1.5307308925,2.4048629495-1.6639768012Z"/>
        <path class="cls-1" d="m56.2999914473,80.5356380409c.5720218389-.3184409777,1.2474411476-.4652727075,1.9471814489-.3807464587.4382074475.0526255616.8780504314.1223147458,1.3197058647.1932417152.965596315.1544620199,1.8780832863.3002946837,2.4861057085.1595276766,1.7311367448-.3975283544,3.457552874.6836954604,3.8550812284,2.4148322053.3993408039,1.73237453-.6788327764,3.4582159949-2.4139746013,3.8546038057-1.8285497697.4203028736-3.5548377621.1444727748-4.9430189553-.0769287043-.3588925622-.0574612843-.7174049433-.1162575953-1.073424184-.1584677064-1.7643676076-.2130662733-3.020850696-1.8142767806-2.8091194493-3.5790245695.128637266-1.0624346756.7618525275-1.9429312903,1.6314629393-2.427037964Z"/>
        <path class="cls-1" d="m54.0306591286,106.8040862989c.3352637244-.5623271962.8460320876-1.0280164472,1.4938436328-1.3057238075.4055327968-.1741791247.8210361919-.3344144564,1.2387283698-.4944875687.912901123-.3504943634,1.7755241878-.6818266536,2.2310200231-1.1084765807,1.2985026385-1.211921664,3.3343494613-1.1420267201,4.5462711253.1564759184,1.2141104468,1.2986648578,1.1465665049,3.332485117-.1559732741,4.545428056-1.3713677157,1.280468412-3.0032889408,1.9073540404-4.3153826774,2.4118098527-.3393323414.130227618-.6790051078.2591095225-1.0082046317.4010921507-1.6333995397.700282968-3.5233647694-.0551349762-4.2249934509-1.6881940909-.4213921135-.9837396367-.3149904011-2.0630517007.1946908831-2.9179239299Z"/>
        <path class="cls-1" d="m70.3074752745,124.5860475026c-.64722427-.0985615789-1.3313857693-.0002058864-1.9575181338.3234288432-.3922187273.2023849964-.7800092917.4213299918-1.1690657443.6420679211-.8508103988.4820336343-1.6548715662.9374293715-2.2737634205,1.0179246441-1.7609457526.2322353943-3.0009104372,1.8484176767-2.7686750429,3.6093634292.2309695061,1.7627386865,1.8440929663,3.0032304169,3.608393078,2.7685272744,1.8601776906-.2449239172,3.3813625127-1.1064047431,4.6047531053-1.798778268.3162111906-.1792098027.6315997985-.359537725.9504462179-.5234534168,1.578790218-.8159728788,2.196784223-2.7552274392,1.3819294638-4.33484024-.4916633351-.9505693826-1.3925633769-1.5544029444-2.3764995234-1.7042401873Z"/>
      </g>
      <g>
        <path class="cls-1" d="m109.5908484993,181.2213785961h-5.4043487545l-1.3368548862,2.5755559629h-2.8464604773l7.2633819076-13.5412995673h3.1585895917l2.4597344676,13.5412995673h-2.8680543154l-.4259875335-2.5755559629Zm-.3474644858-2.1122699818l-.9697596385-5.7341455547-2.9819127345,5.7341455547h3.951672373Z"/>
        <path class="cls-1" d="m119.626093989,181.2979385676l4.1656476779-8.2331415462h2.924983525l-5.8695978119,10.7321375376h-3.3333033728l-2.0533776961-10.7321375376h2.9073158393l1.2583318386,8.2331415462Z"/>
        <path class="cls-1" d="m128.6817644593,183.4102085493c-.7027812765-.3749475525-1.2485164576-.9049781242-1.6372055435-1.5900917149-.3867260097-.6831505146-.5810705526-1.4723071434-.5810705526-2.3615806581,0-1.2151441624.2885722001-2.3223191343.8637535242-3.3234879918.5732182478-1.0011688576,1.3623748767-1.7922885626,2.3615806581-2.3733591152,1.0011688575-.5810705526,2.1161961342-.8716058289,3.3431187537-.8716058289.9167565813,0,1.7333962769.1904183905,2.4499190867.5712551717.7165228098.3827998573,1.2720733719.9147935051,1.6666516864,1.5999070959.3926152383.6831505146.5908859336,1.4703440673.5908859336,2.3615806581,0,1.2269226195-.2905352763,2.3380237438-.8716058289,3.3333033728-.5810705526.9933165528-1.3800425625,1.7785470293-2.3929898772,2.3537283533-1.0149103909.5732182478-2.1338638199.861790448-3.3607864394.861790448-.9167565813,0-1.7275070483-.1864922382-2.432251401-.5614397907Zm4.5621890685-2.3262452867c.5300305716-.3729844763.9422765718-.8716058289,1.2406641529-1.4899748292.2964245049-.6203320764.4456182954-1.2720733719.4456182954-1.9571869627,0-.7754150955-.215938381-1.3721902577-.6497782193-1.7922885626-.4318767621-.4200983049-.9776119432-.6301474574-1.6372055435-.6301474574-.6576305241,0-1.2426272291.1884553144-1.7530270388.5634028669s-.9069412004.8735689051-1.1915872481,1.4997902101c-.2826829715.6281843812-.4259875335,1.2897410577-.4259875335,1.9866331056,0,.7616735622.2041599239,1.3486333434.6105166955,1.7628424197.4063567716.4122460002.9403134956.6203320764,1.5979440197.6203320764.6458520669,0,1.2328118481-.1884553144,1.7628424198-.5634028669Z"/>
        <path class="cls-1" d="m143.2968667032,173.0647970214l-1.8982946769,10.7321375376h-2.730638982l1.8982946769-10.7321375376h2.730638982Zm-2.1495684294-1.6470209245c-.2591260573-.2453845239-.3867260097-.5535874859-.3867260097-.9285350385,0-.5162890383.1963076191-.9599442575.5908859336-1.3270395053.3926152383-.369058324.8539381432-.5535874859,1.3839687148-.5535874859.4142090764,0,.7498951051.1236738,1.0070580861.369058324.2591260573.2453845239.3886890859.5555505621.3886890859.9304981147,0,.5162890383-.1943445429.9579811813-.5810705526,1.3270395053-.3886890859.3670952478-.8460858384.5516244098-1.3761164101.5516244098-.4259875335,0-.7675627908-.1236738001-1.026688848-.369058324Z"/>
        <path class="cls-1" d="m145.4778443517,175.5049007271c.5732182478-.8382335337,1.2779626005-1.4840856006,2.1103069056-1.9355931246.8343073813-.4534706002,1.7078762864-.6792243622,2.6265959439-.6792243622.6968920479,0,1.3348918101.1531199429,1.9159623627.4554336764.5830336288.3042768096,1.0149103909.7067074288,1.2995564386,1.21121801l.9089042765-5.0941827163h2.7326020582l-2.5382575153,14.3343823486h-2.730638982l.2905352763-1.5881286388c-.4259875335.5300305717-.9717227147.9560181052-1.6372055435,1.2779626005-.6654828288.3219444954-1.3977102482.4848798193-2.1986453342.4848798193-.7871935527,0-1.488011753-.1786399334-2.1024546009-.533956724-.6124797717-.3533537144-1.0914703623-.8578642956-1.4330456196-1.5096055911-.3415752573-.6517412955-.5143259621-1.4114517815-.5143259621-2.2771683819,0-.400467543.0392615238-.8186027718.1177845715-1.2583318386.1923814667-1.0855811338.5771444002-2.0474884675,1.1523257243-2.8876850774Zm7.3517203363,2.1907930295c0-.7636366384-.2237906858-1.3564856482-.6694089812-1.7824731817s-1.0031319337-.6399628383-1.6745039911-.6399628383c-.5045105811,0-.9913534766.1236738-1.4624917625.3690583239-.4731013621.2453845239-.8814212099.6026643907-1.2308487719,1.0738026766s-.5810705526,1.0306150004-.6968920479,1.6764670674c-.0392615238.2453845239-.0588922857.4770275145-.0588922857.6968920479,0,.7754150955.2198645334,1.385931791.6595936003,1.8315500865.4377659906.4456182954.9933165528.667445905,1.6646886102.667445905.5045105812,0,.995279629-.1256368762,1.4723071435-.3769106287.4789905907-.2532368287.8892735146-.6164059241,1.2308487719-1.0953965147.3415752573-.4770275145.5712551717-1.0384673052.6870766669-1.6843193721.051039981-.3356860287.0785230477-.5810705526.0785230477-.7361535717Z"/>
        <path class="cls-1" d="m161.8165274916,173.0647970214l-1.898294677,10.7321375376h-2.730638982l1.898294677-10.7321375376h2.730638982Zm-2.1495684294-1.6470209245c-.2591260572-.2453845239-.3867260097-.5535874859-.3867260097-.9285350385,0-.5162890383.1963076191-.9599442575.5908859336-1.3270395053.3926152383-.369058324.8539381432-.5535874859,1.3839687148-.5535874859.4142090764,0,.7498951051.1236738,1.0070580861.369058324.2591260573.2453845239.3886890859.5555505621.3886890859.9304981147,0,.5162890383-.1943445429.9579811813-.5810705526,1.3270395053-.3886890859.3670952478-.8460858384.5516244098-1.3761164101.5516244098-.4259875335,0-.7675627908-.1236738001-1.026688848-.369058324Z"/>
        <path class="cls-1" d="m173.0629909913,173.8107659741c.6379997622.6007013145.9579811813,1.4566025339.9579811813,2.5677036582,0,.4122460001-.0314092191.7871935527-.0961907334,1.1228795814l-1.1248426576,6.2955853454h-2.6913774582l1.0463196099-5.9284900976c.0372984476-.2316429906.0569292095-.4573967526.0569292095-.677261286,0-.6458520669-.1707876286-1.1366211147-.5123628859-1.4723071434-.3435383335-.3356860287-.8303812289-.5045105812-1.4624917625-.5045105812-.7243751146,0-1.3407810386.2179014572-1.8511808484.6497782193-.5103998097.4338398383-.8480489146,1.0561349909-1.0168734671,1.8688485341l-1.0659503719,6.0639423548h-2.730638982l1.8982946769-10.7321375376h2.730638982l-.2316429906,1.3172241243c.4397290668-.451507524.9619073337-.810750467,1.5684978768-1.0757657528.6085536193-.2630522096,1.2406641529-.3965413906,1.8982946769-.3965413906,1.1111011243,0,1.9866331056.3003506573,2.6265959439.9010519718Z"/>
        <path class="cls-1" d="m183.5634855383,173.3651476787c.5614397907.3160552668.9579811813.7263381908,1.1896241719,1.2308487719l.2709045144-1.5311994292h2.7326020582l-1.9002577531,10.8086975091c-.1806030096.995279629-.5418090288,1.8825900674-1.0836180576,2.6638943915s-1.25244261,1.4016364005-2.1299376675,1.8609962293c-.8794581337.4573967526-1.8865162198.6870766669-3.0231373345.6870766669-1.5115686673,0-2.689414382-.3553167906-3.5355002205-1.0659503718-.8460858384-.7106335813-1.2288856957-1.6784301435-1.1523257243-2.9053527631h2.6933405344c.051039981.4907690478.2866091239.8814212099.7067074288,1.1719564862.4200983049.2905352763.9658334861.4358029144,1.6372055435.4358029144.800935086,0,1.4821225244-.2355691429,2.0435623151-.7067074288.5614397907-.4711382859.934424267-1.1856980195,1.1150272766-2.1417161247l.2905352763-1.6646886102c-.4397290668.502547505-.9933165528.9226458099-1.6568363054,1.2583318386-.6654828288.3356860287-1.3918210196.5045105812-2.1809776485.5045105812-.7871935527,0-1.488011753-.1786399334-2.1004915247-.533956724-.6144428479-.3533537144-1.0914703623-.8578642956-1.4350086958-1.5096055911-.3415752573-.6517412955-.5123628859-1.4114517815-.5123628859-2.2771683819,0-.400467543.0392615238-.8186027718.1158214953-1.2583318386.1943445429-1.0855811338.5791074764-2.0474884675,1.1523257243-2.8876850774.575181324-.8382335337,1.2759995243-1.4840856006,2.1024546008-1.9355931246.8264550765-.4534706002,1.6980609054-.6792243622,2.6148174868-.6792243622.800935086,0,1.4840856006.1590091715,2.0455253913.4750644383Zm.5889228574,4.3305460779c0-.7636366384-.2237906858-1.3564856482-.667445905-1.7824731817-.4456182954-.4259875335-1.0050950099-.6399628383-1.6764670673-.6399628383-.502547505,0-.9913534766.1236738-1.4624917625.3690583239-.4711382859.2453845239-.8814212099.6026643907-1.2288856957,1.0738026766-.349427562.4711382859-.5830336288,1.0306150004-.6988551241,1.6764670674-.0372984476.2453845239-.0569292095.4770275145-.0569292095.6968920479,0,.7754150955.2179014572,1.385931791.6576305241,1.8315500865.4397290668.4456182954.995279629.667445905,1.6666516864.667445905.502547505,0,.9933165528-.1256368762,1.4723071434-.3769106287.4770275145-.2532368287.8873104385-.6164059241,1.2288856957-1.0953965147.3415752573-.4770275145.5732182478-1.0384673052.6870766669-1.6843193721.0549661334-.3356860287.0785230477-.5810705526.0785230477-.7361535717Z"/>
      </g>
      <g>
        <path class="cls-1" d="m92.4355256639,203.7751609574c-.451507524.6321105336-1.0757657528,1.1425103433-1.8688485341,1.529236353-.7950458575.3886890859-1.7471378102.5810705526-2.8582389345.5810705526h-2.2653899247l-.9108673527,5.1923365259h-2.730638982l2.4008421819-13.5216688054h4.978361221c1.3820056386,0,2.4283252486.3062398858,3.1389588298.9206827337.7106335812.6124797717,1.0659503719,1.4310825434,1.0659503719,2.4499190867,0,.2983875811-.0274830667.5692920955-.0785230477.8146766194-.1295630286.7224120384-.4200983049,1.4016364006-.8716058289,2.0337469341Zm-2.7110082201-.5614397907c.4259875335-.3631690954.6968920479-.8539381432.8127135432-1.4723071435.0255199905-.1177845715.0392615238-.2846460477.0392615238-.5045105812,0-1.0207996194-.6340736098-1.5311994292-1.898294677-1.5311994292h-2.1319007437l-.7165228098,4.0498261826h2.1495684294c.7361535717,0,1.3172241243-.1806030096,1.745174734-.5418090288Z"/>
        <path class="cls-1" d="m99.5065261048,200.732392861c.6183690002-.3612060192,1.2897410577-.5418090288,2.0141161722-.5418090288l-.5045105811,2.8484235535h-.7165228098c-.800935086,0-1.4428610006.174713781-1.9277408198.5221782669-.4829167431.3494275621-.8362704575.944239648-1.0541719147,1.7824731817l-1.0090211623,5.7341455547h-2.730638982l1.8982946769-10.7321375376h2.730638982l-.3278337239,1.8982946769c.4652490573-.6458520669,1.0070580861-1.1483995719,1.6273901625-1.5115686673Z"/>
        <path class="cls-1" d="m103.778179897,210.6910783792c-.7047443527-.3749475525-1.2504795338-.9049781242-1.6372055435-1.5900917149-.3867260097-.6831505145-.5810705526-1.4723071434-.5810705526-2.3615806581,0-1.2151441624.2866091239-2.3223191343.861790448-3.3234879918.575181324-1.0011688576,1.3623748767-1.7922885626,2.3635437343-2.3733591152,1.0011688576-.5810705526,2.114233058-.871605829,3.3411556775-.871605829.9167565813,0,1.7333962769.1904183906,2.4518821629.5712551717.7165228098.3827998573,1.2701102957.9147935051,1.6646886102,1.5999070959.3945783145.6831505145.5908859336,1.4703440673.5908859336,2.3615806581,0,1.2269226195-.2905352763,2.3380237438-.8716058289,3.3333033728-.5810705526.9933165528-1.3780794863,1.7785470293-2.3929898771,2.3537283533-1.0129473147.5732182479-2.1338638199.861790448-3.3607864394.861790448-.9167565813,0-1.7275070483-.1864922382-2.4302883248-.5614397907Zm4.5621890685-2.3262452866c.5280674955-.3729844763.9422765718-.8716058289,1.2387010767-1.4899748292.2983875811-.6203320764.4456182954-1.2720733719.4456182954-1.9571869627,0-.7754150955-.215938381-1.3721902577-.6478151431-1.7922885626-.4338398383-.4200983049-.9795750194-.6301474574-1.6372055435-.6301474574-.6595936003,0-1.2426272291.1884553144-1.7530270388.5634028669s-.9069412004.8735689051-1.1915872481,1.4997902101c-.2846460477.6281843812-.4259875335,1.2897410577-.4259875335,1.9866331056,0,.7616735622.2021968477,1.3486333434.6105166955,1.7628424198.4063567716.4122460002.9383504194.6203320764,1.5979440197.6203320764.6458520669,0,1.2328118481-.1884553143,1.7628424198-.5634028669Z"/>
        <path class="cls-1" d="m131.7206064034,201.1014511849c.6595936003.6065905431.9874273242,1.4664179149.9874273242,2.5755559629,0,.4142090764-.0314092191.7832674003-.0961907334,1.1052118957l-1.1228795814,6.2955853454h-2.6933405344l1.0463196099-5.9284900976c.0392615238-.2316429906.0588922857-.4573967526.0588922857-.677261286,0-.6203320764-.1727507048-1.0953965147-.5143259621-1.4232302387-.3415752573-.3297968001-.8303812289-.4946952002-1.4624917625-.4946952002-.7498951051,0-1.3820056387.2237906858-1.898294677.6694089812-.5162890383.4436552192-.8401966099,1.08754421-.9677965623,1.9257777436v-.0176676857l-1.0659503718,5.9461577833h-2.6933405344l1.0463196099-5.9284900976c.0392615238-.2316429906.0588922857-.451507524.0588922857-.6576305241,0-.6321105336-.174713781-1.1150272766-.5241413431-1.4428610006-.3474644859-.3297968001-.8401966099-.4946952002-1.4723071434-.4946952002-.7106335812,0-1.3191872005.2100491525-1.8295870103.6301474574-.5103998097.4200983049-.8441227623,1.0168734671-.9972427052,1.7922885626l-1.0855811338,6.1012408024h-2.730638982l1.898294677-10.7321375376h2.730638982l-.2316429906,1.2779626005c.4259875335-.4377659906.934424267-.7871935527,1.529236353-1.0443565337.594812086-.2591260572,1.221033391-.3886890859,1.878663915-.3886890859.8401966099,0,1.5567194197.1786399334,2.1515315056.533956724.5928490097.3553167906,1.0129473147.861790448,1.2583318386,1.5194209721.451507524-.6203320764,1.0423934576-1.1169903528,1.7726578007-1.4919379054.7302643432-.3729844763,1.488011753-.5614397907,2.2771683819-.5614397907,1.1346580386,0,2.0337469342.3042768096,2.6913774582.9108673527Z"/>
        <path class="cls-1" d="m136.437878491,210.6910783792c-.7047443527-.3749475525-1.2504795338-.9049781242-1.6372055435-1.5900917149-.3867260097-.6831505145-.5810705526-1.4723071434-.5810705526-2.3615806581,0-1.2151441624.2866091239-2.3223191343.861790448-3.3234879918.575181324-1.0011688576,1.3623748767-1.7922885626,2.3635437343-2.3733591152,1.0011688575-.5810705526,2.114233058-.871605829,3.3411556775-.871605829.9167565813,0,1.7333962769.1904183906,2.4518821629.5712551717.7165228098.3827998573,1.2701102957.9147935051,1.6646886102,1.5999070959.3945783144.6831505145.5908859336,1.4703440673.5908859336,2.3615806581,0,1.2269226195-.2905352763,2.3380237438-.8716058289,3.3333033728-.5810705526.9933165528-1.3780794863,1.7785470293-2.3929898771,2.3537283533-1.0129473147.5732182479-2.1338638199.861790448-3.3607864394.861790448-.9167565813,0-1.7275070483-.1864922382-2.4302883248-.5614397907Zm4.5621890685-2.3262452866c.5280674954-.3729844763.9422765718-.8716058289,1.2387010767-1.4899748292.2983875811-.6203320764.4456182954-1.2720733719.4456182954-1.9571869627,0-.7754150955-.215938381-1.3721902577-.6478151431-1.7922885626-.4338398383-.4200983049-.9795750194-.6301474574-1.6372055435-.6301474574-.6595936003,0-1.2426272291.1884553144-1.7530270388.5634028669-.5103998097.3749475525-.9069412004.8735689051-1.1915872481,1.4997902101-.2846460478.6281843812-.4259875335,1.2897410577-.4259875335,1.9866331056,0,.7616735622.2021968477,1.3486333434.6105166955,1.7628424198.4063567716.4122460002.9383504194.6203320764,1.5979440197.6203320764.6458520669,0,1.2328118481-.1884553143,1.7628424198-.5634028669Z"/>
        <path class="cls-1" d="m150.181374906,207.7660948543c-.0137415333.0765599715-.0196307619.1806030096-.0196307619.308202962,0,.2591260572.0745968953.4436552192.2237906858.553587486.1472307144.1099322667.3965413906.1648984001.7440058765.1648984001h1.2799256767l-.4083198478,2.2850206866h-1.7235808959c-1.9375562008,0-2.9053527631-.8068243146-2.9053527631-2.42243602,0-.308202962.0255199905-.6124797717.0785230476-.9089042766l.9089042765-5.172705764h-1.2779626005l.3867260097-2.2280914771h1.2995564386l.4632859811-2.6540790106h2.7326020582l-.4652490573,2.6540790106h2.3831744962l-.3886890859,2.2280914771h-2.4008421819l-.9108673527,5.1923365259Z"/>
        <path class="cls-1" d="m158.5695994712,200.3456668513l-1.898294677,10.7321375376h-2.730638982l1.898294677-10.7321375376h2.730638982Zm-2.1495684294-1.6470209245c-.2591260573-.2453845239-.3886890859-.553587486-.3886890859-.9285350385,0-.5162890383.1963076191-.9599442575.5908859336-1.3270395053.3945783144-.369058324.8559012194-.5535874859,1.385931791-.5535874859.4122460002,0,.7479320289.1236738,1.0070580861.369058324.257162981.2453845239.3867260097.5555505621.3867260097.9304981147,0,.5162890383-.1923814667.9579811813-.5810705526,1.3270395053-.3867260097.3670952478-.8460858384.5516244097-1.3741533339.5516244097-.4259875335,0-.769525867-.1236738-1.026688848-.3690583239Z"/>
        <path class="cls-1" d="m169.8140998948,201.091635804c.6399628384.6007013145.9599442575,1.4566025339.9599442575,2.5677036582,0,.4122460002-.0333722953.7871935527-.0981538096,1.1228795814l-1.1228795814,6.2955853454h-2.6933405344l1.0463196099-5.9284900976c.0392615238-.2316429906.0588922857-.4573967526.0588922857-.677261286,0-.6458520669-.1727507048-1.1366211147-.5143259621-1.4723071434s-.8303812289-.5045105812-1.4624917625-.5045105812c-.7224120384,0-1.3388179624.2179014572-1.8492177722.6497782193-.5103998097.4338398383-.8500119908,1.0561349909-1.0168734671,1.8688485341l-1.0659503719,6.0639423548h-2.730638982l1.8982946769-10.7321375376h2.730638982l-.2316429906,1.3172241243c.4377659907-.451507524.9619073337-.810750467,1.5684978768-1.0757657528.6065905431-.2630522096,1.2387010767-.3965413906,1.8982946769-.3965413906,1.1111011243,0,1.9846700294.3003506573,2.6246328677.9010519718Z"/>
        <path class="cls-1" d="m180.3145944418,200.6460175086c.5614397907.3160552668.9579811813.7263381908,1.1896241719,1.2308487719l.2709045144-1.5311994292h2.7326020582l-1.9002577531,10.8086975091c-.1806030096.995279629-.5418090288,1.8825900675-1.0836180576,2.6638943916s-1.25244261,1.4016364005-2.1299376675,1.8609962293c-.8774950575.4573967526-1.8865162198.687076667-3.0211742583.687076667-1.5115686673,0-2.6913774582-.3553167906-3.5355002205-1.0659503718-.8460858384-.7106335812-1.2308487719-1.6784301435-1.1523257243-2.9053527631h2.6913774582c.051039981.4907690478.2885722001.8814212099.7067074289,1.1719564862.4200983049.2905352763.9658334861.4358029145,1.6372055435.4358029145.800935086,0,1.4821225244-.235569143,2.0435623151-.7067074289.5614397907-.4711382859.934424267-1.1856980195,1.1150272766-2.1417161247l.2905352763-1.6646886102c-.4397290668.502547505-.9913534766.9226458099-1.6568363054,1.2583318386s-1.3918210196.5045105812-2.1790145723.5045105812-1.488011753-.1786399334-2.1024546008-.533956724c-.6124797717-.3533537144-1.0914703623-.8578642956-1.4330456196-1.5096055911-.3415752573-.6517412955-.5143259621-1.4114517815-.5143259621-2.2771683819,0-.400467543.0392615238-.8186027717.1177845715-1.2583318386.1923814668-1.0855811338.5771444002-2.0474884675,1.1523257243-2.8876850773.5732182479-.8382335337,1.2740364481-1.4840856006,2.1004915246-1.9355931246.8264550765-.4534706002,1.6980609054-.6792243622,2.6167805629-.6792243622.7989720098,0,1.4821225244.1590091715,2.0435623151.4750644383Zm.5889228574,4.3305460779c0-.7636366384-.2237906858-1.3564856482-.667445905-1.7824731816-.4456182954-.4259875335-1.0031319337-.6399628384-1.6745039911-.6399628384-.5045105812,0-.9913534766.1236738001-1.4624917625.369058324-.4731013621.2453845239-.8814212099.6026643907-1.2308487719,1.0738026766s-.5810705526,1.0306150004-.6968920479,1.6764670673c-.0392615238.2453845239-.0588922857.4770275145-.0588922857.6968920479,0,.7754150955.2198645334,1.385931791.6595936003,1.8315500864.4377659906.4456182954.9933165528.667445905,1.6646886102.667445905.5045105812,0,.995279629-.1256368762,1.4723071435-.3769106287.4789905907-.2532368287.8873104384-.6164059241,1.2288856957-1.0953965147.3415752573-.4770275145.5732182478-1.0384673052.687076667-1.6843193721.0549661333-.3356860287.0785230476-.5810705526.0785230476-.7361535717Z"/>
      </g>
      <g>
        <path class="cls-1" d="m224.1795319355,197.5561355835l-2.3831744962,13.5216688054h-2.7306389821l1.5488671149-8.755319813-5.1511119258,8.755319813h-2.073008458l-2.073008458-8.7749505749-1.5508301911,8.7749505749h-2.730638982l2.4028052581-13.5216688054h3.0800665441l2.5362944391,10.0352454897,6.0443115929-10.0352454897h3.0800665441Z"/>
        <path class="cls-1" d="m225.8756297647,202.785770557c.5732182479-.8382335337,1.2740364481-1.4840856006,2.1004915247-1.9355931246.8264550765-.4534706002,1.6980609055-.6792243622,2.616780563-.6792243622.7989720098,0,1.4742702196.1629353239,2.0239315532.4848798193.5476982574.3239075716.9520919528.7302643432,1.21121801,1.221033391l.2709045144-1.5311994292h2.7306389821l-1.8982946769,10.7321375376h-2.730638982l.2905352763-1.5684978768c-.4259875335.502547505-.9795750194.9187196575-1.6568363054,1.2485164576-.677261286.3297968001-1.4173410101.4946952002-2.2182760961.4946952002-.7871935527,0-1.4840856006-.1786399334-2.0926392199-.533956724-.6065905431-.3533537144-1.077728829-.8578642956-1.4134148577-1.5096055911s-.5045105812-1.4114517815-.5045105812-2.2771683819c0-.400467543.0392615238-.8186027717.1177845715-1.2583318386.1923814667-1.0855811338.5771444002-2.0474884675,1.1523257243-2.8876850773Zm7.3517203363,2.1907930294c0-.7636366384-.2237906858-1.3564856482-.6694089812-1.7824731816s-1.0031319337-.6399628384-1.6745039912-.6399628384c-.5045105811,0-.9913534766.1236738001-1.4624917625.369058324-.4731013621.2453845239-.8814212099.6026643907-1.2308487719,1.0738026766-.349427562.4711382859-.5810705526,1.0306150004-.6968920479,1.6764670673-.0392615238.2453845239-.0588922857.4770275145-.0588922857.6968920479,0,.7754150955.2198645334,1.385931791.6595936003,1.8315500864.4377659907.4456182954.9933165528.667445905,1.6646886102.667445905.5045105812,0,.995279629-.1256368762,1.4723071434-.3769106287.4789905907-.2532368287.8892735146-.6164059241,1.2308487719-1.0953965147.3415752573-.4770275145.5712551717-1.0384673052.6870766669-1.6843193721.051039981-.3356860287.0785230477-.5810705526.0785230477-.7361535717Z"/>
        <path class="cls-1" d="m239.6466092464,210.8559767793c-.6379997622-.2650152858-1.1425103433-.6340736098-1.5096055911-1.1052118957-.369058324-.4711382859-.5516244098-1.0109842385-.5516244098-1.6175747816,0-.0903015048.0117784572-.2394952953.0372984476-.4456182954h2.6344482487c-.0372984477.451507524.0981538096.8166396956.4083198478,1.0953965147.308202962.276793743.7479320289.4161721525,1.3172241243.4161721525.5162890383,0,.944239648-.0942276572,1.2877779815-.2807198953.3415752573-.1884553144.5123628859-.4613229049.5123628859-.8244920003,0-.3219444954-.1570460953-.5810705526-.4731013621-.7734520193-.318018343-.1943445429-.8186027717-.4142090763-1.5017532863-.6595936003-.6851135908-.2453845239-1.25244261-.4848798192-1.7059132102-.7165228098-.451507524-.2316429905-.8382335336-.5555505621-1.1621411052-.9677965623-.3219444954-.4142090764-.482916743-.9363873432-.482916743-1.570460953,0-.6321105336.1825660858-1.1935503243.5516244097-1.6843193721.3670952478-.4907690478.8814212099-.8716058289,1.5390517339-1.1425103433.6595936003-.2728675906,1.4153779339-.4083198478,2.2673530009-.4083198478.8127135432,0,1.529236353.1354522572,2.1495684295.4083198478.6203320764.2709045144,1.1012857433.6478151431,1.4428610006,1.1326949624.3435383334.4848798192.5143259621,1.036504229.5143259621,1.6568363054,0,.1531199429-.0058892286.2709045144-.0196307619.3474644859h-2.5186267534c.0392615238-.451507524-.0903015048-.8127135432-.3867260097-1.0836180576-.2983875811-.2728675906-.7302643432-.4083198478-1.2975933624-.4083198478-.4652490573,0-.8460858384.1001168857-1.1444734195.3003506573-.2964245049.2002337715-.4456182954.4691752097-.4456182954.8048612384s.1688245525.6105166955.5045105812.8225289242c.3356860287.2139753048.851975067.4495444478,1.5488671149.7067074288.6988551241.2728675906,1.2563687624.5202151907,1.6764670673.7459689527s.7852304765.5359198002,1.0953965147.9304981147.4632859811.8873104384.4632859811,1.4821225244c0,.6576305241-.2002337715,1.2328118481-.5987382383,1.7235808959-.400467543.4907690478-.9501288766.8657166004-1.6470209245,1.1228795814-.6968920479.2591260572-1.4860486768.3886890859-2.3635437343.3886890859-.7871935527,0-1.5017532863-.133489181-2.1417161247-.3965413906Z"/>
        <path class="cls-1" d="m251.9001308323,207.7660948543c-.0117784571.0765599715-.0176676857.1806030096-.0176676857.308202962,0,.2591260572.0726338191.4436552192.2218276096.553587486s.3965413906.1648984001.7459689527.1648984001h1.2779626005l-.4063567716,2.2850206866h-1.7235808959c-1.9375562008,0-2.905352763-.8068243146-2.905352763-2.42243602,0-.308202962.0255199905-.6124797717.0765599714-.9089042766l.9108673527-5.172705764h-1.2779626005l.3867260097-2.2280914771h1.2975933624l.4652490573-2.6540790106h2.730638982l-.4652490573,2.6540790106h2.3831744962l-.3867260097,2.2280914771h-2.4028052581l-.9108673528,5.1923365259Z"/>
        <path class="cls-1" d="m265.537621133,201.3056111089c.800935086.7538212574,1.201402629,1.7726578007,1.201402629,3.0506204012,0,.4122460002-.0314092191.7813043241-.0961907334,1.1032488195-.0785230477.3886890859-.1629353239.7243751146-.2532368287,1.0070580861h-7.8444524603c-.0137415334.092264581-.0196307619.2198645334-.0196307619.3886890859,0,.6713720574.1963076191,1.1974764767.5908859336,1.5783132578s.9128304289.5712551716,1.5586824959.5712551716c.543772105,0,1.0109842385-.1197476477,1.4055625529-.3572798668.3926152383-.2394952953.7125966574-.5535874859.9579811813-.9403134956h2.924983525c-.4770275145,1.0325780766-1.2171072386,1.8825900674-2.2182760961,2.5480728963-.9992057813.6654828288-2.1338638199.9972427052-3.3980848871.9972427052-1.3702271815,0-2.4675867724-.3886890859-3.2940418489-1.1621411052-.8264550765-.7754150955-1.2406641528-1.8276239341-1.2406641528-3.1585895917,0-.3867260097.0392615238-.7930827813.1177845714-1.2190703148.1923814668-1.1111011243.5908859336-2.0867499913,1.1915872481-2.9269466012.5987382383-.8382335337,1.344707191-1.4840856006,2.2359437818-1.9355931246.8912365908-.4534706002,1.8668854579-.6792243622,2.924983525-.6792243622,1.3702271815,0,2.4538452391.3788737049,3.2547803251,1.1346580386Zm-1.5488671149,3.0702511631c0-.6203320764-.2002337715-1.1052118957-.6007013145-1.4526763815-.400467543-.3494275621-.9246088861-.5241413431-1.5684978768-.5241413431-.6851135907,0-1.2995564386.2159383811-1.8413654674.6497782193-.5418090288.4318767621-.9226458099,1.0227626957-1.1425103433,1.7726578007h5.1138134782c.0255199905-.2080860763.0392615238-.3553167906.0392615238-.4456182954Z"/>
        <path class="cls-1" d="m273.5391196885,200.732392861c.6183690003-.3612060192,1.2897410577-.5418090288,2.0141161722-.5418090288l-.5045105812,2.8484235535h-.7165228098c-.800935086,0-1.4428610006.174713781-1.9277408198.5221782669-.4829167431.3494275621-.8362704575.944239648-1.0541719147,1.7824731817l-1.0090211623,5.7341455547h-2.730638982l1.8982946769-10.7321375376h2.7306389821l-.327833724,1.8982946769c.4652490573-.6458520669,1.0070580861-1.1483995719,1.6273901626-1.5115686673Z"/>
        <path class="cls-1" d="m279.1358499098,200.3456668513l1.4350086958,7.4969879744,4.1636846017-7.4969879744h2.8857220011l-9.432581099,15.806689492h-2.8876850773l3.2547803251-5.3454564688-2.4597344677-10.4612330232h3.0408050203Z"/>
      </g>
      <g>
        <path class="cls-1" d="m233.494328463,170.2752657536l-2.3831744962,13.5216688054h-2.730638982l1.5488671149-8.7572828892-5.1530750021,8.7572828892h-2.073008458l-2.073008458-8.7749505749-1.5488671149,8.7749505749h-2.730638982l2.4008421819-13.5216688054h3.0800665441l2.5382575153,10.0352454897,6.0443115929-10.0352454897h3.0800665441Z"/>
        <path class="cls-1" d="m243.645395448,174.0227782027c.800935086.7557843336,1.2014026291,1.7726578007,1.2014026291,3.0525834774,0,.4122460001-.0333722953.7813043241-.0981538096,1.1032488195-.0765599715.3867260097-.1609722477.7243751146-.2512737525,1.0070580861h-7.8464155365c-.0117784571.0903015048-.0196307619.2198645334-.0196307619.3886890859,0,.6713720574.1982706953,1.1974764767.5908859336,1.5783132578.3945783144.3808367811.9147935051.5712551717,1.560645572.5712551717.5418090288,0,1.0109842385-.1197476477,1.4035994768-.359242943.3945783144-.2375322191.7145597336-.5516244097.9599442575-.9383504194h2.924983525c-.4789905907,1.0325780766-1.2171072386,1.8825900674-2.2182760961,2.5461098201-1.0011688575.6654828288-2.1338638199.9992057813-3.4000479633.9992057813-1.3682641053,0-2.4675867724-.3886890859-3.2920787727-1.1641041814-.8284181527-.7734520194-1.2406641528-1.8256608579-1.2406641528-3.1566265155,0-.3867260097.0392615238-.7950458575.1158214953-1.2210333909.1943445429-1.1091380481.5908859336-2.0847869151,1.1915872481-2.924983525.6007013145-.8382335337,1.3466702672-1.4840856006,2.237906858-1.9375562008.8912365908-.451507524,1.8649223817-.677261286,2.924983525-.677261286,1.3682641053,0,2.4538452391.3769106287,3.2547803251,1.1326949624Zm-1.5508301911,3.0702511631c0-.6183690002-.2002337715-1.1032488195-.6007013145-1.4526763815-.400467543-.3474644858-.9226458099-.5221782669-1.5684978768-.5221782669-.6851135907,0-1.2975933624.215938381-1.8394023912.6478151431-.543772105.4338398382-.9246088861,1.0247257718-1.1444734195,1.7726578007h5.1157765544c.0255199905-.2061230001.0372984476-.3533537144.0372984476-.4456182954Z"/>
        <path class="cls-1" d="m247.1396710685,175.5049007271c.575181324-.8382335337,1.2799256767-1.4840856006,2.1122699818-1.9375562008.8323443051-.451507524,1.7078762864-.677261286,2.6246328677-.677261286.6968920479,0,1.3368548863.1511568667,1.9179254389.4554336764.5810705526.3042768096,1.0129473147.7067074288,1.2975933624,1.21121801l.9108673528-5.0961457925h2.730638982l-2.5362944391,14.3363454248h-2.7326020582l.2905352763-1.5881286388c-.4259875335.5280674955-.9717227147.954055029-1.6372055435,1.2779626005-.6654828288.3219444954-1.3977102482.4848798193-2.1986453342.4848798193-.7871935527,0-1.488011753-.1786399334-2.1004915247-.533956724-.6144428479-.3553167906-1.0914703623-.8578642956-1.4350086958-1.5115686673-.3415752573-.6517412955-.5123628859-1.4094887053-.5123628859-2.2752053057,0-.400467543.0392615238-.8205658479.1158214953-1.2583318386.1943445429-1.0855811338.5791074764-2.0474884675,1.1523257243-2.8876850774Zm7.3517203362,2.1888299532c0-.7616735622-.2218276096-1.3545225719-.667445905-1.7824731817-.4456182954-.4259875335-1.0050950099-.6379997621-1.6764670674-.6379997621-.502547505,0-.9913534766.1217107239-1.4624917625.3670952478s-.8814212099.6046274669-1.2288856957,1.0757657528c-.3494275621.4711382859-.5830336288,1.0306150004-.6988551241,1.6764670674-.0372984476.2453845239-.0569292095.4770275145-.0569292095.6968920479,0,.7754150955.2179014572,1.3839687148.6576305241,1.8295870103s.9952796289.6694089812,1.6666516864.6694089812c.502547505,0,.9933165528-.1256368762,1.4723071434-.3788737049.4770275145-.2512737525.8873104384-.616405924,1.2288856957-1.0934334385.3435383335-.4770275145.5732182478-1.0404303814.6890397431-1.6862824483.051039981-.3356860287.0765599715-.5810705526.0765599715-.7361535717Z"/>
        <path class="cls-1" d="m263.4803172845,173.0647970214l-1.8982946769,10.7321375376h-2.730638982l1.8982946769-10.7321375376h2.7306389821Zm-2.1495684295-1.6470209245c-.2591260572-.2453845239-.3886890859-.5555505621-.3886890859-.9304981147,0-.5162890383.1963076191-.9579811813.5908859336-1.3270395053.3945783144-.3670952478.8559012194-.5516244097,1.385931791-.5516244097.4122460002,0,.7479320289.1236738,1.0070580861.369058324.2571629811.2453845239.3867260097.5555505621.3867260097.9285350385,0,.5182521145-.1923814667.9599442575-.5810705526,1.3270395053-.3867260097.3690583239-.8460858384.5535874859-1.3741533339.5535874859-.4259875335,0-.769525867-.1236738001-1.026688848-.369058324Z"/>
        <path class="cls-1" d="m266.6094607334,183.4082454731c-.7047443526-.3729844763-1.2504795338-.903015048-1.6372055435-1.5881286387-.3867260097-.6831505146-.5810705526-1.4723071434-.5810705526-2.3635437343,0-1.2131810862.2866091239-2.3203560581.861790448-3.3215249156s1.3623748767-1.7922885626,2.3635437343-2.3733591152c1.0011688575-.5810705526,2.114233058-.8716058289,3.3411556775-.8716058289.9167565813,0,1.7333962769.1904183905,2.4518821629.5712551717.7165228098.3808367811,1.2701102958.9147935051,1.6646886102,1.5979440197.3945783145.6851135907.5908859336,1.4723071434.5908859336,2.3635437343,0,1.2269226195-.2905352763,2.3380237438-.8716058289,3.3313402966-.5810705526.995279629-1.3780794863,1.7805101055-2.3929898772,2.3537283533-1.0129473147.575181324-2.1338638199.8637535242-3.3607864394.8637535242-.9167565813,0-1.7275070483-.1884553144-2.4302883248-.5634028669Zm4.5621890685-2.3242822105c.5280674954-.3749475525.9422765718-.8716058289,1.2387010767-1.4919379054.2983875811-.6183690002.4456182954-1.2720733719.4456182954-1.9552238865,0-.7754150955-.215938381-1.3721902577-.6478151431-1.7922885626-.4338398382-.4200983049-.9795750194-.6301474574-1.6372055435-.6301474574-.6595936003,0-1.2426272291.1884553144-1.7530270388.5614397907-.5103998097.3749475525-.9069412004.8755319813-1.1915872481,1.5017532863-.2846460477.626221305-.4259875335,1.2877779815-.4259875335,1.9866331056,0,.7616735622.2021968477,1.3486333434.6105166955,1.7628424197.4063567716.4122460002.9383504194.6183690003,1.5979440197.6183690003.6458520669,0,1.2328118481-.1864922382,1.7628424197-.5614397907Z"/>
        <path class="cls-1" d="m278.0483056998,175.5147161081c.5928490098-.8323443051,1.3329287339-1.478196372,2.2163130199-1.9375562008.8853473622-.4573967526,1.8452916198-.6870766669,2.8778696964-.6870766669,1.3290025815,0,2.3733591152.3297968001,3.1291434489.9874273242.7538212574.6595936003,1.1778457148,1.5959809435,1.2681472195,2.8091620297h-2.924983525c-.0785230477-.4652490573-.2787568192-.8284181527-.6007013145-1.0934334385-.3239075716-.2650152858-.7557843336-.3985044668-1.2975933624-.3985044668-.7754150955,0-1.436971772.2807198953-1.9866331055.8441227622-.5476982574.5614397907-.912830429,1.3584487244-1.0934334385,2.391026801-.0647815143.3631690954-.0981538096.6713720574-.0981538096.9304981147,0,.7361535717.1806030096,1.3015195148.543772105,1.6941347531.3612060192.3945783144.8637535242.5908859336,1.5096055911.5908859336,1.0855811337,0,1.8865162198-.4907690478,2.4028052581-1.4723071435h2.924983525c-.502547505,1.1641041814-1.2563687624,2.0867499913-2.2555745438,2.7718635821-1.0011688575.6831505145-2.155457658,1.026688848-3.458940249,1.026688848-1.3564856481,0-2.4381406296-.3847629335-3.2449649441-1.1542888005-.8068243146-.7675627908-1.21121801-1.8099562484-1.21121801-3.1271803727,0-.400467543.0392615238-.8205658479.1177845715-1.2602949148.1923814667-1.1091380481.5869597812-2.0828238389,1.1817718671-2.915168144Z"/>
        <path class="cls-1" d="m294.184791992,173.4515230311c.6183690002-.3612060192,1.2897410577-.5418090288,2.0141161722-.5418090288l-.5045105812,2.8484235535h-.7165228098c-.800935086,0-1.4428610006.1727507048-1.9277408198.5221782669-.4829167431.349427562-.8362704575.9422765718-1.0541719147,1.7824731817l-1.0090211623,5.7341455547h-2.7306389821l1.898294677-10.7321375376h2.7306389821l-.327833724,1.8982946769c.4652490573-.6458520669,1.0070580861-1.1503626481,1.6273901626-1.5115686673Z"/>
        <path class="cls-1" d="m300.7120203279,173.0647970214l-1.898294677,10.7321375376h-2.730638982l1.8982946769-10.7321375376h2.7306389821Zm-2.1495684295-1.6470209245c-.2591260572-.2453845239-.3886890859-.5555505621-.3886890859-.9304981147,0-.5162890383.1963076191-.9579811813.5908859336-1.3270395053.3945783145-.3670952478.8559012194-.5516244097,1.385931791-.5516244097.4122460002,0,.7479320289.1236738,1.0070580861.369058324.2571629811.2453845239.3867260097.5555505621.3867260097.9285350385,0,.5182521145-.1923814667.9599442575-.5810705526,1.3270395053-.3867260097.3690583239-.8460858384.5535874859-1.3741533339.5535874859-.4259875335,0-.769525867-.1236738001-1.026688848-.369058324Z"/>
        <path class="cls-1" d="m305.2251324916,180.4832619482c-.0117784572.0785230477-.0176676857.1825660858-.0176676857.3101660382,0,.2591260572.0726338191.4436552192.2218276096.5516244098.1491937905.1099322667.3965413906.1648984001.7459689526.1648984001h1.2779626005l-.4063567716,2.2869837628h-1.7235808959c-1.9375562008,0-2.9053527631-.8068243146-2.9053527631-2.42243602,0-.3101660382.0255199905-.6124797717.0765599715-.9108673527l.9108673527-5.1707426878h-1.2779626005l.3867260097-2.2280914771h1.2975933624l.4652490573-2.6540790106h2.730638982l-.4652490573,2.6540790106h2.3831744962l-.3867260097,2.2280914771h-2.4028052581l-.9108673527,5.1903734497Z"/>
        <path class="cls-1" d="m312.6828589422,173.0647970214l1.4350086958,7.4969879744,4.1636846017-7.4969879744h2.8857220012l-9.432581099,15.806689492h-2.8876850773l3.2547803251-5.3454564688-2.4597344676-10.4612330232h3.0408050202Z"/>
      </g>
      <path class="cls-1" d="m355.8036335133,8.0407600794v213.080142104H8.0407600794V8.0407600794h347.7628734339m8.0407600794-8.0407600794H0v229.1616622628h363.8443935927V0h0Z"/>
    </g>
  </g>
</svg>