<?xml version="1.0" encoding="UTF-8"?>
<svg id="Layer_2" data-name="Layer 2" xmlns="http://www.w3.org/2000/svg" viewBox="0 0 1135.8215272383 800">
  <defs>
    <style>
      .cls-1 {
        fill-rule: evenodd;
      }

      .cls-1, .cls-2 {
        fill: #5b1606;
      }
    </style>
  </defs>
  <g id="Layer_1-2" data-name="Layer 1">
    <g>
      <g id="Page-1">
        <g id="Dribbble-Light-Preview">
          <g id="icons">
            <path id="file_pdf-_1754_" data-name="file_pdf-[#1754]" class="cls-1" d="m788.5595703125,245.9228515625L570.3601074219,14.521484375c-7.5598144531-7.958984375-18.2397460938-14.521484375-29.2004394531-14.521484375H79.16015625C34.9597167969,0,0,40,0,84.16015625v280c0,22.080078125,17.48046875,35.83984375,39.560546875,35.83984375h.1989746094c22.1203613281,0,40.2404785156-13.759765625,40.2404785156-35.83984375V124.16015625c0-22.080078125,17.080078125-44.16015625,39.16015625-44.16015625h360.83984375v164.16015625c0,44.19921875,34.9597167969,75.83984375,79.16015625,75.83984375h160.83984375v44.16015625c0,22.080078125,17.48046875,35.83984375,39.560546875,35.83984375h.1989746094c22.1203613281,0,40.2404785156-13.759765625,40.2404785156-35.83984375v-90.6787109375c0-10.2783203125-4.3603515625-20.1220703125-11.4404296875-27.55859375h0ZM159.16015625,604.16015625c0-22.080078125-17.919921875-40-40-40h-40v80h40c22.080078125,0,40-17.919921875,40-40h0Zm79.8400878906-10.6396484375c3.5998535156,69.19921875-51.4404296875,126.4794921875-119.8400878906,126.4794921875h-39.16015625v44.16015625c0,22.080078125-18.1201171875,35.83984375-40.2404785156,35.83984375h-.1989746094c-22.080078125,0-39.560546875-13.759765625-39.560546875-35.83984375v-240c0-22.080078125,17.080078125-44.16015625,39.16015625-44.16015625h73.1994628906c65,0,123.2409667969,48.642578125,126.640625,113.5205078125h0Zm200.9997558594,10.6396484375c0-22.080078125-18.759765625-44.16015625-40.83984375-44.16015625h-39.16015625v160h39.16015625c22.080078125,0,40.83984375-13.759765625,40.83984375-35.83984375v-80Zm80-4.16015625v80c0,66.0009765625-54.0002441406,120-120,120h-84.2004394531c-19.7998046875,0-35.7995605469-16.0400390625-35.7995605469-35.83984375v-245c0-21.640625,17.51953125-39.16015625,39.16015625-39.16015625h80.83984375c65.9997558594,0,120,53.9990234375,120,120h0Zm280-78.9599609375v1.0400390625c0,22.080078125-18.759765625,37.919921875-40.83984375,37.919921875h-119.16015625v80h119.16015625c22.080078125,0,40.83984375,18.9208984375,40.83984375,41.0400390625v1.0400390625c0,22.080078125-18.759765625,37.919921875-40.83984375,37.919921875h-119.16015625v44.16015625c0,22.080078125-18.1201171875,35.83984375-40.2404785156,35.83984375h-.1989746094c-22.080078125,0-39.560546875-13.759765625-39.560546875-35.83984375v-240c0-22.080078125,17.080078125-44.16015625,39.16015625-44.16015625h160c22.080078125,0,40.83984375,18.9208984375,40.83984375,41.0400390625h0Z"/>
          </g>
        </g>
      </g>
      <path class="cls-2" d="m1002.5148925781,799.9995659722c-.0205078125,0-.0405273438.0009765625-.0620117188,0-3.4448242188,0-6.9091796875-.533203125-10.2661132812-1.625-.0102539062-.0029296875-.0205078125-.0068359375-.0302734375-.009765625-.021484375-.0068359375-.04296875-.013671875-.064453125-.021484375-1.8046875-.5908203125-3.5405273438-1.33203125-5.1943359375-2.208984375-1.2192382812-.6435546875-2.40234375-1.3642578125-3.5424804688-2.1630859375l-99.3608398438-66.2392578125c-15.3173828125-10.2119140625-19.4575195312-30.9072265625-9.2456054688-46.224609375,10.2119140625-15.318359375,30.9072265625-19.4580078125,46.224609375-9.24609375l48.177734375,32.1181640625v-397.716796875c0-18.4096679688,14.9233398438-33.3330078125,33.3330078125-33.3330078125,18.4091796875,0,33.3330078125,14.9233398438,33.3330078125,33.3330078125v397.716796875l48.177734375-32.1181640625c15.3193359375-10.2119140625,36.0126953125-6.072265625,46.224609375,9.24609375,10.2119140625,15.3173828125,6.0732421875,36.0126953125-9.24609375,46.224609375l-99.373046875,66.248046875c-1.068359375.7470703125-2.1728515625,1.42578125-3.3115234375,2.037109375-1.806640625.9755859375-3.7158203125,1.7890625-5.7041015625,2.4208984375-.021484375.0068359375-.0439453125.013671875-.0654296875.0205078125-.009765625.0029296875-.0205078125.005859375-.0302734375.009765625-3.2646484375,1.0283203125-6.62890625,1.53125-9.9741210938,1.53125Z"/>
    </g>
  </g>
</svg>