<?xml version="1.0" encoding="utf-8"?>
<!-- Generator: Adobe Illustrator 27.2.0, svg Export Plug-In . svg Version: 6.00 Build 0)  -->
<svg version="1.1" id="Capa_1" xmlns="http://www.w3.org/2000/svg" xmlns:xlink="http://www.w3.org/1999/xlink" x="0px" y="0px"
	 viewBox="0 0 800 800" style="enable-background:new 0 0 800 800;" xml:space="preserve">
<style type="text/css">
	.st0{fill:#FFFFFF;}
</style>
<g>
	<path class="st0" d="M547.7,231.7H335.4c-16.9,0-30.6,13.7-30.6,30.6s13.7,30.6,30.6,30.6H411v244.8c0,16.9,13.7,30.6,30.6,30.6
		s30.6-13.7,30.6-30.6V292.9h75.6c16.9,0,30.6-13.7,30.6-30.6S564.6,231.7,547.7,231.7z"/>
	<path class="st0" d="M358.1,366.5H252.3c-16.9,0-30.6,13.7-30.6,30.6c0,16.9,13.7,30.6,30.6,30.6h22.3v106.6
		c0,16.9,13.7,30.6,30.6,30.6c16.9,0,30.6-13.7,30.6-30.6V427.6h22.3c16.9,0,30.6-13.7,30.6-30.6
		C388.6,380.2,374.9,366.5,358.1,366.5z"/>
	<path class="st0" d="M632.1,502h-81.9c-13.1,0-23.7,10.6-23.7,23.7s10.6,23.7,23.7,23.7h17.3h47.3h17.3c13.1,0,23.7-10.6,23.7-23.7
		S645.2,502,632.1,502z"/>
	<path class="st0" d="M632.1,399.8h-81.9c-13.1,0-23.7,10.6-23.7,23.7s10.6,23.7,23.7,23.7h17.3h47.3h17.3
		c13.1,0,23.7-10.6,23.7-23.7S645.2,399.8,632.1,399.8z"/>
	<path class="st0" d="M614.8,464.4v-81.9c0-13.1-10.6-23.7-23.7-23.7s-23.7,10.6-23.7,23.7v17.3v47.3v17.3
		c0,13.1,10.6,23.7,23.7,23.7S614.8,477.5,614.8,464.4z"/>
</g>
</svg>
