<?xml version="1.0" encoding="utf-8"?>
<!-- Generator: Adobe Illustrator 27.2.0, svg Export Plug-In . svg Version: 6.00 Build 0)  -->
<svg version="1.1" id="Layer_1" xmlns="http://www.w3.org/2000/svg" xmlns:xlink="http://www.w3.org/1999/xlink" x="0px" y="0px"
	 viewBox="0 0 800 800" style="enable-background:new 0 0 800 800;" xml:space="preserve">
<style type="text/css">
	.st0{fill:#FFFFFF;}
</style>
<path class="st0" d="M518.8,225H281.2c-3.4,0-6.2,2.8-6.2,6.2v87.5c0,3.4,2.8,6.2,6.2,6.2h37.5c3.4,0,6.2-2.8,6.2-6.2V275h46.9v250
	h-35.9c-3.4,0-6.2,2.8-6.2,6.2v37.5c0,3.4,2.8,6.2,6.2,6.2H464c3.4,0,6.2-2.8,6.2-6.2v-37.5c0-3.4-2.8-6.2-6.2-6.2h-35.9V275H475
	v43.8c0,3.4,2.8,6.2,6.2,6.2h37.5c3.4,0,6.2-2.8,6.2-6.2v-87.5C525,227.8,522.2,225,518.8,225z"/>
<path class="st0" d="M610,442.9H494c-9.9,0-18-8.1-18-18v0c0-9.9,8.1-18,18-18h116c9.9,0,18,8.1,18,18v0
	C628,434.8,619.9,442.9,610,442.9z"/>
</svg>
