<?xml version="1.0" encoding="utf-8"?>
<!-- Generator: Adobe Illustrator 27.2.0, svg Export Plug-In . svg Version: 6.00 Build 0)  -->
<svg version="1.1" id="Layer_1" xmlns="http://www.w3.org/2000/svg" xmlns:xlink="http://www.w3.org/1999/xlink" x="0px" y="0px"
	 viewBox="0 0 800 800" style="enable-background:new 0 0 800 800;" xml:space="preserve">
<style type="text/css">
	.st0{fill:#FFFFFF;}
</style>
<path class="st0" d="M618.8,231.2v-100c0-3.4-2.8-6.2-6.2-6.2h-425c-3.4,0-6.2,2.8-6.2,6.2v100c0,3.4,2.8,6.2,6.2,6.2h43.8
	c3.4,0,6.2-2.8,6.2-6.2v-50h131.2v437.5h-71.9c-3.4,0-6.2,2.8-6.2,6.2v43.8c0,3.4,2.8,6.2,6.2,6.2h206.2c3.4,0,6.2-2.8,6.2-6.2V625
	c0-3.4-2.8-6.2-6.2-6.2h-71.9V181.2h131.2v50c0,3.4,2.8,6.2,6.2,6.2h43.8C615.9,237.5,618.8,234.7,618.8,231.2z"/>
<path class="st0" d="M610,442.9H494c-9.9,0-18-8.1-18-18v0c0-9.9,8.1-18,18-18h116c9.9,0,18,8.1,18,18v0
	C628,434.8,619.9,442.9,610,442.9z"/>
<path class="st0" d="M534,482.9v-116c0-9.9,8.1-18,18-18l0,0c9.9,0,18,8.1,18,18v116c0,9.9-8.1,18-18,18l0,0
	C542.1,500.9,534,492.8,534,482.9z"/>
</svg>
