<?xml version="1.0" encoding="UTF-8"?>
<svg id="Layer_2" data-name="Layer 2" xmlns="http://www.w3.org/2000/svg" viewBox="0 0 161.47 74">
  <defs>
    <style>
      .cls-1 {
        fill: #5b1606;
        stroke-width: 0px;
      }
    </style>
  </defs>
  <g id="Layer_1-2" data-name="Layer 1">
    <g>
      <g>
        <g>
          <g>
            <path class="cls-1" d="M28.33,47.77c-1.73,6.8-5.83,15.62-15.51,21.45-.05.03-.04.11.02.12l3.66.76c.13.03.21.16.16.28l-1.2,3.53c-.02.06.05.11.1.08,12.59-7.54,17.07-19.33,18.65-27.42-1.84.72-3.82,1.14-5.89,1.2Z"/>
            <g>
              <circle class="cls-1" cx="36.48" cy="31.57" r="2.31"/>
              <circle class="cls-1" cx="30.02" cy="31.57" r="2.31"/>
              <circle class="cls-1" cx="23.56" cy="31.57" r="2.31"/>
            </g>
          </g>
          <path class="cls-1" d="M64.25,17.92c.08-9.78-7.84-17.76-17.61-17.76h-17.23c2.7.6,5.28,1.48,7.73,2.62,2.71,0,4.72,0,6.24,0,7.06-.1,12.83,6.28,12.36,13.24-.33,6.35-5.62,11.31-11.91,11.29h-2.26v26.07c-2.57,1.59-5.56,2.43-8.58,2.58-.77,1.86-1.68,3.69-2.73,5.45,6.22.54,12.59-1.52,17.35-5.55h0c.3-.26.6-.52.88-.79v6.42c8.81-.68,15.75-8.05,15.75-17.03v-15.73c0-1.63,0-9.36,0-10.82ZM48.5,46.13c-1.05,1.98-2.44,3.75-4.11,5.23v-21.24c12.39-.51,18.58-15.07,10.71-24.42,11,7.75,6.82,25.52-6.6,27.12v13.31ZM61.44,28.74v15.73c.09,6.15-4.25,11.96-10.13,13.66v-22.99c4.26-1.15,7.84-3.85,10.13-7.44v1.05Z"/>
        </g>
        <path class="cls-1" d="M52.56,21.03c-1.16-2.43-2.58-4.72-4.22-6.82,0,0,0,0,0,0-2.48-3.14-5.44-5.88-8.8-8.08h0c-1.95-1.26-4-2.35-6.16-3.23C29.1,1.14,24.41.16,19.49.16h-11.25c0,5.74,0,20.49,0,26.18.11,3.65-.38,12.93.55,16.36,1.51,7.03,6.33,13.16,12.77,16.32,1.1-1.57,1.99-3.11,2.79-4.78-4.3-2.01-7.74-5.7-9.42-10.14-.78-2.03-1.2-4.24-1.2-6.54v-11.22c0-4.85,0-15.73,0-20.68,3.35.02,8.1-.17,11.34.5,10.18,1.8,19.07,8.99,23.07,18.49,1.74-.84,3.25-2.08,4.4-3.62Z"/>
        <path class="cls-1" d="M12.7,63.6C4.75,58.69,0,50.19,0,40.86h5.5c0,7.41,3.77,14.16,10.09,18.05l-2.89,4.68Z"/>
      </g>
      <g>
        <g>
          <path class="cls-1" d="M74.25,0l11.73,11.82L97.66,0v26.88h-4.86V10.63l-6.82,7.05-6.86-7.05v16.25h-4.86V0Z"/>
          <path class="cls-1" d="M104.14.43h4.92v26.45h-4.92V.43Z"/>
          <path class="cls-1" d="M120.34,10.72v16.16h-4.86V0l17.02,16.68V.52h4.86v26.88l-17.02-16.68Z"/>
          <path class="cls-1" d="M148.89,5.05h-7.72V.43h20.3v4.62h-7.72v21.83h-4.86V5.05Z"/>
        </g>
        <g>
          <path class="cls-1" d="M74.25,35.51h12.67c5.98,0,9.59,3.9,9.59,9.16s-3.61,9.11-9.59,9.11h-7.76v8.19h-4.92v-26.45ZM79.17,49.1h7.37c3.52,0,5.06-2.07,5.06-4.43s-1.54-4.48-5.06-4.48h-7.37v8.92Z"/>
          <path class="cls-1" d="M104.14,35.51h4.92v26.45h-4.92v-26.45Z"/>
          <path class="cls-1" d="M115.48,35.51h4.92v21.78h12.04v-6.36h4.92v11.04h-21.87v-26.45Z"/>
          <path class="cls-1" d="M146.54,55.3c1.59,1.69,4.14,3.04,6.46,3.04,2.55,0,4.05-1.45,4.05-2.6,0-1.35-1.06-2.07-2.65-2.36l-2.51-.48c-5.78-1.06-7.37-2.94-7.37-5.83,0-3.47,2.94-6.7,8.05-6.7,2.84,0,5.35.82,8.14,2.84l-2.51,3.08c-2.17-1.83-4.05-2.31-5.49-2.31-1.93,0-3.81.96-3.81,2.6,0,1.25,1.01,1.88,2.7,2.17l4.43.82c3.66.72,5.45,2.46,5.45,5.49s-2.46,6.89-8.72,6.89c-3.47,0-6.41-1.2-9.2-3.57l2.99-3.08Z"/>
        </g>
      </g>
    </g>
  </g>
</svg>