<svg xmlns="http://www.w3.org/2000/svg" width="62.397" height="56" viewBox="0 0 62.397 56">
  <g id="paper-clip-svgrepo-com" transform="translate(0 -48.7)">
    <path id="Path_35" data-name="Path 35" d="M56.335,54.782A20.652,20.652,0,0,0,41.688,48.7a20.7,20.7,0,0,0-14.647,6.023L4.8,76.917A16.265,16.265,0,1,0,27.783,99.938l17.675-17.6A11.846,11.846,0,0,0,28.716,65.574L17.708,76.588a2.934,2.934,0,0,0,0,4.151l.046.046a2.943,2.943,0,0,0,4.158.007l11.034-11a5.959,5.959,0,0,1,8.355-.026,5.818,5.818,0,0,1,1.714,4.164,5.9,5.9,0,0,1-1.741,4.21l-17.668,17.6a.371.371,0,0,0-.079.1A10.356,10.356,0,0,1,9,95.741a10.4,10.4,0,0,1-2.982-7.31A10.183,10.183,0,0,1,9,81.186c.026-.02.046-.039.072-.059L31.271,58.94a.69.69,0,0,0,.059-.072A14.783,14.783,0,0,1,52.158,79.853L36.821,95.143a2.934,2.934,0,0,0-.007,4.158l.033.033a2.941,2.941,0,0,0,4.151,0L56.322,84.05A20.7,20.7,0,0,0,60.88,61.62,20.4,20.4,0,0,0,56.335,54.782Z" fill="#fff"/>
  </g>
</svg>
