<?xml version="1.0" encoding="UTF-8"?>
<svg id="Layer_2" data-name="Layer 2" xmlns="http://www.w3.org/2000/svg" viewBox="0 0 50.3993987268 50.3994">
  <defs>
    <style>
      .cls-1 {
        fill: #b86a26;
      }
    </style>
  </defs>
  <g id="Layer_1-2" data-name="Layer 1">
    <path class="cls-1" d="m25.2001993634,0C11.282699715,0,0,11.2832,0,25.2001c0,13.9151,11.282699715,25.1993,25.2001993634,25.1993,13.9164996484,0,25.1991993634-11.2842,25.1991993634-25.1993C50.3993987268,11.2832,39.1166990118,0,25.2001993634,0Zm-3.6985119233,37.7988h-5.2020710752c-.3032661852,0-.5491120029-.2458458178-.5491120029-.5491120029V13.1487120029c0-.3032661852.2458458178-.5491120029.5491120029-.5491120029h5.2020710752c.3032661852,0,.5491120029.2458458178.5491120029.5491120029v24.1009759942c0,.3032661852-.2458458178.5491120029-.5491120029.5491120029Zm12.5980996817,0h-5.202075835c-.3032661852,0-.5491120029-.2458458178-.5491120029-.5491120029V13.1487120029c0-.3032661852.2458458178-.5491120029.5491120029-.5491120029h5.202075835c.3032661852,0,.5491120029.2458458178.5491120029.5491120029v24.1009759942c0,.3032661852-.2458458178.5491120029-.5491120029.5491120029Z"/>
  </g>
</svg>