<?xml version="1.0" encoding="UTF-8"?>
<svg id="Layer_2" data-name="Layer 2" xmlns="http://www.w3.org/2000/svg" viewBox="0 0 219.1428571429 219.1428571429">
  <defs>
    <style>
      .cls-1 {
        fill: #1d1d1b;
      }
    </style>
  </defs>
  <g id="Layer_1-2" data-name="Layer 1">
    <g>
      <polygon class="cls-1" points="22.6699507389 136.0197044335 15.1133004927 136.0197044335 15.1133004927 143.5763546798 22.6699507389 143.5763546798 30.2266009852 143.5763546798 30.2266009852 136.0197044335 22.6699507389 136.0197044335"/>
      <rect class="cls-1" x="60.4532019705" y="120.9064039409" width="7.5566502463" height="7.5566502463"/>
      <rect class="cls-1" x="120.9064039409" y="188.9162561576" width="7.5566502463" height="7.5566502463"/>
      <polygon class="cls-1" points="90.6798029557 143.5763546798 98.236453202 143.5763546798 98.236453202 136.0197044335 90.6798029557 136.0197044335 83.1231527094 136.0197044335 83.1231527094 143.5763546798 83.1231527094 151.1330049261 83.1231527094 158.6896551724 90.6798029557 158.6896551724 90.6798029557 151.1330049261 90.6798029557 143.5763546798"/>
      <rect class="cls-1" x="105.7931034483" y="143.5763546798" width="7.5566502463" height="7.5566502464"/>
      <rect class="cls-1" x="113.3497536946" y="136.0197044335" width="7.5566502463" height="7.5566502463"/>
      <rect class="cls-1" x="52.8965517241" y="113.3497536946" width="7.5566502463" height="7.5566502463"/>
      <rect class="cls-1" x="45.3399014778" y="90.6798029557" width="7.5566502463" height="7.5566502463"/>
      <rect class="cls-1" x="37.7832512315" y="98.2364532019" width="7.5566502463" height="7.5566502464"/>
      <rect class="cls-1" x="113.3497536946" y="196.4729064039" width="7.5566502463" height="7.5566502463"/>
      <rect class="cls-1" x="52.8965517241" y="98.2364532019" width="7.5566502463" height="7.5566502464"/>
      <polygon class="cls-1" points="45.3399014778 128.4630541872 52.8965517241 128.4630541872 52.8965517241 120.9064039409 45.3399014778 120.9064039409 37.7832512315 120.9064039409 37.7832512315 128.4630541872 30.2266009852 128.4630541872 30.2266009852 136.0197044335 37.7832512315 136.0197044335 37.7832512315 143.5763546798 30.2266009852 143.5763546798 30.2266009852 151.1330049261 37.7832512315 151.1330049261 37.7832512315 158.6896551724 45.3399014778 158.6896551724 52.8965517241 158.6896551724 52.8965517241 151.1330049261 45.3399014778 151.1330049261 45.3399014778 143.5763546798 52.8965517241 143.5763546798 52.8965517241 136.0197044335 45.3399014778 136.0197044335 45.3399014778 128.4630541872"/>
      <rect class="cls-1" x="204.0295566502" y="60.4532019705" width="7.5566502464" height="7.5566502463"/>
      <polygon class="cls-1" points="188.9162561576 15.1133004926 181.3596059113 15.1133004926 181.3596059113 22.6699507389 181.3596059113 30.2266009852 181.3596059113 37.7832512315 188.9162561576 37.7832512315 196.4729064039 37.7832512315 204.0295566502 37.7832512315 204.0295566502 30.2266009852 204.0295566502 22.6699507389 204.0295566502 15.1133004926 196.4729064039 15.1133004926 188.9162561576 15.1133004926"/>
      <polygon class="cls-1" points="22.6699507389 120.9064039409 22.6699507389 113.3497536946 15.1133004927 113.3497536946 15.1133004927 105.7931034483 15.1133004927 98.2364532019 22.6699507389 98.2364532019 22.6699507389 105.7931034483 30.2266009852 105.7931034483 30.2266009852 98.2364532019 30.2266009852 90.6798029557 22.6699507389 90.6798029557 15.1133004927 90.6798029557 7.5566502463 90.6798029557 7.5566502463 98.2364532019 7.5566502463 105.7931034483 0 105.7931034483 0 113.3497536946 7.5566502463 113.3497536946 7.5566502463 120.9064039409 15.1133004927 120.9064039409 15.1133004927 128.4630541872 22.6699507389 128.4630541872 30.2266009852 128.4630541872 30.2266009852 120.9064039409 22.6699507389 120.9064039409"/>
      <rect class="cls-1" x="52.8965517241" y="128.4630541872" width="7.5566502463" height="7.5566502463"/>
      <polygon class="cls-1" points="83.1231527094 181.3596059113 83.1231527094 173.802955665 83.1231527094 166.2463054187 75.5665024631 166.2463054187 68.0098522168 166.2463054187 68.0098522168 158.6896551724 60.4532019705 158.6896551724 60.4532019705 166.2463054187 60.4532019705 173.802955665 68.0098522168 173.802955665 68.0098522168 181.3596059113 75.5665024631 181.3596059113 83.1231527094 181.3596059113"/>
      <polygon class="cls-1" points="15.1133004927 75.566502463 22.6699507389 75.566502463 22.6699507389 68.0098522167 30.2266009852 68.0098522167 37.7832512315 68.0098522167 37.7832512315 60.4532019705 30.2266009852 60.4532019705 22.6699507389 60.4532019705 15.1133004927 60.4532019705 7.5566502463 60.4532019705 0 60.4532019705 0 68.0098522167 0 75.566502463 7.5566502463 75.566502463 15.1133004927 75.566502463"/>
      <path class="cls-1" d="m211.5862068966,0h-45.3399014779v52.8965517241h52.8965517242V0h-7.5566502463Zm0,15.1133004926v30.2266009853h-37.7832512315V7.5566502463h37.7832512315v7.5566502463Z"/>
      <path class="cls-1" d="m15.1133004927,52.8965517241h37.7832512315V0H0v52.8965517241h15.1133004927Zm-7.5566502463-15.1133004926V7.5566502463h37.7832512315v37.7832512315H7.5566502463v-7.5566502463Z"/>
      <polygon class="cls-1" points="22.6699507389 181.3596059113 15.1133004927 181.3596059113 15.1133004927 188.9162561576 15.1133004927 196.4729064039 15.1133004927 204.0295566502 22.6699507389 204.0295566502 30.2266009852 204.0295566502 37.7832512315 204.0295566502 37.7832512315 196.4729064039 37.7832512315 188.9162561576 37.7832512315 181.3596059113 30.2266009852 181.3596059113 22.6699507389 181.3596059113"/>
      <polygon class="cls-1" points="7.5566502463 151.1330049261 7.5566502463 143.5763546798 7.5566502463 136.0197044335 7.5566502463 128.4630541872 0 128.4630541872 0 136.0197044335 0 143.5763546798 0 151.1330049261 0 158.6896551724 7.5566502463 158.6896551724 7.5566502463 151.1330049261"/>
      <polygon class="cls-1" points="30.2266009852 37.7832512315 37.7832512315 37.7832512315 37.7832512315 30.2266009852 37.7832512315 22.6699507389 37.7832512315 15.1133004926 30.2266009852 15.1133004926 22.6699507389 15.1133004926 15.1133004927 15.1133004926 15.1133004927 22.6699507389 15.1133004927 30.2266009852 15.1133004927 37.7832512315 22.6699507389 37.7832512315 30.2266009852 37.7832512315"/>
      <rect class="cls-1" x="105.7931034483" y="204.0295566502" width="7.5566502463" height="7.5566502463"/>
      <polygon class="cls-1" points="68.0098522168 45.3399014778 68.0098522168 37.7832512315 60.4532019705 37.7832512315 60.4532019705 45.3399014778 60.4532019705 52.8965517241 68.0098522168 52.8965517241 68.0098522168 45.3399014778"/>
      <rect class="cls-1" x="105.7931034483" y="15.1133004926" width="7.5566502463" height="7.5566502464"/>
      <rect class="cls-1" x="196.4729064039" y="211.5862068965" width="7.5566502463" height="7.5566502464"/>
      <rect class="cls-1" x="143.5763546798" y="211.5862068965" width="7.5566502463" height="7.5566502464"/>
      <rect class="cls-1" x="211.5862068966" y="173.802955665" width="7.5566502463" height="7.5566502463"/>
      <polygon class="cls-1" points="120.9064039409 219.1428571429 128.4630541872 219.1428571429 136.0197044335 219.1428571429 136.0197044335 211.5862068965 128.4630541872 211.5862068965 120.9064039409 211.5862068965 113.3497536946 211.5862068965 113.3497536946 219.1428571429 120.9064039409 219.1428571429"/>
      <rect class="cls-1" x="120.9064039409" y="128.4630541872" width="7.5566502463" height="7.5566502463"/>
      <polygon class="cls-1" points="75.5665024631 151.1330049261 75.5665024631 143.5763546798 68.0098522168 143.5763546798 68.0098522168 151.1330049261 68.0098522168 158.6896551724 75.5665024631 158.6896551724 75.5665024631 151.1330049261"/>
      <rect class="cls-1" x="211.5862068966" y="68.0098522167" width="7.5566502463" height="7.5566502463"/>
      <path class="cls-1" d="m37.7832512315,166.2463054187H0v52.8965517242h52.8965517241v-52.8965517242h-15.1133004926Zm7.5566502463,15.1133004926v30.2266009852H7.5566502463v-37.7832512315h37.7832512315v7.5566502463Z"/>
      <polygon class="cls-1" points="83.1231527094 196.4729064039 75.5665024631 196.4729064039 75.5665024631 188.9162561576 68.0098522168 188.9162561576 68.0098522168 181.3596059113 60.4532019705 181.3596059113 60.4532019705 188.9162561576 60.4532019705 196.4729064039 60.4532019705 204.0295566502 60.4532019705 211.5862068965 60.4532019705 219.1428571429 68.0098522168 219.1428571429 68.0098522168 211.5862068965 68.0098522168 204.0295566502 75.5665024631 204.0295566502 83.1231527094 204.0295566502 83.1231527094 211.5862068965 83.1231527094 219.1428571429 90.6798029557 219.1428571429 90.6798029557 211.5862068965 90.6798029557 204.0295566502 98.236453202 204.0295566502 98.236453202 196.4729064039 90.6798029557 196.4729064039 83.1231527094 196.4729064039"/>
      <polygon class="cls-1" points="173.8029556651 98.2364532019 166.2463054187 98.2364532019 166.2463054187 105.7931034483 173.8029556651 105.7931034483 181.3596059113 105.7931034483 181.3596059113 113.3497536946 181.3596059113 120.9064039409 188.9162561576 120.9064039409 188.9162561576 113.3497536946 196.4729064039 113.3497536946 204.0295566502 113.3497536946 204.0295566502 105.7931034483 196.4729064039 105.7931034483 188.9162561576 105.7931034483 188.9162561576 98.2364532019 181.3596059113 98.2364532019 173.8029556651 98.2364532019"/>
      <polygon class="cls-1" points="188.9162561576 120.9064039409 188.9162561576 128.4630541872 196.4729064039 128.4630541872 196.4729064039 136.0197044335 196.4729064039 143.5763546798 204.0295566502 143.5763546798 204.0295566502 136.0197044335 204.0295566502 128.4630541872 204.0295566502 120.9064039409 196.4729064039 120.9064039409 188.9162561576 120.9064039409"/>
      <rect class="cls-1" x="128.4630541872" y="181.3596059113" width="7.5566502463" height="7.5566502463"/>
      <polygon class="cls-1" points="173.8029556651 75.566502463 173.8029556651 83.1231527094 173.8029556651 90.6798029557 181.3596059113 90.6798029557 181.3596059113 83.1231527094 188.9162561576 83.1231527094 188.9162561576 75.566502463 188.9162561576 68.0098522167 181.3596059113 68.0098522167 181.3596059113 60.4532019705 173.8029556651 60.4532019705 173.8029556651 68.0098522167 166.2463054187 68.0098522167 166.2463054187 75.566502463 173.8029556651 75.566502463"/>
      <polygon class="cls-1" points="188.9162561576 98.2364532019 196.4729064039 98.2364532019 204.0295566502 98.2364532019 204.0295566502 90.6798029557 196.4729064039 90.6798029557 196.4729064039 83.1231527094 188.9162561576 83.1231527094 188.9162561576 90.6798029557 188.9162561576 98.2364532019"/>
      <rect class="cls-1" x="136.0197044335" y="188.9162561576" width="7.5566502463" height="7.5566502463"/>
      <polygon class="cls-1" points="143.5763546798 83.1231527094 143.5763546798 90.6798029557 151.1330049261 90.6798029557 158.6896551724 90.6798029557 166.2463054187 90.6798029557 166.2463054187 83.1231527094 158.6896551724 83.1231527094 158.6896551724 75.566502463 151.1330049261 75.566502463 151.1330049261 83.1231527094 143.5763546798 83.1231527094"/>
      <polygon class="cls-1" points="151.1330049261 98.2364532019 143.5763546798 98.2364532019 143.5763546798 105.7931034483 151.1330049261 105.7931034483 158.6896551724 105.7931034483 158.6896551724 98.2364532019 151.1330049261 98.2364532019"/>
      <rect class="cls-1" x="128.4630541872" y="90.6798029557" width="7.5566502463" height="7.5566502463"/>
      <rect class="cls-1" x="136.0197044335" y="158.6896551724" width="7.5566502463" height="7.5566502463"/>
      <rect class="cls-1" x="120.9064039409" y="143.5763546798" width="7.5566502463" height="7.5566502464"/>
      <rect class="cls-1" x="158.6896551724" y="60.4532019705" width="7.5566502463" height="7.5566502463"/>
      <polygon class="cls-1" points="113.3497536946 120.9064039409 105.7931034483 120.9064039409 105.7931034483 128.4630541872 113.3497536946 128.4630541872 120.9064039409 128.4630541872 120.9064039409 120.9064039409 113.3497536946 120.9064039409"/>
      <rect class="cls-1" x="128.4630541872" y="120.9064039409" width="7.5566502463" height="7.5566502463"/>
      <polygon class="cls-1" points="128.4630541872 181.3596059113 128.4630541872 173.802955665 136.0197044335 173.802955665 136.0197044335 166.2463054187 128.4630541872 166.2463054187 128.4630541872 158.6896551724 120.9064039409 158.6896551724 120.9064039409 166.2463054187 113.3497536946 166.2463054187 113.3497536946 158.6896551724 105.7931034483 158.6896551724 98.236453202 158.6896551724 90.6798029557 158.6896551724 90.6798029557 166.2463054187 98.236453202 166.2463054187 98.236453202 173.802955665 90.6798029557 173.802955665 90.6798029557 181.3596059113 90.6798029557 188.9162561576 98.236453202 188.9162561576 98.236453202 181.3596059113 105.7931034483 181.3596059113 105.7931034483 173.802955665 113.3497536946 173.802955665 113.3497536946 181.3596059113 105.7931034483 181.3596059113 105.7931034483 188.9162561576 113.3497536946 188.9162561576 120.9064039409 188.9162561576 120.9064039409 181.3596059113 128.4630541872 181.3596059113"/>
      <rect class="cls-1" x="128.4630541872" y="151.1330049261" width="7.5566502463" height="7.5566502463"/>
      <polygon class="cls-1" points="120.9064039409 90.6798029557 128.4630541872 90.6798029557 128.4630541872 83.1231527094 136.0197044335 83.1231527094 136.0197044335 75.566502463 143.5763546798 75.566502463 151.1330049261 75.566502463 151.1330049261 68.0098522167 151.1330049261 60.4532019705 158.6896551724 60.4532019705 158.6896551724 52.8965517241 158.6896551724 45.3399014778 151.1330049261 45.3399014778 151.1330049261 52.8965517241 143.5763546798 52.8965517241 143.5763546798 60.4532019705 136.0197044335 60.4532019705 128.4630541872 60.4532019705 120.9064039409 60.4532019705 113.3497536946 60.4532019705 105.7931034483 60.4532019705 105.7931034483 68.0098522167 113.3497536946 68.0098522167 120.9064039409 68.0098522167 120.9064039409 75.566502463 113.3497536946 75.566502463 113.3497536946 83.1231527094 105.7931034483 83.1231527094 105.7931034483 90.6798029557 113.3497536946 90.6798029557 113.3497536946 98.2364532019 120.9064039409 98.2364532019 120.9064039409 90.6798029557"/>
      <polygon class="cls-1" points="143.5763546798 37.7832512315 151.1330049261 37.7832512315 158.6896551724 37.7832512315 158.6896551724 30.2266009852 151.1330049261 30.2266009852 143.5763546798 30.2266009852 136.0197044335 30.2266009852 136.0197044335 22.6699507389 128.4630541872 22.6699507389 128.4630541872 30.2266009852 128.4630541872 37.7832512315 136.0197044335 37.7832512315 143.5763546798 37.7832512315"/>
      <polygon class="cls-1" points="90.6798029557 15.1133004926 98.236453202 15.1133004926 98.236453202 7.5566502463 90.6798029557 7.5566502463 83.1231527094 7.5566502463 83.1231527094 15.1133004926 75.5665024631 15.1133004926 75.5665024631 7.5566502463 75.5665024631 0 68.0098522168 0 68.0098522168 7.5566502463 60.4532019705 7.5566502463 60.4532019705 15.1133004926 68.0098522168 15.1133004926 68.0098522168 22.6699507389 60.4532019705 22.6699507389 60.4532019705 30.2266009852 68.0098522168 30.2266009852 75.5665024631 30.2266009852 75.5665024631 22.6699507389 83.1231527094 22.6699507389 83.1231527094 30.2266009852 90.6798029557 30.2266009852 90.6798029557 22.6699507389 90.6798029557 15.1133004926"/>
      <polygon class="cls-1" points="75.5665024631 37.7832512315 75.5665024631 45.3399014778 75.5665024631 52.8965517241 83.1231527094 52.8965517241 83.1231527094 45.3399014778 83.1231527094 37.7832512315 83.1231527094 30.2266009852 75.5665024631 30.2266009852 75.5665024631 37.7832512315"/>
      <path class="cls-1" d="m211.5862068966,143.5763546798h-7.5566502464v7.5566502464h-7.5566502463v7.5566502463h-7.5566502463v-7.5566502463h-7.5566502463v-7.5566502464h7.5566502463v-15.1133004926h-7.5566502463v-7.5566502463h-7.5566502463v7.5566502463h-22.669950739v-7.5566502463h22.669950739v-7.5566502463h-7.5566502464v-7.5566502463h-7.5566502463v7.5566502463h-15.1133004926v-7.5566502463h-15.1133004927v-7.5566502464h-7.5566502463v7.5566502464h-7.5566502463v-7.5566502464h-22.6699507389v7.5566502464h7.5566502463v7.5566502463h-7.5566502463v15.1133004926h7.5566502463v-7.5566502463h7.5566502463v-7.5566502463h30.2266009852v7.5566502463h7.5566502463v7.5566502463h-7.5566502463v7.5566502463h15.1133004926v7.5566502463h15.1133004926v-7.5566502463h7.5566502464v15.1133004926h-30.2266009852v7.5566502463h7.5566502463v7.5566502463h-7.5566502463v7.5566502463h-7.5566502463v7.5566502463h15.1133004926v15.1133004926h-7.5566502463v7.5566502463h7.5566502463v7.5566502463h30.2266009852v7.5566502464h7.5566502463v-7.5566502464h7.5566502463v-7.5566502463h7.5566502463v7.5566502463h7.5566502464v-15.1133004926h7.5566502463v-7.5566502463h-7.5566502463v-7.5566502463h-15.1133004926v7.5566502463h-7.5566502463v7.5566502463h-30.2266009852v-7.5566502463h30.2266009852v-15.1133004926h15.1133004926v-7.5566502463h15.1133004926v-15.1133004925h-7.5566502463v-7.5566502464Zm-30.2266009853,37.7832512315h-22.6699507389v-22.6699507389h22.6699507389v22.6699507389Z"/>
      <rect class="cls-1" x="120.9064039409" y="15.1133004926" width="7.5566502463" height="7.5566502464"/>
      <rect class="cls-1" x="166.2463054187" y="166.2463054187" width="7.5566502464" height="7.5566502463"/>
      <rect class="cls-1" x="143.5763546798" y="15.1133004926" width="7.5566502463" height="7.5566502464"/>
      <rect class="cls-1" x="211.5862068966" y="128.4630541872" width="7.5566502463" height="7.5566502463"/>
      <polygon class="cls-1" points="90.6798029557 83.1231527094 98.236453202 83.1231527094 98.236453202 75.566502463 90.6798029557 75.566502463 83.1231527094 75.566502463 83.1231527094 83.1231527094 75.5665024631 83.1231527094 75.5665024631 75.566502463 75.5665024631 68.0098522167 83.1231527094 68.0098522167 83.1231527094 60.4532019705 75.5665024631 60.4532019705 68.0098522168 60.4532019705 60.4532019705 60.4532019705 52.8965517241 60.4532019705 45.3399014778 60.4532019705 45.3399014778 68.0098522167 52.8965517241 68.0098522167 60.4532019705 68.0098522167 60.4532019705 75.566502463 52.8965517241 75.566502463 45.3399014778 75.566502463 45.3399014778 83.1231527094 52.8965517241 83.1231527094 60.4532019705 83.1231527094 68.0098522168 83.1231527094 68.0098522168 90.6798029557 68.0098522168 98.2364532019 68.0098522168 105.7931034483 60.4532019705 105.7931034483 60.4532019705 113.3497536946 68.0098522168 113.3497536946 75.5665024631 113.3497536946 75.5665024631 120.9064039409 75.5665024631 128.4630541872 83.1231527094 128.4630541872 83.1231527094 120.9064039409 83.1231527094 113.3497536946 83.1231527094 105.7931034483 83.1231527094 98.2364532019 75.5665024631 98.2364532019 75.5665024631 90.6798029557 83.1231527094 90.6798029557 83.1231527094 98.2364532019 90.6798029557 98.2364532019 90.6798029557 90.6798029557 90.6798029557 83.1231527094"/>
      <rect class="cls-1" x="211.5862068966" y="98.2364532019" width="7.5566502463" height="7.5566502464"/>
      <rect class="cls-1" x="136.0197044335" y="45.3399014778" width="7.5566502463" height="7.5566502463"/>
      <rect class="cls-1" x="204.0295566502" y="83.1231527094" width="7.5566502464" height="7.5566502463"/>
      <rect class="cls-1" x="188.9162561576" y="60.4532019705" width="7.5566502463" height="7.5566502463"/>
      <rect class="cls-1" x="204.0295566502" y="113.3497536946" width="7.5566502464" height="7.5566502463"/>
      <polygon class="cls-1" points="98.236453202 52.8965517241 98.236453202 45.3399014778 90.6798029557 45.3399014778 90.6798029557 52.8965517241 90.6798029557 60.4532019705 90.6798029557 68.0098522167 98.236453202 68.0098522167 98.236453202 60.4532019705 105.7931034483 60.4532019705 105.7931034483 52.8965517241 98.236453202 52.8965517241"/>
      <rect class="cls-1" x="45.3399014778" y="105.7931034483" width="7.5566502463" height="7.5566502463"/>
      <polygon class="cls-1" points="105.7931034483 52.8965517241 113.3497536946 52.8965517241 113.3497536946 45.3399014778 120.9064039409 45.3399014778 120.9064039409 52.8965517241 128.4630541872 52.8965517241 128.4630541872 45.3399014778 128.4630541872 37.7832512315 120.9064039409 37.7832512315 120.9064039409 30.2266009852 113.3497536946 30.2266009852 105.7931034483 30.2266009852 98.236453202 30.2266009852 90.6798029557 30.2266009852 90.6798029557 37.7832512315 98.236453202 37.7832512315 98.236453202 45.3399014778 105.7931034483 45.3399014778 105.7931034483 52.8965517241"/>
      <polygon class="cls-1" points="136.0197044335 7.5566502463 143.5763546798 7.5566502463 151.1330049261 7.5566502463 151.1330049261 15.1133004926 158.6896551724 15.1133004926 158.6896551724 7.5566502463 158.6896551724 0 151.1330049261 0 143.5763546798 0 136.0197044335 0 128.4630541872 0 120.9064039409 0 113.3497536946 0 113.3497536946 7.5566502463 120.9064039409 7.5566502463 128.4630541872 7.5566502463 128.4630541872 15.1133004926 136.0197044335 15.1133004926 136.0197044335 7.5566502463"/>
    </g>
  </g>
</svg>