<?xml version="1.0" encoding="utf-8"?>
<!-- Generator: Adobe Illustrator 27.2.0, svg Export Plug-In . svg Version: 6.00 Build 0)  -->
<svg version="1.1" id="Layer_1" xmlns="http://www.w3.org/2000/svg" xmlns:xlink="http://www.w3.org/1999/xlink" x="0px" y="0px"
	 viewBox="0 0 800 800" style="enable-background:new 0 0 800 800;" xml:space="preserve">
<style type="text/css">
	.st0{fill:#FFFFFF;}
</style>
<path class="st0" d="M334.5,602.3c46,0,91.2-11.8,131.3-34.5l111.1,111.1c28.2,28.2,73.9,28.2,102,0c28.2-28.2,28.2-73.9,0-102
	L567.8,465.8c72.6-128.8,27-292.1-101.9-364.7c-104.7-59-235.9-41-320.8,44c-104.6,104.6-104.6,274.1,0,378.7
	C195.4,574.1,263.5,602.3,334.5,602.3z M192.3,192.3c78.6-78.5,205.9-78.5,284.4,0.1s78.5,205.9-0.1,284.4s-205.9,78.5-284.4-0.1
	c-37.7-37.7-58.9-88.8-58.9-142.2C133.2,281.1,154.4,229.9,192.3,192.3z M201.2,334.5c0-18.4,14.9-33.3,33.3-33.3h66.7v-66.7
	c0-18.4,14.9-33.3,33.3-33.3c18.4,0,33.3,14.9,33.3,33.3v66.7h66.7c18.4,0,33.3,14.9,33.3,33.3c0,18.4-14.9,33.3-33.3,33.3h-66.7
	v66.7c0,18.4-14.9,33.3-33.3,33.3c-18.4,0-33.3-14.9-33.3-33.3v-66.7h-66.7C216.1,367.8,201.2,352.9,201.2,334.5L201.2,334.5z"/>
</svg>
