<?xml version="1.0" encoding="UTF-8"?>
<svg xmlns="http://www.w3.org/2000/svg" viewBox="0 0 211 211">
  <defs>
    <style>
      .cls-1 {
        stroke-width: 3.34px;
      }

      .cls-1, .cls-2, .cls-3, .cls-4, .cls-5, .cls-6, .cls-7, .cls-8 {
        stroke-miterlimit: 10;
      }

      .cls-1, .cls-5 {
        fill: #cae3ee;
        opacity: .76;
        stroke: #fff;
      }

      .cls-9 {
        fill: #b0aeaf;
        opacity: .52;
      }

      .cls-9, .cls-10, .cls-11, .cls-12, .cls-13, .cls-14, .cls-15, .cls-16 {
        stroke-width: 0px;
      }

      .cls-9, .cls-11, .cls-15 {
        mix-blend-mode: multiply;
      }

      .cls-10 {
        fill: #9a302e;
      }

      .cls-11 {
        opacity: .58;
      }

      .cls-11, .cls-6 {
        fill: #1a6935;
      }

      .cls-12 {
        fill: #fff;
        opacity: .64;
      }

      .cls-13 {
        fill: #601a19;
      }

      .cls-2 {
        stroke: #9a98cb;
      }

      .cls-2, .cls-3, .cls-7, .cls-8 {
        fill: none;
      }

      .cls-3 {
        mix-blend-mode: screen;
        stroke: #43b75b;
        stroke-width: 3px;
      }

      .cls-4 {
        stroke: #37346a;
      }

      .cls-4, .cls-15 {
        fill: #59589b;
      }

      .cls-4, .cls-6 {
        stroke-width: 2px;
      }

      .cls-14 {
        fill: #49c8f5;
      }

      .cls-15 {
        opacity: .5;
      }

      .cls-5 {
        stroke-width: 1.11px;
      }

      .cls-6 {
        stroke: #143f1e;
      }

      .cls-17 {
        isolation: isolate;
      }

      .cls-7 {
        stroke: #9a302e;
        stroke-width: 8px;
      }

      .cls-16 {
        fill: #d49829;
      }

      .cls-8 {
        stroke: #f3f3f3;
        stroke-width: 1.3px;
      }
    </style>
  </defs>
  <g class="cls-17">
    <g id="Layer_1" data-name="Layer 1">
      <g>
        <circle class="cls-14" cx="105.5" cy="105.5" r="105.5"/>
        <g>
          <path class="cls-6" d="M93.02,89.03v78.65c0,4.39-3.56,7.95-7.95,7.95h-28.47c-.44,0-.88-.04-1.3-.11-3.77-.62-6.65-3.89-6.65-7.84v-78.65c0-8.78,6.1-16.07,14.16-17.6v-24.35h16.05v24.35c8.05,1.53,14.16,8.82,14.16,17.6Z"/>
          <path class="cls-11" d="M80.31,39.96v7.12h-1.45v4.44l-.04.03s-10.52-2.05-11.52,2.95,1,19-2,21-10,6-10,29v71.02c-3.77-.62-6.65-3.89-6.65-7.84v-78.65c0-8.78,6.1-16.07,14.16-17.6v-24.35h-1.45v-.87l8.94-6.71,10.01.46Z"/>
          <path class="cls-4" d="M80.31,30.12v16.96h-18.95v-16.96c0-4.42,3.46-8,7.73-8h3.48c4.28,0,7.74,3.58,7.74,8Z"/>
          <rect class="cls-16" x="71.3" y="101.5" width="22.54" height="45"/>
          <path class="cls-15" d="M71.12,22.12c-1.94,3.98-3.82,9.6-3.82,16.38,0,3.51-.06,6.33-.16,8.58h-5.78v-16.96c0-4.42,3.46-8,7.73-8h2.03Z"/>
          <g>
            <path class="cls-1" d="M163,102.72l-.04.09-.79,3.95c-.71,2.07-.84,2.36-2.22,4.45-2.46,3.72-5.68,6.84-8.86,9.33-2.82,2.21-5.61,3.94-7.82,5.15-1.23.68-2.28,1.2-3.05,1.57-.89.42-1.4.63-1.4.63,0,0-1.91-.8-4.81-2.62h-.01c-2.22-1.4-5.04-3.4-8.02-6.09-.01-.02-.03-.03-.04-.04-2.71-2.45-5.57-5.47-8.27-9.15-1.45-1.99-2.46-4.06-3.11-6.14h-.02c-.07-.19-.12-.4-.19-.6-.02-.13-.07-.27-.11-.4-2.72-10.06,2.11-20.15,3.22-22.27.12-.27.21-.41.21-.41h1.39s4.97.07,4.97.07h.74s1.81.03,1.81.03h.13l10.77.1h.96l20.9-.2s.09.14.23.41c1.17,2.1,6.22,12.13,3.42,22.16Z"/>
            <rect class="cls-5" x="137.2" y="122.86" width="2.86" height="46.35"/>
            <path class="cls-5" d="M155.7,177.5h-34.13s3.26-7.69,17.08-8.27c.2-.01.41-.02.62-.02.27-.01.53-.01.79-.01,12.49.01,15.64,8.31,15.64,8.31Z"/>
            <path class="cls-10" d="M162.72,103.29c.18,1.87-4.88,11-11.64,17.24-2.43,2.26-5.1,4.14-7.82,5.15-.32.12-.66.23-.98.33h-.01c-.7.21-1.4.36-2.1.44h-.01c-.27.02-.52.03-.79.03-.27.01-.53.01-.8,0-.13,0-.26,0-.39-.01-.18-.02-.34-.04-.53-.08h-.03c-.06-.01-.1-.02-.16-.03-.5-.08-1-.2-1.49-.36t-.03-.01c-.64-.19-1.3-.44-1.93-.74h-.01c-.5-.23-.99-.49-1.48-.77-2.32-1.32-4.53-3.21-6.54-5.33-.01-.02-.03-.03-.04-.04-6.03-6.33-10.37-14.6-10.95-15.71-.04-.09-.07-.12-.07-.12,0,0,.3-.02.88-.06,1.18-.07,3.49-.2,6.48-.37,1.72-.09,3.66-.19,5.75-.29,3.02-.13,6.31-.28,9.65-.39.31-.01.63-.01.96-.03,6.97-.21,13.96-.3,18.61-.06h.09c.46.02.88.06,1.28.09,1.48.12,2.61.3,3.31.53.31.11.53.21.66.37.01,0,.01.01.02.01.03.03.04.04.07.08.03.04.06.08.06.11Z"/>
            <path class="cls-13" d="M162.71,103.29c0,.19-.39.39-1.13.57-3.07.74-12.11,1.29-22.77,1.29h-1.14c-3.26-.02-6.35-.07-9.14-.19-5.96-.21-10.56-.62-12.55-1.12h-.02c-.54-.14-.87-.28-.99-.43-.05-.09-.07-.12-.07-.12,0-.16.27-.32.77-.46,1.71-.53,6.2-.96,12.16-1.19,2.96-.12,6.28-.19,9.81-.21h1.16c7.42,0,14.04.27,18.42.67h.07c2.12.21,3.71.44,4.58.71.34.09.57.19.71.28.03.04.05.05.07.09.03.04.05.07.05.11Z"/>
            <path class="cls-9" d="M135.6,126c-1.22-.34,1.62.86.44.21h3.34l-1.01.27h0s.02,3.31.02,3.31l.26,39.41h-1.45v-42.76c-.46.08-1.01-.11-1.57-.43t-.03-.01Z"/>
            <path class="cls-9" d="M138.26,170.68l-4.45,1.11c-5.56,2.22-6.5,3.15-9.71,5.7h-2.55s3.26-7.69,17.08-8.27l-.38,1.46Z"/>
            <path class="cls-8" d="M159.88,80.39c0,.06-.1.12-.3.18-1.71.48-10.48.84-21.06.84h-1.05c-4.38-.01-8.44-.09-11.73-.21-.69-.02-1.35-.06-1.97-.08-3.26-.14-5.54-.33-6.33-.56-.19-.06-.3-.12-.3-.18,0-.09.18-.16.51-.23.98-.21,3.3-.4,6.5-.54h.03c3.79-.18,8.81-.27,14.32-.27,10.16,0,18.67.33,20.82.81.36.08.53.14.53.23Z"/>
            <path class="cls-9" d="M140.22,127.25c-.89.42-1.4.63-1.4.63,0,0-1.91-.8-4.81-2.62h-.01c-.5-.23-.99-.49-1.48-.77-2.32-1.32-4.53-3.21-6.54-5.33-.01-.02-.03-.03-.04-.04-2.71-2.45-5.57-5.47-8.27-9.15-1.45-1.99-2.46-4.06-3.11-6.14h-.02c-.07-.19-.12-.4-.19-.6-.02-.13-.07-.27-.11-.4-2.72-10.06,2.11-20.15,3.22-22.27-.19-.06-.3-.12-.3-.18,0-.09.18-.7.51-.78.98-.21,3.3.14,6.5,0h.03c-.06.19-.11.4-.18.61-.08.28-.16.58-.24.9-1.29,4.85-3.05,13.48-1.69,20.83.06.31.11.61.19.91.13.61.29,1.21.48,1.79.28.92.63,1.81,1.06,2.66,4.09,8.17,11.77,15.74,15.57,19.18.31.29.59.53.84.76Z"/>
            <path class="cls-12" d="M150.09,80.53s4.3,19.56-1.26,30.68c-5.56,11.12-11.12,17.79-11.12,17.79,0,0,10.01-4.45,15.57-16.68,5.56-12.23,2.07-32.39,2.07-32.39l-5.26.61Z"/>
          </g>
          <path class="cls-2" d="M74.3,23.5s5,0,4.5,10.5c-.48,9.99,0,11,0,11"/>
          <path class="cls-3" d="M76.59,51.8v22.2s14.21,1,14.21,18v77"/>
          <g>
            <line class="cls-7" x1="51.8" y1="178" x2="165.8" y2="39"/>
            <circle class="cls-7" cx="105.5" cy="105.5" r="91"/>
          </g>
        </g>
      </g>
    </g>
  </g>
</svg>