<?xml version="1.0" encoding="UTF-8"?>
<svg xmlns="http://www.w3.org/2000/svg" viewBox="0 0 211 211">
  <defs>
    <style>
      .cls-1 {
        fill: #92cbdf;
      }

      .cls-1, .cls-2, .cls-3, .cls-4, .cls-5 {
        stroke-width: 0px;
      }

      .cls-2 {
        fill: #99c9da;
        mix-blend-mode: multiply;
      }

      .cls-3 {
        fill: #49c8f5;
      }

      .cls-6 {
        stroke: #fff;
        stroke-width: 3px;
      }

      .cls-6, .cls-7 {
        stroke-miterlimit: 10;
      }

      .cls-6, .cls-7, .cls-4 {
        fill: #cae3ee;
        opacity: .76;
      }

      .cls-7 {
        stroke: #5fa3af;
        stroke-width: 2.35px;
      }

      .cls-8 {
        isolation: isolate;
      }

      .cls-5 {
        fill: #fff;
      }
    </style>
  </defs>
  <g class="cls-8">
    <g id="Layer_1" data-name="Layer 1">
      <g>
        <circle class="cls-3" cx="105.5" cy="105.5" r="105.5"/>
        <g>
          <path class="cls-7" d="M162.31,41.3l-.03.16c-.91,2.73-26.25,4.92-57.37,4.92s-56.55-2.19-57.38-4.93l-.02-.14c0-2.8,25.69-5.07,57.4-5.07s57.4,2.27,57.4,5.07Z"/>
          <path class="cls-6" d="M162.28,38.59l-15.14,125.8-1.09,9.22c-44.7,30.87-84.32,0-84.32,0l-14.19-135.06c.41,2.1,6.56,3.99,16.32,5.38,10.41,1.51,24.95,2.42,41.04,2.42,31.13,0,56.47-3.46,57.39-7.78Z"/>
          <path class="cls-4" d="M60.54,106.28l6.1,63.62s31.49,19.76,74.17,0l8.13-63.62H60.54Z"/>
          <ellipse class="cls-1" cx="104.73" cy="106.28" rx="44.19" ry="4.32"/>
          <path class="cls-5" d="M63.26,46.57c-.17-.08-.45-.09-.52-.29,0-.16.23-.13.32-.14,1.4,0,4.03.31,5.45.43,30.37,3.32,61.18,4.02,90.84-4.44-26.91,16.18-62.03,15.49-91.18,6.03-1.33-.44-3.81-1.37-5.13-1.79-.06-.02-.13-.03-.16-.03,0,0,.02,0,.03-.06-.01-.05,0-.02,0-.02.1.12.24.2.36.3h0Z"/>
          <path class="cls-5" d="M148.59,45.58c.07,22.29-1.66,44.44-3.86,66.58-2.33,22.13-5.13,44.17-9.74,65.98-.08-22.29,1.65-44.44,3.86-66.58,2.35-22.12,5.14-44.16,9.74-65.98h0Z"/>
          <path class="cls-2" d="M147.14,164.39l-1.09,9.22c-44.7,30.87-84.32,0-84.32,0l-14.19-135.06c.41,2.1,6.56,3.99,16.32,5.38.95,4.02,2.04,31.75,4.58,59.87.09.83.18,1.66.24,2.48.09.83.18,1.69.24,2.51,2.66,27.2,6.77,53.43,13.57,57.51,11.35,6.8,44.23,1.86,58.89-.83,2.54-.44,4.52-.83,5.77-1.09Z"/>
        </g>
      </g>
    </g>
  </g>
</svg>