<?xml version="1.0" encoding="UTF-8"?>
<svg xmlns="http://www.w3.org/2000/svg" viewBox="0 0 211 211">
  <defs>
    <style>
      .cls-1 {
        fill: #b0aeaf;
        mix-blend-mode: multiply;
        opacity: .52;
      }

      .cls-1, .cls-2, .cls-3, .cls-4, .cls-5, .cls-6, .cls-7 {
        stroke-width: 0px;
      }

      .cls-8 {
        stroke-width: 2px;
      }

      .cls-8, .cls-9 {
        fill: #cae3ee;
        stroke: #fff;
      }

      .cls-8, .cls-9, .cls-10 {
        opacity: .76;
      }

      .cls-8, .cls-9, .cls-11 {
        stroke-miterlimit: 10;
      }

      .cls-2, .cls-12 {
        opacity: .64;
      }

      .cls-2, .cls-6 {
        fill: #fff;
      }

      .cls-3 {
        fill: #49c8f5;
      }

      .cls-9 {
        stroke-width: 3px;
      }

      .cls-4 {
        fill: #edf8fe;
      }

      .cls-13 {
        isolation: isolate;
      }

      .cls-5, .cls-11 {
        fill: #3a9ac1;
      }

      .cls-11 {
        stroke: #127f9f;
      }

      .cls-7 {
        fill: #00b8d7;
      }
    </style>
  </defs>
  <g class="cls-13">
    <g id="Layer_1" data-name="Layer 1">
      <g>
        <circle class="cls-3" cx="105.5" cy="105.5" r="105.5"/>
        <g>
          <rect class="cls-8" x="89.81" y="41.13" width="31.46" height="8.33"/>
          <path class="cls-9" d="M143.93,168.87v15.72s0,8.33-12.03,8.33h-52.73c-12.02,0-12.02-8.33-12.02-8.33v-15.72c0-1.85,1.85-2.78,2.77-4.63.33-.65.2-1.52-.11-2.39-1.08-3.07-1.77-6.26-1.81-9.52-.19-18.14-.68-68.9.07-70.42.93-1.85,1.85-3.7.93-4.63-.93-.92-1.85-3.7-.93-9.25.93-5.55,1.85-6.47,5.55-9.25,3.7-2.77,12.96-8.32,12.96-8.32l6.29.04,10.2.06,21.43-.1s9.25,5.55,12.95,8.32c3.7,2.78,4.63,3.7,5.55,9.25.93,5.55,0,8.33-.92,9.25-.93.93,0,2.78.92,4.63.76,1.52.27,52.28.08,70.42-.04,3.26-.73,6.45-1.81,9.52-.31.87-.44,1.74-.12,2.39.93,1.85,2.78,2.78,2.78,4.63Z"/>
          <polygon class="cls-4" points="143 81.91 143 142.06 67.07 142.06 67.18 134.79 67.95 81.91 143 81.91"/>
          <ellipse class="cls-5" cx="105.04" cy="104.56" rx="24.51" ry="10.18"/>
          <g class="cls-10">
            <path class="cls-6" d="M69.92,164.24c20.72.55,41.56.37,62.29.02,2.98-.01,5.95-.1,8.94-.02-11.73,2.33-23.67,3.21-35.61,3.34-11.93-.06-23.95-.67-35.62-3.34h0Z"/>
          </g>
          <polygon class="cls-7" points="143 134.79 143 142.06 67.07 142.06 67.18 134.79 143 134.79"/>
          <polygon class="cls-7" points="143 83.79 143 91.06 67.07 91.06 67.18 83.79 143 83.79"/>
          <path class="cls-2" d="M117.87,42.29v9s10,8,12,17c.02.09.04.18.06.27,1.12,5.44-2.91,10.6-8.46,10.94l-12.6.79s19,0,19,2v71s.15,8.21-2.92,12.1c0,0,2.92,1.9,2.92,5.9v20s10,0,12-2c0,0,2-20-2-25v-84h0s2.82-8.07,2-13c-1-6-18.6-17.83-18.6-17.83l-1.4-7.17h-2Z"/>
          <path class="cls-1" d="M86.87,188.29c3.51,1.5,14.8,3.26,25.19,4.63h-32.89c-12.02,0-12.02-8.33-12.02-8.33v-15.72c0-1.85,1.85-2.78,2.77-4.63.33-.65.2-1.52-.11-2.39-1.08-3.07-1.77-6.26-1.81-9.52-.19-18.14-.68-68.9.07-70.42.93-1.85,1.85-3.7.93-4.63-.93-.92-1.85-3.7-.93-9.25.93-5.55,1.85-6.47,5.55-9.25,3.7-2.77,12.96-8.32,12.96-8.32l6.29.04v.79s-15,12-15,19v9l27,2-26.91.91v72.09s1.91,6,1.91,9-2.64,2.02-2.64,2.02c0,0,2.64,2.98,2.64,5.98s0,14,7,17Z"/>
          <polygon class="cls-1" points="121.27 41.13 121.27 45.29 92.87 45.29 92.87 49.46 89.81 49.46 89.81 41.13 121.27 41.13"/>
          <path class="cls-11" d="M124.5,25.13v17h-37.92v-17c0-3.75,2.92-6.82,6.62-7.03.14-.02.28-.02.42-.02h23.83c3.9,0,7.05,3.16,7.05,7.05Z"/>
          <path class="cls-1" d="M124.5,38.77v3.36h-37.92v-17c0-3.75,2.92-6.82,6.62-7.03-.22,6.19-.01,18.92,6.17,19.69,6.13.77,19.31.95,25.13.98Z"/>
          <g class="cls-12">
            <path class="cls-6" d="M106.87,19.29c3.68-.27,7.36-.38,11.05-.45,4.19,1,5.76,4.82,5.4,8.8-.07,3.55-.19,7.11-.45,10.65-.38-4.4-.3-8.85-.58-13.25-.16-2.48-2.44-4.8-4.42-5.3-3.67-.07-7.34-.19-11-.45h0Z"/>
          </g>
        </g>
      </g>
    </g>
  </g>
</svg>