<?xml version="1.0" encoding="UTF-8"?>
<svg xmlns="http://www.w3.org/2000/svg" xmlns:xlink="http://www.w3.org/1999/xlink" viewBox="0 0 211 211">
  <defs>
    <style>
      .cls-1, .cls-2, .cls-3, .cls-4, .cls-5, .cls-6, .cls-7, .cls-8 {
        stroke-width: 0px;
      }

      .cls-1, .cls-9 {
        fill: #fcc29c;
      }

      .cls-10 {
        clip-path: url(#clippath);
      }

      .cls-2 {
        fill: none;
      }

      .cls-11 {
        fill: #5eb260;
        stroke: #3c8a41;
        stroke-width: 3px;
      }

      .cls-11, .cls-9, .cls-12 {
        stroke-miterlimit: 10;
      }

      .cls-3 {
        fill: #4fc8ee;
      }

      .cls-4, .cls-12 {
        fill: #0079bd;
      }

      .cls-4, .cls-7 {
        mix-blend-mode: multiply;
      }

      .cls-9 {
        stroke: #45140d;
        stroke-width: 2px;
      }

      .cls-5 {
        fill: #84d0d4;
      }

      .cls-6 {
        fill: #3b8c42;
      }

      .cls-12 {
        stroke: #00557d;
        stroke-width: 3.07px;
      }

      .cls-7 {
        fill: #c8a8c6;
        opacity: .48;
      }

      .cls-13 {
        isolation: isolate;
      }

      .cls-8 {
        fill: #45140d;
      }
    </style>
    <clipPath id="clippath">
      <circle class="cls-2" cx="105.5" cy="105.5" r="100"/>
    </clipPath>
  </defs>
  <g class="cls-13">
    <g id="Layer_1" data-name="Layer 1">
      <g>
        <circle class="cls-5" cx="105.5" cy="105.5" r="105.5"/>
        <g class="cls-10">
          <path class="cls-11" d="M192.77,55.44c-1.85,17.82-7.92,76.96-8.77,95.56-.35,7.6-.45,14.6-.44,20.51-18.43,22-46.11,35.99-77.06,35.99-26.52,0-50.65-10.28-68.6-27.07-.15-20.29.61-50.26,1.1-77.43.5-27.5,9.81-62.13,16.61-82.67,14.93-8.79,32.32-13.83,50.89-13.83,36.65,0,68.73,19.63,86.27,48.94Z"/>
          <circle class="cls-2" cx="105.5" cy="106.5" r="101"/>
          <path class="cls-6" d="M133.72,44.38l18.42,38.41,9.36,10.71s-3,48-5,53-7,12-7,12l-.52,41.1-24.48,14.9-9.2-30.16s5.64-148.07,18.42-139.96Z"/>
          <path class="cls-12" d="M157.71,93.45l-5.31,43.13c-.48,3.91-3.03,7.03-6.38,8.44-1.91.81-4.08,1.06-6.27.6l-67.76-14.32-22.64-4.78c-2.96-.62-5.14-3.12-5.35-6.13-.37-5.29-.57-13.94,1-22.39,1.63-8.79,7.5-33.5,12.5-33.5,3.99,0,66.12,11.76,91.16,16.53,5.82,1.1,9.78,6.54,9.05,12.42Z"/>
          <path class="cls-4" d="M145.76,144.31c-.02.26.18.48.26.71-1.91.81-4.08,1.06-6.27.6l-67.76-14.32s.01-.03.02-.04c.9-2.3,6.49-61.76,6.49-61.76l70.16,11.53s-2.16,52.47-2.9,63.28Z"/>
          <path class="cls-9" d="M143.5,95.5c-4,37-7.87,122.64-30,123-5.33.09-10.45-.12-15.36-.57-52.15-4.72-80.09-36.66-79.64-36.43,0,0,32.69-4.9,59.06-7.88.45-12.42,2.94-82.73,2.94-99.12,0-8.83,2.88-16.69,5.83-22.41,4.65-9.05,13.43-15.43,23.55-16.43.4-.04.8-.07,1.21-.09,2.75-.15,5.45.16,8.02.87,6.36,1.76,11.93,5.98,15.5,11.78,4.98,8.07,11.45,23.57,8.89,47.28Z"/>
          <g>
            <path class="cls-1" d="M58.96,175.92c1.54-.42,41.54-4.42,41.54-4.42"/>
            <path class="cls-8" d="M58.96,175.92c13.6-3.1,27.6-4.34,41.54-4.42-13.67,2.82-27.6,4.04-41.54,4.42h0Z"/>
          </g>
          <path class="cls-3" d="M77,71c-6.74-.46-13.44-1.23-20.13-2.11,0,0,.92-.45.92-.45-1.43,2.86-2.74,5.89-3.85,8.95-3.49,9.21-5.64,18.84-6.94,28.61-.3-9.97,1.61-19.96,5.06-29.31,1.27-3.31,2.65-6.57,4.46-9.69,6.86,1.15,13.7,2.41,20.48,3.99h0Z"/>
          <path class="cls-7" d="M143.5,95.5c-4,37-7.87,122.64-30,123-5.33.09-10.45-.12-15.36-.57,9.9-13.14,20.41-35.81,26.86-74.93,10.99-66.67.51-95.77-5.89-106.56,6.36,1.76,11.93,5.98,15.5,11.78,4.98,8.07,11.45,23.57,8.89,47.28Z"/>
        </g>
      </g>
    </g>
  </g>
</svg>