<?xml version="1.0" encoding="UTF-8"?>
<svg xmlns="http://www.w3.org/2000/svg" xmlns:xlink="http://www.w3.org/1999/xlink" viewBox="0 0 211 211">
  <defs>
    <style>
      .cls-1 {
        fill: #d09d8f;
      }

      .cls-1, .cls-2, .cls-3, .cls-4, .cls-5, .cls-6, .cls-7, .cls-8 {
        stroke-width: 0px;
      }

      .cls-9 {
        clip-path: url(#clippath);
      }

      .cls-2, .cls-10 {
        fill: none;
      }

      .cls-11 {
        fill: #00a198;
        stroke: #def1f5;
        stroke-width: 5px;
      }

      .cls-11, .cls-10, .cls-12 {
        stroke-miterlimit: 10;
      }

      .cls-10 {
        stroke: #d09d8f;
        stroke-width: .58px;
      }

      .cls-12 {
        fill: #fcc29c;
        stroke: #45140d;
        stroke-width: 2px;
      }

      .cls-3 {
        fill: #84d0d4;
      }

      .cls-13 {
        opacity: .55;
      }

      .cls-4 {
        fill: #c8a8c6;
        opacity: .48;
      }

      .cls-4, .cls-7 {
        mix-blend-mode: multiply;
      }

      .cls-5 {
        fill: #8ed2ea;
      }

      .cls-5, .cls-8 {
        opacity: .82;
      }

      .cls-14 {
        isolation: isolate;
      }

      .cls-6 {
        fill: #fff;
      }

      .cls-7 {
        fill: #efcabc;
      }

      .cls-8 {
        fill: #00706f;
      }
    </style>
    <clipPath id="clippath">
      <circle class="cls-2" cx="104.98" cy="105.31" r="105"/>
    </clipPath>
  </defs>
  <g class="cls-14">
    <g id="Layer_1" data-name="Layer 1">
      <g>
        <circle class="cls-3" cx="105.52" cy="105.5" r="105.5"/>
        <g class="cls-9">
          <circle class="cls-11" cx="105.52" cy="105.5" r="89"/>
          <path class="cls-8" d="M177.77,105.5c0,24.18-11.88,45.59-30.12,58.7l-4.67-5.18c-18.73-13.38-31.22,1.78-31.22,1.78,0,2.68,3.63,6.48,3.63,6.48l.45,9.73c-3.37.48-6.82.73-10.33.73-4.06,0-8.05-.34-11.93-.98l-.86-9.48,2.97-3.81c-9.81-16.06-24.98-10.7-24.98-10.7,0,0-6.42,7.7-9.04,10.17-17.28-13.19-28.43-34.02-28.43-57.44,0-39.91,32.34-72.25,72.25-72.25s72.25,32.34,72.25,72.25Z"/>
          <g>
            <path class="cls-12" d="M96.83,159.86c0,7.3-4.68,13.21-4.68,13.21l-3.32,51.73H11.7s52.9-63.54,58.77-70.07c0,0-15.06-21.68-15.06-43.59.65-5.36,1.43-8.21,2.2-9.54v-.02c1.17-2.03,2.34-.47,3.13,1.26-.54-2.06-.77-4.91.84-7.3.51-.77,1.22-1.52,2.18-2.15,0,0,3.32-5.92,6.01-4.51,0,0,.96-4.19,4.44-3.13,0,0,1.78,1.38,2.1,5.22.33,3.84,2.41,7.32,3.46,4.54,1.03-2.78-4.86-6.97-1.75-11.83,3.13-4.89,8.7,1.03,10.45,5.57,1.45,3.79,5.38,37.37,6.99,53.74.05.28.07.56.09.84.26,2.71.47,4.89.56,6.29.7,9.75-2.08,1.05.7,9.75Z"/>
            <path class="cls-1" d="M60.72,102.8c.74,1.07,1.13,2.35,1.11,3.65-.74-1.07-1.13-2.35-1.11-3.65h0Z"/>
            <path class="cls-1" d="M63.77,93.4c.28,1.2.52,2.92.72,4.14.23,1.2.37,2.94.95,4.03-1.81-2.2-1.79-5.45-1.67-8.17h0Z"/>
            <path class="cls-1" d="M69.78,88.88c-.03,2.96.34,5.9,1.57,8.61-1.96-2.31-2.41-5.74-1.57-8.61h0Z"/>
            <path class="cls-10" d="M80.05,89.54s1.9.43,4.94-2.11c0,0-2.3-5.13-4.52-3.39-2.23,1.75-.42,5.5-.42,5.5Z"/>
            <path class="cls-7" d="M96.83,159.86c0,7.3-4.68,13.21-4.68,13.21l-3.32,51.73H11.7s52.9-63.54,58.77-70.07c0,0-15.06-21.68-15.06-43.59.65-5.36,1.43-8.21,2.2-9.54-.16.61-2.99,11.51,3.11,23.93,6.29,12.79,14.64,23.81,14.01,30.38-.2,1.91-23.18,38.07-35.9,57.97-1.08,1.69-.02,3.93,1.97,4.16,10.8,1.24,38.67,2.93,42.37-12.06,4.61-18.64,5.22-36.53,8.98-42.77,2.27-3.77,2.92-13,3.41-19.39.26,2.71.47,4.89.56,6.29.7,9.75-2.08,1.05.7,9.75Z"/>
            <path class="cls-6" d="M87.35,91.16c3.47,17.82,6.13,35.97,6.78,54.12-2.16-17.21-4.97-36.91-6.78-54.12h0Z"/>
          </g>
          <g>
            <path class="cls-12" d="M112.88,159.86c0,7.3,4.68,13.21,4.68,13.21l3.32,51.73h77.13s-52.9-63.54-58.77-70.07c0,0,15.06-21.68,15.06-43.59-.65-5.36-1.43-8.21-2.2-9.54v-.02c-1.17-2.03-2.34-.47-3.13,1.26.54-2.06.77-4.91-.84-7.3-.51-.77-1.22-1.52-2.18-2.15,0,0-3.32-5.92-6.01-4.51,0,0-.96-4.19-4.44-3.13,0,0-1.78,1.38-2.1,5.22-.33,3.84-2.41,7.32-3.46,4.54-1.03-2.78,4.86-6.97,1.75-11.83-3.13-4.89-8.7,1.03-10.45,5.57-1.45,3.79-5.38,37.37-6.99,53.74-.05.28-.07.56-.09.84-.26,2.71-.47,4.89-.56,6.29-.7,9.75,2.08,1.05-.7,9.75Z"/>
            <path class="cls-1" d="M148.99,102.8c.02,1.3-.37,2.58-1.11,3.65-.02-1.3.37-2.58,1.11-3.65h0Z"/>
            <path class="cls-1" d="M145.94,93.4c.12,2.72.13,5.97-1.67,8.17.59-1.08.73-2.83.95-4.03.2-1.23.44-2.94.72-4.14h0Z"/>
            <path class="cls-1" d="M139.93,88.88c.85,2.86.39,6.3-1.57,8.61,1.23-2.71,1.59-5.65,1.57-8.61h0Z"/>
            <path class="cls-10" d="M129.66,89.54s-1.9.43-4.94-2.11c0,0,2.3-5.13,4.52-3.39,2.23,1.75.42,5.5.42,5.5Z"/>
            <path class="cls-7" d="M112.88,159.86c0,7.3,4.68,13.21,4.68,13.21l3.32,51.73h77.13s-52.9-63.54-58.77-70.07c0,0,15.06-21.68,15.06-43.59-.65-5.36-1.43-8.21-2.2-9.54.16.61,2.99,11.51-3.11,23.93-6.29,12.79-14.64,23.81-14.01,30.38.2,1.91,23.18,38.07,35.9,57.97,1.08,1.69.02,3.93-1.97,4.16-10.8,1.24-38.67,2.93-42.37-12.06-4.61-18.64-5.22-36.53-8.98-42.77-2.27-3.77-2.92-13-3.41-19.39-.26,2.71-.47,4.89-.56,6.29-.7,9.75,2.08,1.05-.7,9.75Z"/>
            <path class="cls-6" d="M115.58,145.28c.66-18.15,3.31-36.3,6.78-54.12-1.81,17.19-4.63,36.93-6.78,54.12h0Z"/>
          </g>
          <path class="cls-5" d="M186.52,105.5c0,27.11-13.32,51.11-33.77,65.81l-5.23-5.81c-21-15-35,2-35,2,0,3,4.07,7.27,4.07,7.27l.51,10.91c-3.78.54-7.65.82-11.58.82-4.55,0-9.02-.38-13.37-1.1l-.96-10.63,3.33-4.27c-11-18-28-12-28-12,0,0-7.2,8.63-10.13,11.4-19.37-14.79-31.87-38.14-31.87-64.4,0-44.74,36.26-81,81-81s81,36.26,81,81Z"/>
          <g class="cls-13">
            <path class="cls-6" d="M114.46,152.44c1.25-4.03,3.4-7.89,6.96-10.3,3.09-2.09,6.82-2.87,10.5-2.89,2.32-.01,4.64.25,6.92.67.63.12.9-.85.27-.96-4.08-.75-8.34-1.07-12.42-.14s-7.27,3.01-9.67,6.18c-1.62,2.14-2.73,4.62-3.53,7.18-.19.62.77.88.96.27h0Z"/>
            <path class="cls-6" d="M58.98,153.31c3.76-6.41,11.66-10.82,19.05-8.23,2.41.83,4.55,1.92,6.82,2.87,4.45,2.03,9.02,3.94,13.11,6.77,4.18,2.74,7.4,7.45,6.03,12.6.91-5.07-2.3-9.45-6.46-11.96-4.07-2.62-8.6-4.53-13.08-6.49-2.24-.97-4.47-2.12-6.69-2.92-7.13-2.54-14.62,1.5-18.77,7.37h0Z"/>
            <path class="cls-6" d="M70.98,136.31c9.69-2.42,22.08-.93,28,8-.92-.86-1.74-1.88-2.78-2.59-6.98-5.6-16.62-6.18-25.22-5.41h0Z"/>
            <path class="cls-6" d="M120.58,149.4c8.59-3.95,20.5-5.67,27.9,1.53.99,1.01,1.81,2.16,2.5,3.38-6.98-9.6-20.39-8.04-30.4-4.91h0Z"/>
            <path class="cls-6" d="M140.98,132.31c9.19,1.42,23.46,8.65,20.87,19.88-.4,1.48-1.07,2.85-1.87,4.12.6-1.38,1.16-2.76,1.39-4.23,1.78-10.58-11.95-17.27-20.39-19.77h0Z"/>
            <path class="cls-6" d="M51.98,111.31c3.99-10.22,12.83-18.91,23.74-21.45,6.54-1.17,13.02-1.97,19.51-3.41,11.5-1.92,28.91-6.49,38.57,1.94,3.34,3.05,4.78,7.54,5.18,11.92-1.21-9.99-7.6-15.37-17.53-15.85-13.22-.71-26.04,3.55-39.06,5.25-13.87.92-24.73,9-30.42,21.6h0Z"/>
            <path class="cls-6" d="M111.98,57.31c5.46-.62,11.04.57,16.4,1.64,12.98,3.03,28.13,9.84,31.34,24.1.53,2.73.58,5.53.26,8.26.1-2.75-.06-5.5-.73-8.15-3.69-13.79-18.39-20.12-31.04-23.47-5.29-1.23-10.77-2.6-16.22-2.39h0Z"/>
            <path class="cls-6" d="M47.98,63.31c3.61-9.57,12.62-17.27,22.95-18.17,2.28-.24,4.79-.1,7.05.17-13.03-.55-24.05,6.57-30,18h0Z"/>
          </g>
        </g>
        <path class="cls-4" d="M70.98,3.31l3.26-.71c-2.06.65-3.26.71-3.26.71Z"/>
      </g>
    </g>
  </g>
</svg>