<?xml version="1.0" encoding="UTF-8"?>
<svg xmlns="http://www.w3.org/2000/svg" xmlns:xlink="http://www.w3.org/1999/xlink" viewBox="0 0 211 211">
  <defs>
    <style>
      .cls-1 {
        fill: #f3dbb1;
      }

      .cls-1, .cls-2, .cls-3, .cls-4, .cls-5, .cls-6, .cls-7, .cls-8, .cls-9, .cls-10, .cls-11 {
        stroke-width: 0px;
      }

      .cls-12 {
        clip-path: url(#clippath);
      }

      .cls-2 {
        fill: none;
      }

      .cls-13 {
        stroke-width: 1.15px;
      }

      .cls-13, .cls-14, .cls-15 {
        fill: #f9e7d3;
        stroke: #965c45;
        stroke-miterlimit: 10;
      }

      .cls-3 {
        fill: #c6e9f0;
      }

      .cls-14 {
        stroke-width: 1.04px;
      }

      .cls-4 {
        fill: #a08960;
      }

      .cls-15 {
        stroke-width: .96px;
      }

      .cls-5 {
        fill: #f3eb30;
      }

      .cls-6 {
        fill: #84d0d4;
      }

      .cls-7, .cls-8 {
        fill: #b0e0eb;
      }

      .cls-16 {
        opacity: .45;
      }

      .cls-8, .cls-9, .cls-17 {
        mix-blend-mode: multiply;
      }

      .cls-9 {
        fill: #c6b081;
        opacity: .44;
      }

      .cls-10 {
        fill: #005d62;
      }

      .cls-11 {
        fill: #008a9c;
      }

      .cls-18 {
        isolation: isolate;
      }

      .cls-17 {
        opacity: .64;
      }
    </style>
    <clipPath id="clippath">
      <circle class="cls-2" cx="105.5" cy="105.5" r="104.5"/>
    </clipPath>
  </defs>
  <g class="cls-18">
    <g id="Layer_1" data-name="Layer 1">
      <g>
        <circle class="cls-6" cx="105.5" cy="105.5" r="105.5"/>
        <g class="cls-12">
          <rect class="cls-10" x="26.5" y="28.5" width="162" height="4" rx="2" ry="2"/>
          <rect class="cls-7" x="89.89" y="58.57" width="42.87" height="92.59"/>
          <rect class="cls-8" x="92.42" y="105.61" width="42.28" height="5.06"/>
          <ellipse class="cls-5" cx="112.37" cy="74.79" rx="8.34" ry="7.59"/>
          <rect class="cls-8" x="97.48" y="62.14" width="42.28" height="5.06"/>
          <rect class="cls-14" x="97.13" y="94.95" width="19.56" height="10.74"/>
          <rect class="cls-13" x="92.85" y="149.52" width="25.32" height="9.57"/>
          <rect class="cls-15" x="97.25" y="54.63" width="18.19" height="9.25"/>
          <path class="cls-11" d="M94.75,198.38c-1.35,55.95-2.64,104.75-2.64,104.75,0,0-30.31,2.23-26.75-2.67,3.13-4.29,6.7-14.03,1.28-14.03s-13.4,4.78-19.78,2.87c-6.38-1.92.64-5.43.64-5.43,11.17-12.44-8.61-12.76-8.61-12.76,8.94-39.54,5.73-40.82.95-235.43h7.24s-.01.06-.02.09c0,0,6.39,13.62,16.32-.1h5.02c.69,1.86,5,11.8,14.1,1.33,0,0-.41-.57-1.11-1.35h4.49c-.18.41-.31.87-.38,1.35,0,0,6,7.5,9,0,.2-.5.34-.95.42-1.37h2.66c.72,7.15-1.1,90.86-2.83,162.75Z"/>
          <g class="cls-17">
            <path class="cls-4" d="M127.52,67.7c1.02,29.38.53,58.81,1.94,88.18.55,9.76.8,19.62,2.84,29.21-2.36-9.53-2.85-19.41-3.53-29.18-.58-9.79-.86-19.6-1.09-29.4-.47-19.24-.03-39.56-.17-58.82h0Z"/>
            <g>
              <path class="cls-4" d="M52.28,276.54c2.88-58.12,6.62-117.09,5.66-175.26-.12-3.89-.37-7.78-.55-11.68,2.4,31.11,1.17,62.38.22,93.53-1.16,30.19-3.04,63.18-5.32,93.41h0Z"/>
              <path class="cls-4" d="M73.66,71.73c1.37,46.95,2.91,96.66,2.23,143.55.1-5.98-.1-11.96-.22-17.94-.8-39.59-1.75-86.06-2.02-125.61h0Z"/>
              <g>
                <path class="cls-4" d="M151.95,81.19c2.12,23.49,4,47.06,3.99,70.66-1.15-22.77-3.1-47.89-3.99-70.66h0Z"/>
                <path class="cls-4" d="M144.9,104.91c-.57,2.9-.22,5.95-.27,8.9.06,5.99.48,20.61.63,26.8.22,10.49.6,25.4.61,35.75-.75-11.9-1.16-23.81-1.5-35.73-.18-8.94-.35-17.88-.17-26.83.19-2.95-.05-6.03.71-8.9h0Z"/>
              </g>
            </g>
          </g>
          <path class="cls-1" d="M96.23,64.91c.25,43.57-.49,87.62-2.23,131.15-.26-43.57.5-87.62,2.23-131.15h0Z"/>
          <path class="cls-9" d="M94.75,198.38c-1.35,55.95-2.64,104.75-2.64,104.75,0,0-30.31,2.23-26.74-2.66,3.12-4.29,6.7-14.04,1.27-14.04s-13.4,4.79-19.78,2.87c-6.38-1.91.64-5.42.64-5.42,11.16-12.44-8.61-12.76-8.61-12.76,8.94-39.55,5.73-40.82.96-235.43h9.28c-1.13,19.75-4.46,78.94-3.22,100.09,1.49,25.31-5.06,58.95,10.12,55.68,0,0,1.94,12.36,9.08,4.02,0,0,0,0,0,0,2.47-2.6,3.86-6.05,3.89-9.64.23-27.74,1.98-120.83,3.25-128.21,1.3-7.51,2.83,101.6,3.28,132.19-.3,4.47-.51.93,1.04,4.87,4.47,11.36,4.47-4.42,4.47-4.42,0,0-1.02-25.5-.15-23.67-.84-24.19-.46-47.2,0-50.61.45-3.37,4.99,57.75,4.5,82.03,2.16,2,5.23,2.95,9.36.38Z"/>
          <path class="cls-11" d="M159.13,291.51c-6.24,3.65-.45,5.29-1.1,11.03-.63,5.74-23.92,3.51-23.92,3.51l-2.23-12.63-12.98-73.55c-1.23-4.05-2.26-14.21-3.11-27.79h0c-3.29-52.77-3.9-157.24-3.9-157.24l7.41.1c-.1.25-.18.53-.24.83,0,0,6.44,13.73,16.44-.27,0,0-.27-.13-.74-.35l5.62.07s-.06.1-.09.15c0,0,4.21,13.13,14.21,1.63,0,0-.5-.69-1.33-1.6l8.41.11.92.02-.3,227.52v9.73s-.02,5.83-.02,5.83c0,0,.1.28.23.75.59,2.27,1.89,9.13-3.28,12.15Z"/>
          <path class="cls-9" d="M159.13,291.51c-6.24,3.65-.46,5.28-1.1,11.03-.63,5.74-23.92,3.51-23.92,3.51l-2.23-12.63-12.98-73.55c-1.24-4.05-2.26-14.2-3.12-27.79h0c-.03-1.31-.06-2.61-.1-3.92,9.98,6.2,9.26.76,9.26.76,0,0-.89-84.85,1.79-116.71,0,0,1.14,26.55,1.54,33.59.39,6.86,1.34,65.6,3.83,78.37.52.74,1.11,1.71,1.78,2.96,1.98,3.65,5.44,1.39,8.35-1.69.06-10.19.41-63.08,1.48-67.38,0,0,2.81,42.73,2.93,61.72.41-.61.64-.99.64-.99,7.14,8.34,7.74-4.47,7.74-4.47.39.16.74.22,1.07.21-.02-12.14-1.36-81.21-1.36-89.23,0-6.31,3.75,49.88,4.54,79.8.5-11.83-1.62-32.55-.67-48.83,1.07-18.15,3.13-57.48,2.98-80.76h.92s-.3,227.54-.3,227.54v9.73s-.02,5.83-.02,5.83c0,0,.1.28.22.75.6,2.27,1.9,9.14-3.27,12.16Z"/>
          <path class="cls-1" d="M113.02,57.07c2.18,42.86,3.25,86.25,3,129.16-1.73-42.08-2.84-87.09-3-129.16h0Z"/>
          <g class="cls-16">
            <path class="cls-1" d="M75.54,96.92c.98,30.58,1.44,64.9,1.25,95.49-.99-30.58-1.43-64.9-1.25-95.49h0Z"/>
            <path class="cls-1" d="M60.2,124.46c-.09,21.82-.82,45.8-2.08,67.58.08-21.82.83-45.8,2.08-67.58h0Z"/>
            <path class="cls-1" d="M129.87,95.88c-.02,23.76-.39,48.67,1.35,72.31,0,0,.43,4.81.43,4.81-1.95-12.73-2.36-25.65-2.61-38.51-.12-12.87.06-25.75.82-38.6h0Z"/>
            <path class="cls-1" d="M145.35,114.93c1.19,17.54,1.79,35.11,1.79,52.7-1.2-17.53-1.79-35.12-1.79-52.7h0Z"/>
          </g>
          <g>
            <rect class="cls-3" x="43.5" y="24.5" width="3" height="14" rx="1.5" ry="1.5"/>
            <rect class="cls-3" x="82.5" y="24.5" width="3" height="14" rx="1.5" ry="1.5"/>
            <rect class="cls-3" x="94.5" y="24.5" width="3" height="14" rx="1.5" ry="1.5"/>
            <rect class="cls-3" x="64.5" y="24.5" width="3" height="14" rx="1.5" ry="1.5"/>
          </g>
          <g>
            <rect class="cls-3" x="115.5" y="24.5" width="3" height="14" rx="1.5" ry="1.5"/>
            <rect class="cls-3" x="154.5" y="24.5" width="3" height="14" rx="1.5" ry="1.5"/>
            <rect class="cls-3" x="136.5" y="24.5" width="3" height="14" rx="1.5" ry="1.5"/>
          </g>
        </g>
      </g>
    </g>
  </g>
</svg>