<?xml version="1.0" encoding="UTF-8"?>
<svg id="Layer_1" data-name="Layer 1" xmlns="http://www.w3.org/2000/svg" viewBox="0 0 211 211">
  <defs>
    <style>
      .cls-1 {
        stroke: #f2ea00;
      }

      .cls-1, .cls-2 {
        stroke-width: 2px;
      }

      .cls-1, .cls-2, .cls-3 {
        stroke-miterlimit: 10;
      }

      .cls-1, .cls-3 {
        fill: none;
      }

      .cls-4 {
        fill: #f2ea00;
      }

      .cls-4, .cls-5, .cls-6 {
        stroke-width: 0px;
      }

      .cls-2 {
        fill: #9a302e;
        stroke: #651318;
      }

      .cls-5 {
        fill: #f7c159;
      }

      .cls-3 {
        stroke: #9a302e;
        stroke-width: 8px;
      }

      .cls-6 {
        fill: #fff;
      }
    </style>
  </defs>
  <circle class="cls-5" cx="105.5" cy="105.5" r="105.5"/>
  <circle class="cls-4" cx="107.51" cy="106.71" r="33.36"/>
  <g>
    <line class="cls-1" x1="120.37" y1="68.92" x2="131.63" y2="38.37"/>
    <line class="cls-1" x1="130.82" y1="73.74" x2="139.67" y2="60.08"/>
    <line class="cls-1" x1="138.86" y1="80.18" x2="157.35" y2="61.69"/>
    <line class="cls-1" x1="147.71" y1="92.24" x2="171.02" y2="85.8"/>
    <line class="cls-1" x1="146.9" y1="109.92" x2="166.2" y2="110.73"/>
    <line class="cls-1" x1="145.29" y1="124.39" x2="168.61" y2="133.24"/>
    <line class="cls-1" x1="135.65" y1="135.65" x2="141.28" y2="145.29"/>
    <line class="cls-1" x1="117.16" y1="146.1" x2="120.37" y2="172.63"/>
    <line class="cls-1" x1="99.47" y1="147.71" x2="97.86" y2="162.98"/>
    <line class="cls-1" x1="82.59" y1="139.67" x2="64.9" y2="162.18"/>
    <line class="cls-1" x1="89.82" y1="145.29" x2="81.78" y2="162.98"/>
    <line class="cls-1" x1="72.94" y1="130.82" x2="52.84" y2="140.47"/>
    <line class="cls-1" x1="52.84" y1="120.37" x2="68.12" y2="115.55"/>
    <line class="cls-1" x1="39.98" y1="104.29" x2="67.31" y2="103.49"/>
    <line class="cls-1" x1="52.84" y1="91.43" x2="68.12" y2="93.84"/>
    <line class="cls-1" x1="53.65" y1="66.51" x2="79.37" y2="79.37"/>
    <line class="cls-1" x1="77.76" y1="66.51" x2="85.8" y2="73.74"/>
    <line class="cls-1" x1="77.76" y1="43.19" x2="91.43" y2="67.31"/>
    <line class="cls-1" x1="95.45" y1="39.98" x2="101.88" y2="64.1"/>
    <line class="cls-1" x1="113.14" y1="46.41" x2="112.33" y2="64.1"/>
  </g>
  <circle class="cls-3" cx="106" cy="105.92" r="86.5"/>
  <path class="cls-2" d="M146.51,142.04c1.54-2.68,5.41-2.68,6.95,0l11.17,19.35,11.17,19.35c1.54,2.68-.39,6.02-3.48,6.02h-44.69c-3.09,0-5.02-3.34-3.48-6.02l11.17-19.35,11.17-19.35Z"/>
  <rect class="cls-6" x="146.54" y="151.26" width="6.89" height="18.94" rx="3.44" ry="3.44"/>
  <circle class="cls-6" cx="149.99" cy="177.53" r="4.74"/>
  <path class="cls-6" d="M121.54,78.23c12.6,9.03,18.74,24.98,14.17,39.92.58-3.59.69-7.23.26-10.77-1.27-10.41-7.97-19.72-16.97-24.85,0,0,2.54-4.31,2.54-4.31h0Z"/>
</svg>