<?xml version="1.0" encoding="UTF-8"?>
<svg xmlns="http://www.w3.org/2000/svg" xmlns:xlink="http://www.w3.org/1999/xlink" viewBox="0 0 211 211">
  <defs>
    <style>
      .cls-1 {
        fill: #fbc4b6;
        stroke: #ce7e74;
        stroke-width: 2px;
      }

      .cls-1, .cls-2, .cls-3 {
        stroke-miterlimit: 10;
      }

      .cls-4 {
        opacity: .49;
      }

      .cls-4, .cls-5, .cls-6, .cls-7, .cls-8, .cls-9, .cls-10, .cls-11, .cls-12 {
        stroke-width: 0px;
      }

      .cls-4, .cls-6 {
        mix-blend-mode: multiply;
      }

      .cls-4, .cls-6, .cls-7 {
        fill: #b92f25;
      }

      .cls-13 {
        clip-path: url(#clippath);
      }

      .cls-5, .cls-2, .cls-3 {
        fill: none;
      }

      .cls-8 {
        fill: #fef4f3;
      }

      .cls-2, .cls-3 {
        stroke: #fff;
      }

      .cls-9 {
        fill: #81ceca;
      }

      .cls-3 {
        stroke-width: 1.07px;
      }

      .cls-10 {
        fill: #fbc7b5;
      }

      .cls-14 {
        opacity: .75;
      }

      .cls-15 {
        isolation: isolate;
      }

      .cls-11 {
        fill: #fff;
      }

      .cls-12 {
        fill: #f68f5f;
      }
    </style>
    <clipPath id="clippath">
      <rect class="cls-5" x="36" y="76" width="125" height="64" rx="8.21" ry="8.21"/>
    </clipPath>
  </defs>
  <g class="cls-15">
    <g id="Layer_1" data-name="Layer 1">
      <g>
        <circle class="cls-12" cx="105.5" cy="105.5" r="105.5"/>
        <path class="cls-7" d="M171,67v70c0,6.6-5.4,12-12,12H38c-6.6,0-12-5.4-12-12v-70c0-6.6,5.4-12,12-12h121c1.17,0,2.31.17,3.38.49,4.97,1.47,8.62,6.08,8.62,11.51Z"/>
        <g>
          <path class="cls-6" d="M64,55v8.5c0,2.48-2.02,4.5-4.5,4.5s-4.5-2.02-4.5-4.5v-8.5h9Z"/>
          <path class="cls-6" d="M153,55v8.5c0,2.48-2.02,4.5-4.5,4.5s-4.5-2.02-4.5-4.5v-8.5h9Z"/>
        </g>
        <rect class="cls-1" x="51" y="44" width="9" height="23" rx="4.5" ry="4.5"/>
        <rect class="cls-1" x="140" y="44" width="9" height="23" rx="4.5" ry="4.5"/>
        <g class="cls-13">
          <rect class="cls-10" x="36" y="76" width="125" height="64" rx="8.21" ry="8.21"/>
          <line class="cls-2" x1="35.5" y1="93.5" x2="164.5" y2="93.5"/>
          <line class="cls-2" x1="36" y1="108.5" x2="165" y2="108.5"/>
          <line class="cls-2" x1="36" y1="123.5" x2="165" y2="123.5"/>
          <g>
            <line class="cls-3" x1="55.5" y1="74.71" x2="55.5" y2="142"/>
            <line class="cls-3" x1="77.25" y1="74.14" x2="77.25" y2="141.43"/>
            <line class="cls-3" x1="99" y1="74.14" x2="99" y2="141.43"/>
            <line class="cls-3" x1="120.75" y1="73" x2="120.75" y2="140.29"/>
            <line class="cls-3" x1="142.5" y1="74.14" x2="142.5" y2="141.43"/>
          </g>
        </g>
        <path class="cls-8" d="M57,45c-2.26.55-3.71,1.75-4.17,3,.31,5.35.26,10.73-.83,16-1.09-5.27-1.14-10.65-.83-16,.6-2.44,3.61-3.48,5.83-3h0Z"/>
        <path class="cls-8" d="M147,45c-2.26.55-3.71,1.75-4.17,3,.31,5.35.26,10.73-.83,16-1.09-5.27-1.14-10.65-.83-16,.6-2.44,3.61-3.48,5.83-3h0Z"/>
        <g class="cls-14">
          <path class="cls-8" d="M48,56c-2.76.26-5.66.23-8.37.58-6.01.85-10.9,6.29-10.66,12.37,0,0,.01,2.11.01,2.11.07,12.65-.1,25.32-.98,37.94-.87-12.62-1.04-25.3-.98-37.94.03-.78-.01-2.47.06-3.22.4-6.47,6.06-11.88,12.44-12.23,2.89-.04,5.63.22,8.48.39h0Z"/>
        </g>
        <path class="cls-4" d="M171,67v70c0,6.6-5.4,12-12,12H38c-6.6,0-12-5.4-12-12v-4.68c23.87-.21,96.5.18,96.5.18,0,0,35.35-4.91,39.88-77.01,4.97,1.47,8.62,6.08,8.62,11.51Z"/>
        <circle class="cls-9" cx="155.92" cy="142.36" r="33"/>
        <g>
          <path class="cls-11" d="M129.97,134c10.67,1.69,32.38,6.42,41.39.12,1.73-1.4,3.49-3.81,1.91-5.95-3.5-4.2-10.84-3.84-14.31.46.72-1.25,1.74-2.39,3.01-3.18,4.84-3.5,15.99-.85,13.76,6.58-5.74,13.56-35.23,5.98-45.76,1.96h0Z"/>
          <path class="cls-11" d="M129.35,142.3c11.42-.32,23.38.09,34.79-.2,2.85-.08,5.8-.17,8.42-.7,1.51-.43,3.08-.92,4.68-.64,5.33.5,8.94,8.28,3.09,10.89-2.92,1.14-5.98.57-8.84-.24,1.45.15,2.9.22,4.32.13,2.43-.12,5.8-1.08,5.84-3.87-.05-3.5-4.29-5.71-7.37-4.3-3.29,1.12-6.8,1.09-10.07,1.28-11.69.2-23.31-.61-34.86-2.35h0Z"/>
          <path class="cls-11" d="M136.18,150.27c.95.13,1.91-.2,2.86-.34,2.79-.56,5.81-1.18,8.64-1.52,5.85-.8,19.25-1.53,17.19,7.95-1.7,7.25-8.92,4.55-12.75.75,3.44,1.78,9.89,4.51,10.56-1.23,1.91-9.09-21.47-3.87-26.5-5.61h0Z"/>
        </g>
      </g>
    </g>
  </g>
</svg>