<?xml version="1.0" encoding="UTF-8"?>
<svg id="Layer_1" data-name="Layer 1" xmlns="http://www.w3.org/2000/svg" viewBox="0 0 211 211">
  <defs>
    <style>
      .cls-1 {
        fill: #f6927b;
      }

      .cls-1, .cls-2 {
        stroke-width: 0px;
      }

      .cls-3 {
        fill: none;
        stroke: #9a302e;
        stroke-width: 8px;
      }

      .cls-3, .cls-4 {
        stroke-miterlimit: 10;
      }

      .cls-4 {
        fill: #d54b27;
        stroke: #c23927;
        stroke-width: 3px;
      }

      .cls-2 {
        fill: #f68f5f;
      }
    </style>
  </defs>
  <circle class="cls-2" cx="105.5" cy="105.5" r="105.5"/>
  <g>
    <path class="cls-4" d="M95.82,122.42c-3.1,5.6-5.76,10.38-8.39,15.19-4.33,7.91-6.73,8.69-15.05,4.83-5.21-2.42-10.44-4.81-15.63-7.28-5.02-2.39-6.81-6.57-4.74-10.78,2.01-4.1,6.21-5.31,11.08-3.11,4.05,1.82,8.05,3.74,12.31,5.73,9.35-16.06,18.64-32.02,27.93-47.98-6.1-3.02-6.34-2.96-10.19,2.61-1.34,1.94-2.57,3.95-4.03,5.8-2.47,3.13-6.33,3.73-9.41,1.61-3.03-2.08-3.94-6.04-1.82-9.36,3.17-4.95,6.55-9.77,9.92-14.59,1.84-2.63,4.45-3.62,7.56-2.81,8.6,2.23,17.22,4.4,25.76,6.85,4.74,1.36,8.19,4.44,10.06,9.18,1.82,4.6,3.81,9.13,5.87,14.04,4.19-2.06,8.11-4.04,12.08-5.94,4.11-1.96,7.93-.94,9.79,2.53,1.98,3.7.6,7.53-3.69,9.73-5.23,2.68-10.53,5.24-15.81,7.84-6.9,3.4-10.49,2.06-13.57-5.04-.3-.7-.68-1.36-1.27-2.53-3.98,6.43-7.74,12.51-11.85,19.17,2.7,2.5,5.31,5.05,8.06,7.44,2.94,2.55,3.77,5.65,2.49,9.18-3.33,9.22-6.71,18.42-10.24,27.56-1.68,4.35-5.83,6.12-9.87,4.58-4.03-1.53-5.92-5.56-4.37-9.99,2.37-6.78,4.86-13.53,7.53-20.2.89-2.22.49-3.56-1.18-5.09-3.06-2.8-5.94-5.79-9.36-9.15Z"/>
    <path class="cls-4" d="M150.19,57.37c.03,7.57-5.99,13.71-13.57,13.83-7.83.12-14.01-5.93-14.01-13.72,0-7.62,5.97-13.76,13.52-13.87,7.71-.12,14.04,6.07,14.07,13.76Z"/>
  </g>
  <g>
    <line class="cls-3" x1="51.8" y1="178" x2="165.8" y2="39"/>
    <circle class="cls-3" cx="105.5" cy="105.5" r="91"/>
  </g>
  <path class="cls-1" d="M140.91,45.8c-6.94-.97-12.17,2.61-15.75,8.28-1.75,2.89-1.78,2.86-.88-.43,2.21-6.91,9.82-11.7,16.63-7.84h0Z"/>
  <path class="cls-1" d="M119.11,70.22c-8.14-1.06-16.22-2.68-24.23-4.43-1.32-.29-2.73.02-3.77.89-.62.51-1.28,1.54-1.97,2.35l-4.04,5.15c-2.66,3.46-5.32,6.91-7.8,10.53,1.76-4.04,4.09-7.8,6.53-11.45,1.21-1.83,2.51-3.61,3.8-5.39l.99-1.32c1.36-2.12,4.19-3.37,6.69-2.7,7.99,1.85,15.99,3.83,23.8,6.36h0Z"/>
  <path class="cls-1" d="M58.91,121.8c5.94,2.06,11.7,4.52,17.41,7.12,0,0-1.25.39-1.25.39,4.31-7.46,8.79-14.8,13.93-21.74-3.57,7.86-7.82,15.34-12.25,22.72,0,0-.46.76-.46.76-5.92-2.84-11.75-5.84-17.38-9.25h0Z"/>
</svg>