<?xml version="1.0" encoding="UTF-8"?>
<svg xmlns="http://www.w3.org/2000/svg" viewBox="0 0 211 211">
  <defs>
    <style>
      .cls-1 {
        fill: #bac233;
      }

      .cls-1, .cls-2, .cls-3, .cls-4, .cls-5, .cls-6 {
        stroke-width: 0px;
      }

      .cls-2 {
        fill: #dd6026;
        opacity: .67;
      }

      .cls-2, .cls-5 {
        mix-blend-mode: multiply;
      }

      .cls-7 {
        stroke: #f47847;
      }

      .cls-7, .cls-8, .cls-9, .cls-10 {
        stroke-miterlimit: 10;
      }

      .cls-7, .cls-9 {
        fill: none;
      }

      .cls-3 {
        fill: #f47847;
      }

      .cls-8 {
        fill: #f6871f;
        stroke: #da6326;
        stroke-width: 2.68px;
      }

      .cls-9 {
        stroke: #f2ea00;
        stroke-width: .68px;
      }

      .cls-4 {
        fill: #fffdfa;
      }

      .cls-5 {
        fill: #d4b698;
      }

      .cls-11 {
        isolation: isolate;
      }

      .cls-10 {
        fill: #f9e7d3;
        stroke: #965c45;
        stroke-width: 3px;
      }

      .cls-6 {
        fill: #fff;
      }
    </style>
  </defs>
  <g class="cls-11">
    <g id="Layer_1" data-name="Layer 1">
      <g>
        <circle class="cls-1" cx="105.5" cy="105.5" r="105.5"/>
        <path class="cls-8" d="M121.33,162.5v9.06c0,6.04-4.89,10.94-10.93,10.94h-19.13c-3.34,0-6.33-1.5-8.34-3.86-1.62-1.91-2.6-4.38-2.6-7.08v-9.06h41Z"/>
        <rect class="cls-10" x="63.33" y="36.5" width="75" height="12"/>
        <path class="cls-10" d="M138.83,48.5l-12.9,105.09c-.63,5.09-4.95,8.91-10.07,8.91h-30.05c-4.24,0-7.95-2.62-9.44-6.42-.31-.78-.52-1.62-.63-2.49l-12.91-105.09h76Z"/>
        <path class="cls-6" d="M87.5,126.25c-1.44-.77-3.27-1.7-4.92-1.02-1.17.48-2.17,1.82-1.81,3.12.4,1.5,2.22,1.54,3.04,2.69.71,1,.84,2.59-.14,3.47s-2.75.74-3.43-.42c-.32-.56-1.19-.05-.86.5.66,1.13,2,1.61,3.26,1.42s2.39-1.14,2.66-2.47-.2-2.82-1.24-3.72c-.59-.51-1.38-.7-1.96-1.2-.5-.43-.48-1.05-.16-1.59,1.13-1.92,3.6-.72,5.06.06.57.3,1.07-.56.5-.86h0Z"/>
        <path class="cls-6" d="M91.14,130.36c-1.78,3-2.12,6.75-.88,10.01.23.6,1.19.34.96-.27-1.16-3.03-.88-6.46.78-9.24.33-.55-.53-1.06-.86-.5h0Z"/>
        <path class="cls-6" d="M92.46,131.25c.09-1.57.18-3.48,1.3-4.71.76-.83,2.29-1.39,3.28-.63,1.3,1,.38,2.9-.38,3.91-.48.64-1.08,1.22-1.77,1.62-.57.34-1.48.68-2.09.24-.32-.23-.42-.78-.35-1.16.04-.23.12-.41.25-.54.05-.05.05-.06.15-.08.06-.01.09,0,.21.03.62.18.88-.79.27-.96-1.57-.45-2.19,1.55-1.72,2.72.33.82,1.11,1.21,1.98,1.2,1.11-.02,2.11-.66,2.9-1.39,1.34-1.22,2.77-3.38,2.01-5.26s-2.98-2.02-4.53-1.12c-2.12,1.23-2.37,3.95-2.5,6.14-.04.64.96.64,1,0h0Z"/>
        <path class="cls-6" d="M103.83,122.2c-1.79,4.21-2.86,8.66-3.17,13.22-.04.64.96.64,1,0,.3-4.37,1.32-8.68,3.04-12.71.25-.59-.61-1.1-.86-.5h0Z"/>
        <path class="cls-6" d="M111.66,123.49c-2.81.31-5.66,2.38-5.05,5.51.27,1.39,1.23,2.35,2.57,2.74.71.21,1.49.38,1.72,1.19.18.6,0,1.29-.31,1.81-1.02,1.72-3.5,1.53-5.21,1.42-.64-.04-.64.96,0,1,1.63.1,3.4.17,4.86-.7,1.06-.63,1.77-1.87,1.73-3.11-.02-.58-.2-1.14-.57-1.58-.5-.59-1.23-.78-1.94-.99-1.44-.42-2.17-1.81-1.85-3.27.4-1.84,2.34-2.83,4.07-3.02.63-.07.64-1.07,0-1h0Z"/>
        <g>
          <circle class="cls-3" cx="102.31" cy="81.09" r="11.27"/>
          <g>
            <line class="cls-7" x1="106.65" y1="68.32" x2="110.45" y2="58"/>
            <line class="cls-9" x1="110.18" y1="69.95" x2="113.17" y2="65.33"/>
            <line class="cls-7" x1="112.9" y1="72.13" x2="119.15" y2="65.88"/>
            <line class="cls-7" x1="115.89" y1="76.2" x2="123.76" y2="74.03"/>
            <line class="cls-7" x1="115.62" y1="82.18" x2="122.14" y2="82.45"/>
            <line class="cls-7" x1="115.07" y1="87.07" x2="122.95" y2="90.05"/>
            <line class="cls-7" x1="111.81" y1="90.87" x2="113.71" y2="94.13"/>
            <line class="cls-7" x1="105.56" y1="94.4" x2="106.65" y2="103.36"/>
            <line class="cls-7" x1="99.59" y1="94.94" x2="99.05" y2="100.1"/>
            <line class="cls-7" x1="93.88" y1="92.23" x2="87.91" y2="99.83"/>
            <line class="cls-7" x1="96.33" y1="94.13" x2="93.61" y2="100.1"/>
            <line class="cls-7" x1="90.62" y1="89.24" x2="83.83" y2="92.5"/>
            <line class="cls-7" x1="83.83" y1="85.71" x2="88.99" y2="84.08"/>
            <line class="cls-7" x1="79.49" y1="80.27" x2="88.72" y2="80"/>
            <line class="cls-7" x1="83.83" y1="75.93" x2="88.99" y2="76.74"/>
            <line class="cls-7" x1="84.1" y1="67.51" x2="92.8" y2="71.85"/>
            <line class="cls-7" x1="92.25" y1="67.51" x2="94.97" y2="69.95"/>
            <line class="cls-7" x1="92.25" y1="59.63" x2="96.87" y2="67.78"/>
            <line class="cls-7" x1="98.23" y1="58.54" x2="100.4" y2="66.69"/>
            <line class="cls-7" x1="104.21" y1="60.72" x2="103.93" y2="66.69"/>
          </g>
          <path class="cls-6" d="M107.05,71.47c4.25,3,6.31,8.52,4.79,13.49.36-2.39.15-4.89-.95-7.05-.99-2.06-2.75-3.89-4.7-4.99,0,0,.86-1.45.86-1.45h0Z"/>
        </g>
        <path class="cls-4" d="M126,38c-19.98,1.26-40.01,1.24-60,.5,0,0,.5-.45.5-.45-.5,2.98-.93,5.97-1.5,8.94.11-3.17.36-6.32.52-9.48,0,0,.48-.02.48-.02,19.99-.73,40.02-.75,60,.5h0Z"/>
        <path class="cls-4" d="M65.5,50.5c-.08.91.27,2.37.38,3.3,0,0,.52,3.3.52,3.3,5.22,32.8,9.82,66.25,12.1,99.4-4.31-21.49-7.38-44.23-9.95-66.04-1.34-12.17-2.62-24.38-3.12-36.62.02-.89-.14-2.46.07-3.34h0Z"/>
        <path class="cls-2" d="M121.33,162.5v9.06c0,6.04-4.89,10.94-10.93,10.94h-19.13c-3.34,0-6.33-1.5-8.34-3.86,9.12.18,26.89.33,30.57-1.14,5-2,5-9,1-9-3.53,0-27.16-1.56-34.17-1.92v-4.08h41Z"/>
        <path class="cls-5" d="M138.83,48.5l-12.9,105.09c-.63,5.09-4.95,8.91-10.07,8.91h-30.05c-4.24,0-7.95-2.62-9.44-6.42,11.14-.01,33.63.92,41.63-3.08,2.83-1.42,9.67-71.57,12.58-104.5.44-5,.79-9.13,1.04-12h6.71v12h.5Z"/>
      </g>
    </g>
  </g>
</svg>