<?xml version="1.0" encoding="UTF-8"?>
<svg xmlns="http://www.w3.org/2000/svg" viewBox="0 0 211 211">
  <defs>
    <style>
      .cls-1 {
        fill: #bac233;
      }

      .cls-1, .cls-2, .cls-3, .cls-4, .cls-5, .cls-6, .cls-7, .cls-8 {
        stroke-width: 0px;
      }

      .cls-9 {
        fill: #cae3ee;
        opacity: .76;
        stroke: #5fa3af;
        stroke-miterlimit: 10;
        stroke-width: 4.79px;
      }

      .cls-2 {
        fill: #92cbdf;
      }

      .cls-3 {
        fill: #99c9da;
        mix-blend-mode: multiply;
      }

      .cls-4 {
        fill: #59a2b5;
      }

      .cls-5 {
        fill: #8fd5e3;
      }

      .cls-6, .cls-10 {
        fill: #0097a6;
      }

      .cls-11 {
        isolation: isolate;
      }

      .cls-7 {
        fill: #fff;
      }

      .cls-8 {
        fill: #cdcf79;
      }

      .cls-10 {
        font-family: ComicSansMS, 'Comic Sans MS';
        font-size: 19.17px;
      }
    </style>
  </defs>
  <g class="cls-11">
    <g id="Layer_1" data-name="Layer 1">
      <g>
        <circle class="cls-1" cx="105.5" cy="105.5" r="105.5"/>
        <g>
          <path class="cls-4" d="M73.83,70.75v15.98c0,3.2,4.79,44.74,0,60.72-4.79,15.98,0,41.54,12.78,44.74,12.78,3.2,36.75,0,36.75,0,0,0,15.98-9.59,12.78-28.76-3.2-19.17-4.79-39.95-4.79-47.94s4.79-39.95,3.2-44.74c0,0-47.94,4.79-60.72,0Z"/>
          <g>
            <path class="cls-9" d="M126.35,192.26c-2.64,1.6-5.82,2.52-9.6,2.52-6.89.29-10.67.03-12.53-.19-1.82.22-5.61.48-12.5.19-20.74,0-22.99-27.48-19.85-43.81.8-4.14,1.28-9.12,1.57-14.33.83-15.36-.1-32.61.24-35.5.29-2.51-1.5-8.63-1.93-17.9-.16-3.28-.14-6.92.19-10.95.18-2.16.46-4.43.85-6.81,3.15-19.33,20.28-33.95,20.28-33.95,0,0-1.81-1.71,0-2.57,1.81-.86,1.36-3.44,1.36-3.44-1.28-1.21-1.31-1.98-1.09-2.41.13-.16.22-.27.27-.34.03-.03.05-.05.06-.05.08-.05.13-.06.13-.06h20.85s.05.02.13.06c.03.02.05.03.08.06.35.27.89,1.1-.83,2.73,0,0-.19,1.09.18,2.08.19.54.54,1.05,1.18,1.36,1.81.86,0,2.57,0,2.57,0,0,17.13,14.62,20.29,33.95.38,2.38.66,4.65.83,6.81.32,3.85.35,7.35.22,10.51-.4,9.51-2.25,15.79-1.97,18.33.34,2.86-.54,19.77.22,34.99.27,5.4.75,10.58,1.58,14.84,2.59,13.34,1.55,34.13-10.23,41.29Z"/>
            <path class="cls-7" d="M134.99,136.13c-10.03,3.16-33.81,9.03-55.84,2.51-1.92-.58-3.82-1.23-5.7-2,.83-15.36-.1-32.61.24-35.5.29-2.51-1.5-8.63-1.93-17.9,1.65.54,4.47,1.37,8.36,2.16,11.14,2.25,30.97,4.07,56.63-2.59-.4,9.51-2.25,15.79-1.97,18.33.34,2.86-.54,19.77.22,34.99Z"/>
            <path class="cls-6" d="M118.57,15.28v7.45h-27.53v-7.45c0-2.6,1.45-4.87,3.6-6.02.96-.53,2.08-.83,3.26-.83h13.82c3.79,0,6.85,3.07,6.85,6.85Z"/>
            <path class="cls-8" d="M136.51,72.3h-64.57c.18-2.16.46-4.43.85-6.81,3.15-19.33,20.28-33.95,20.28-33.95,0,0-1.81-1.71,0-2.57,1.81-.86,1.36-3.44,1.36-3.44-1.28-1.21-1.31-1.98-1.09-2.41.13-.16.22-.27.27-.34.03-.03.05-.05.06-.05l21.19.06c.35.27.89,1.1-.83,2.73,0,0-.19,1.09.18,2.08.19.54.54,1.05,1.18,1.36,1.81.86,0,2.57,0,2.57,0,0,17.13,14.62,20.29,33.95.38,2.38.66,4.65.83,6.81Z"/>
            <ellipse class="cls-2" cx="103.39" cy="70.75" rx="29.56" ry="3.2"/>
            <path class="cls-7" d="M111.38,33.2c11.63,11.17,19.61,26.44,21.67,42.56,1.22,17.38-.31,35.47-1.29,52.84-.35,6.54-.92,12.83.28,19.31,2.08,12.73,4.69,29.19-6.27,38.68,8.49-11,4.22-25.3,1.38-37.7-.87-3.2-1.38-7.01-1.42-10.38-.33-16.76,1.23-33.38,1.74-50.07.28-5.63.39-11.37-.32-16.97-2-13.83-7.8-26.76-15.76-38.27h0Z"/>
            <text class="cls-10" transform="translate(77.83 118.01)"><tspan x="0" y="0">water</tspan></text>
            <path class="cls-3" d="M131.35,188.99c-2.64,1.6-10.82,5.8-14.6,5.8-6.89.29-10.67.03-12.53-.19-1.82.22-5.61.48-12.5.19-20.74,0-22.99-27.48-19.85-43.81.8-4.14,1.28-9.12,1.57-14.33.83-15.36-.1-32.61.24-35.5.29-2.51-1.5-8.63-1.93-17.9-.24-5.03-.08-10.96,1.04-17.75,3.15-19.33,20.28-33.95,20.28-33.95,0,0-1.81-1.71,0-2.57,1.81-.86,1.36-3.44,1.36-3.44-1.85-1.76-1.07-2.57-.75-2.8.08-.05.13-.06.13-.06h20.85s.05.02.13.06c.34.22,1.1,1.04-.75,2.8,0,0-.19,1.09.18,2.08h-13.21s3.2-1.6,3.2,0-.05,2.62-4.03,6.9c-3.64,3.91-14.65,27.02-15.26,49.29-.05,2.05-.02,4.09.11,6.12.73,11.03-2.68,28.7-3.2,46.34-.62,20.74,5.15,39.56,11.18,44.74,7.91,6.79,26.44,7.88,38.35,7.99Z"/>
            <path class="cls-3" d="M118.57,20.67v2.06h-27.53v-7.45c0-2.6,1.45-4.87,3.6-6.02.19,2.57,1.29,10.35,7.96,10.35,4.87,0,11.52.59,15.98,1.05Z"/>
            <path class="cls-5" d="M96.2,10.03c-.13.04-.3.16-.44.12-.1-.05-.07-.19.02-.24,5.91-3.1,15.94-4.19,21.3.68,2,1.87,2.56,5.02,1.49,7.44-.22-1.22-.5-2.37-1.04-3.31-2.96-5.48-14.71-4.28-20.3-4.6-.44-.01-.92,0-1.34.01.05-.04.04-.14-.02-.16-.04-.01,0,0,0,0,.06.02.27.05.33.07h0Z"/>
            <path class="cls-7" d="M93.17,73.83c5.95-.2,14.56-.07,20.6-.06,6.69-.16,13.91.55,20.41-1.13-3.06,1.67-6.67,1.95-10.07,2.33-3.44.32-6.9.4-10.34.4-6.89-.08-13.77-.48-20.59-1.54h0Z"/>
            <path class="cls-7" d="M114.21,27.6c-4.14,1.69-9.1,1.84-13.21,0,4.47.2,8.72.06,13.21,0h0Z"/>
          </g>
        </g>
      </g>
    </g>
  </g>
</svg>