<?xml version="1.0" encoding="UTF-8"?>
<svg xmlns="http://www.w3.org/2000/svg" viewBox="0 0 211 211">
  <defs>
    <style>
      .cls-1 {
        fill: #bac233;
      }

      .cls-1, .cls-2, .cls-3, .cls-4, .cls-5, .cls-6 {
        stroke-width: 0px;
      }

      .cls-2 {
        fill: #f37b80;
      }

      .cls-3 {
        fill: #e71e25;
        mix-blend-mode: multiply;
        opacity: .66;
      }

      .cls-4 {
        fill: #a81f23;
      }

      .cls-5 {
        fill: #f9e7d3;
      }

      .cls-7 {
        stroke: #a81f23;
        stroke-miterlimit: 10;
        stroke-width: 3px;
      }

      .cls-7, .cls-6 {
        fill: #ed2028;
      }

      .cls-8 {
        isolation: isolate;
      }
    </style>
  </defs>
  <g class="cls-8">
    <g id="Layer_1" data-name="Layer 1">
      <g>
        <circle class="cls-1" cx="105.5" cy="105.5" r="105.5"/>
        <path class="cls-7" d="M195.25,120.5c0,13.81-38.06,25-85,25-21.45,0-41.05-2.34-56-6.19-17.78-4.58-29-11.31-29-18.81,0-8.84,15.61-16.61,39.16-21.05,13.22-2.5,28.96-3.95,45.84-3.95,10.94,0,21.4.61,31.01,1.71,4.37.51,8.56,1.12,12.54,1.82,24.83,4.36,41.45,12.34,41.45,21.47Z"/>
        <g>
          <path class="cls-6" d="M65.75,113.5c-.17-1.2-1.1-6.76-1.34-14.05-.56-16.69,2.43-42.47,26.09-45.95,8.38-1.23,16.59-1.98,24.21-1.98h.01c23.19,0,40.78,6.9,40.03,27.98-.27,7.56-.68,14.09-.95,19.53-.5,10.17-.48,16.49,1.99,18.47"/>
          <path class="cls-4" d="M65.75,113.5c-3.33-18.11-4.39-44.45,12.17-56.56,3.42-2.43,7.44-3.97,11.52-4.69,7.97-1.29,15.94-2.09,24.01-2.22,15.39-.14,36.52,2.57,41.38,19.98,1.12,3.96,1.13,8.21.76,12.22,0,0-.83,11.93-.83,11.93-.3,3.98-.65,7.95-.82,11.91-.08,1.98-.11,3.97.03,5.94.17,1.92.35,4.08,1.81,5.49-1.58-1.31-1.95-3.52-2.26-5.45-.27-1.99-.34-4-.37-6-.01-6.91.27-16.9.48-23.91.18-3.93.12-7.76-1.05-11.49-5.11-15.96-24.69-17.67-39.1-17.63-7.86.07-15.79.86-23.56,2.02-3.76.6-7.39,1.92-10.51,4.05-15.81,11.14-15.48,37-13.66,54.4h0Z"/>
        </g>
        <path class="cls-5" d="M154.44,97.44c-46.06,9.94-89.94.06-89.6,0l.71,10.29s33.91,10.73,88.18,0l.71-10.29Z"/>
        <path class="cls-3" d="M195.25,120.5c0,13.81-38.06,25-85,25-21.45,0-41.05-2.34-56-6.19,25.15,3.7,87.33-1.04,105.25-4.81,19-4,1-10-8-13-1.9-.63-3.49-2.02-4.8-4-2.98-4.44-4.61-11.84-5.44-20.29-.56-5.63-.76-11.72-.76-17.71,0-12.97-16.05-22.48-25.78-27.98,23.19,0,40.78,6.9,40.03,27.98-.27,7.56-.68,14.09-.95,19.53,24.83,4.36,41.45,12.34,41.45,21.47Z"/>
        <path class="cls-2" d="M95.42,54.86c-12.83,2.75-21.13,10.82-26.33,22.51-.71,1.61-1.31,3.27-2.11,4.91.15-1.79.38-3.59.71-5.38.48-1.56.95-3.76,1.66-5.21.84-2.15,2.02-4.17,3.31-6.08,5.07-7.09,14-11.86,22.76-10.76h0Z"/>
      </g>
    </g>
  </g>
</svg>