<?xml version="1.0" encoding="UTF-8"?>
<svg xmlns="http://www.w3.org/2000/svg" viewBox="0 0 211 211">
  <defs>
    <style>
      .cls-1 {
        fill: #9a302e;
      }

      .cls-1, .cls-2, .cls-3, .cls-4, .cls-5, .cls-6, .cls-7, .cls-8 {
        stroke-width: 0px;
      }

      .cls-2 {
        fill: #bac233;
      }

      .cls-3 {
        fill: #f4ea00;
      }

      .cls-4 {
        fill: #a76d5c;
      }

      .cls-4, .cls-5 {
        mix-blend-mode: multiply;
      }

      .cls-4, .cls-5, .cls-9 {
        opacity: .82;
      }

      .cls-10 {
        fill: #e2a88b;
      }

      .cls-10, .cls-11, .cls-12, .cls-13 {
        stroke-miterlimit: 10;
      }

      .cls-10, .cls-12, .cls-13 {
        stroke-width: .71px;
      }

      .cls-10, .cls-13 {
        stroke: #965c45;
      }

      .cls-5 {
        fill: #e5caaf;
      }

      .cls-6 {
        fill: #fbaa19;
      }

      .cls-14 {
        isolation: isolate;
      }

      .cls-11 {
        fill: none;
        stroke: #9a302e;
        stroke-width: 8px;
      }

      .cls-7 {
        fill: #fff;
      }

      .cls-8 {
        fill: #fde6e0;
      }

      .cls-12 {
        fill: #ffe9cd;
        stroke: #b9772a;
      }

      .cls-13 {
        fill: #f9e7d3;
      }
    </style>
  </defs>
  <g class="cls-14">
    <g id="Layer_1" data-name="Layer 1">
      <g>
        <circle class="cls-2" cx="105.5" cy="105.5" r="105.5"/>
        <g>
          <g>
            <rect class="cls-12" x="61.63" y="22.26" width="87.73" height="165.97" rx=".95" ry=".95"/>
            <path class="cls-13" d="M65.65,27.13h79.69c.5,0,.9.4.9.9v159.29c0,.5-.4.9-.9.9h-79.7c-.5,0-.9-.4-.9-.9V28.04c0-.5.4-.9.9-.9Z"/>
            <path class="cls-5" d="M145.68,188.74l-11.14-.51h-68.89c-.5,0-.9-.4-.9-.9l.28-15.24c6.82.24,22.46,5.38,39.75-8.7,26.58-21.64,17.47-108.68,16.97-136.25l23.93.61v161Z"/>
            <g class="cls-9">
              <path class="cls-7" d="M120.66,27.78c-13.71.16-41.28.33-54.99.39,0,0,.39-.39.39-.39,0,0,.07,35.87.07,35.87.02,31.95-.13,75.66-.46,107.61-.45-44.96-.52-98.52-.39-143.48,0,0,0-.39,0-.39,0,0,.39,0,.39,0,13.7.06,41.29.23,54.99.39h0Z"/>
            </g>
            <path class="cls-7" d="M97.34,23.07c-8.67.12-26.09.25-34.76.3,0,0,.3-.3.3-.3l.05,22.01c0,19.6-.1,46.42-.34,66.02-.24-19.61-.35-46.41-.34-66.02,0,0,.05-22.01.05-22.01,0,0,0-.3,0-.3h.3c8.66.05,26.1.18,34.76.3h0Z"/>
            <path class="cls-4" d="M85.65,109.76v.22c0,1.09-.89,1.98-1.98,1.98h-9.2c-.85,1.19-2.25,1.97-3.83,1.97-2.6,0-4.7-2.11-4.7-4.7s2.11-4.7,4.7-4.7c2.09,0,3.86,1.36,4.47,3.25h8.55c1.09,0,1.98.89,1.98,1.99Z"/>
            <circle class="cls-10" cx="70.21" cy="107.7" r="4.7"/>
            <rect class="cls-10" x="67.78" y="105.6" width="15.52" height="4.19" rx="1.99" ry="1.99"/>
            <g>
              <path class="cls-8" d="M69.6,106.46c4.16-.48,8.32-.49,12.48,0-4.16.49-8.32.48-12.48,0h0Z"/>
              <path class="cls-8" d="M71.19,103.28c-2.81.55-4.71,2.59-5.1,5.42-.05-.35-.08-.7-.1-1.06-.08-2.67,2.65-4.83,5.19-4.35h0Z"/>
            </g>
          </g>
          <g>
            <line class="cls-11" x1="51.8" y1="178" x2="165.8" y2="39"/>
            <circle class="cls-11" cx="105.5" cy="105.5" r="91"/>
          </g>
        </g>
        <g>
          <circle class="cls-1" cx="145.58" cy="156.78" r="36"/>
          <g>
            <path class="cls-3" d="M147.12,177.28c-8.13,1.37-28.43-4.54-20.57-21.4,0,0,1.76,11.95,12.64,8.73s4.24-26.36-.27-28.53c0,0,17.47,4.78,17.74,19.51.04,2.34,1.07,4.61,2.95,5.99,2.01,1.47,4.49,1.52,5.76-5.27,0,0,7.45,16.63-18.26,20.97Z"/>
            <path class="cls-6" d="M146.5,174.89c-6.7,1.13-17-2-19-13,0,0,4.77,7.26,13.76,4.61,8.98-2.65,8.96-22.82,5.24-24.61,0,0,7.78,5.85,8,18,.04,1.93,2.05,2.97,3.61,4.11,1.66,1.22,5.35,3.5,6.39-2.11,0,0,3.22,9.42-18,13Z"/>
            <path class="cls-3" d="M126.5,151.89s1-5,4-5c0,0-4,4-4,5Z"/>
          </g>
        </g>
      </g>
    </g>
  </g>
</svg>