<?xml version="1.0" encoding="UTF-8"?>
<svg id="Layer_1" data-name="Layer 1" xmlns="http://www.w3.org/2000/svg" viewBox="0 0 211 211">
  <defs>
    <style>
      .cls-1 {
        fill: #9a302e;
      }

      .cls-1, .cls-2, .cls-3, .cls-4, .cls-5, .cls-6 {
        stroke-width: 0px;
      }

      .cls-2 {
        fill: #bac233;
      }

      .cls-3 {
        fill: #f4ea00;
      }

      .cls-7 {
        stroke: #fff;
        stroke-width: 1.98px;
      }

      .cls-7, .cls-8, .cls-9, .cls-10, .cls-11 {
        stroke-miterlimit: 10;
      }

      .cls-7, .cls-11 {
        fill: none;
      }

      .cls-8 {
        fill: #484596;
        stroke: #28275d;
      }

      .cls-8, .cls-10 {
        stroke-width: 3px;
      }

      .cls-4 {
        opacity: .61;
      }

      .cls-4, .cls-9 {
        fill: #9d2028;
      }

      .cls-9 {
        stroke: #811f23;
        stroke-width: 1.94px;
      }

      .cls-10 {
        fill: #d04046;
        stroke: #9d2028;
      }

      .cls-5 {
        fill: #fbaa19;
      }

      .cls-11 {
        stroke: #9a302e;
        stroke-width: 8px;
      }

      .cls-6 {
        fill: #f6989b;
      }
    </style>
  </defs>
  <circle class="cls-2" cx="105.5" cy="105.5" r="105.5"/>
  <circle class="cls-8" cx="79.34" cy="153.88" r="8.87"/>
  <circle class="cls-7" cx="134.87" cy="154.07" r="9.68"/>
  <path class="cls-10" d="M161.6,98.24l-11.29,37.1c0,5.32-4.35,9.67-9.69,9.67h-73.37c-2.02,0-3.9-.63-5.44-1.69-2.27-.51-4.17-2.01-5.2-4.03-.57-1.06-.88-2.28-.88-3.56v-70.07h-16.03l23.6-4.12v27.02h88.62c5.32,0,9.68,4.35,9.68,9.68Z"/>
  <rect class="cls-9" x="32.75" y="60.25" width="33.5" height="6.5" rx="3.25" ry="3.25"/>
  <path class="cls-6" d="M63.75,90.75c28.27-.66,59.71-.65,88,0-28.3.65-59.72.66-88,0h0Z"/>
  <path class="cls-4" d="M161.6,98.24l-11.29,37.1c0,5.32-4.35,9.67-9.69,9.67h-73.37c-2.02,0-3.9-.63-5.44-1.69-2.27-.51-4.17-2.01-5.2-4.03,62.46.65,85.86-36.63,92.47-50.73h2.84c5.32,0,9.68,4.35,9.68,9.68Z"/>
  <g>
    <line class="cls-11" x1="51.8" y1="178" x2="165.8" y2="39"/>
    <circle class="cls-11" cx="105.5" cy="105.5" r="91"/>
  </g>
  <g>
    <circle class="cls-1" cx="148.75" cy="157.75" r="36"/>
    <g>
      <path class="cls-3" d="M150.29,178.25c-8.13,1.37-28.43-4.54-20.57-21.4,0,0,1.76,11.95,12.64,8.73,10.89-3.22,4.24-26.36-.27-28.53,0,0,17.47,4.78,17.74,19.51.04,2.34,1.07,4.61,2.95,5.99,2.01,1.47,4.49,1.52,5.76-5.27,0,0,7.45,16.63-18.26,20.97Z"/>
      <path class="cls-5" d="M149.67,175.86c-6.7,1.13-17-2-19-13,0,0,4.77,7.26,13.76,4.61,8.98-2.65,8.96-22.82,5.24-24.61,0,0,7.78,5.85,8,18,.04,1.93,2.05,2.97,3.61,4.11,1.66,1.22,5.35,3.5,6.39-2.11,0,0,3.22,9.42-18,13Z"/>
      <path class="cls-3" d="M129.67,152.86s1-5,4-5c0,0-4,4-4,5Z"/>
    </g>
  </g>
</svg>