<?xml version="1.0" encoding="UTF-8"?>
<svg xmlns="http://www.w3.org/2000/svg" viewBox="0 0 211 211">
  <defs>
    <style>
      .cls-1 {
        fill: #f0e771;
      }

      .cls-1, .cls-2 {
        stroke-width: 0px;
      }

      .cls-3 {
        fill: #fcc29c;
        stroke: #45140d;
        stroke-width: 2px;
      }

      .cls-3, .cls-4 {
        stroke-miterlimit: 10;
      }

      .cls-4 {
        fill: none;
        stroke: #fff;
        stroke-width: 3px;
      }

      .cls-2 {
        fill: #c8a8c6;
        mix-blend-mode: multiply;
        opacity: .48;
      }

      .cls-5 {
        isolation: isolate;
      }
    </style>
  </defs>
  <g class="cls-5">
    <g id="Layer_1" data-name="Layer 1">
      <g>
        <circle class="cls-1" cx="105.5" cy="105.5" r="105.5"/>
        <path class="cls-3" d="M175.2,161.96c-2.75,12.36-26.77,13.04-44.62,8.92-17.85-4.11-41.87,2.06-55.6,2.06s-13.73-2.74-19.22-4.11c-5.49-1.38-6.86,4.11-12.35,4.11-3.27,0-5.7-.77-7.5-1.98-6.54-4.37-4.86-14.49-4.86-14.49,0,0,6.87-1.37,13.73-2.75,6.87-1.37,16.47-10.98,28.83-17.84,12.36-6.87,34.32-1.37,37.07-19.22,2.74-17.85-13.73-89.23-13.73-89.23,18.34-5,35.16.12,45.54,4.91,6.72,3.11,10.74,6.07,10.74,6.07,0,0-6.86,34.32,6.87,68.64,13.72,34.32,17.84,42.56,15.1,54.91Z"/>
        <path class="cls-2" d="M80,150s21,2,32-10c0,0-22,9-32,10Z"/>
        <path class="cls-2" d="M175.2,161.96c-2.75,12.36-26.77,13.04-44.62,8.92-17.85-4.11-41.87,2.06-55.6,2.06s-13.73-2.74-19.22-4.11c-5.49-1.38-6.86,4.11-12.35,4.11-3.27,0-5.7-.77-7.5-1.98,7.94-2.56,20.09-8.96,20.09-8.96,0,0,24,8,39,3s51,0,65-6-4-36-10-57c-4.37-15.28-6.61-51.22-7.51-69.66,6.72,3.11,10.74,6.07,10.74,6.07,0,0-6.86,34.32,6.87,68.64,13.72,34.32,17.84,42.56,15.1,54.91Z"/>
        <line class="cls-4" x1="63.5" y1="112.5" x2="75.5" y2="123.5"/>
        <line class="cls-4" x1="75.5" y1="96.5" x2="83.5" y2="120.5"/>
      </g>
    </g>
  </g>
</svg>