<?xml version="1.0" encoding="UTF-8"?>
<svg id="Layer_1" data-name="Layer 1" xmlns="http://www.w3.org/2000/svg" xmlns:xlink="http://www.w3.org/1999/xlink" viewBox="0 0 211 211">
  <defs>
    <style>
      .cls-1 {
        fill: #fcc29c;
        stroke: #45140d;
        stroke-miterlimit: 10;
        stroke-width: 2.08px;
      }

      .cls-2 {
        fill: #c42025;
      }

      .cls-2, .cls-3, .cls-4, .cls-5, .cls-6 {
        stroke-width: 0px;
      }

      .cls-7 {
        clip-path: url(#clippath);
      }

      .cls-3 {
        fill: none;
      }

      .cls-8 {
        clip-path: url(#clippath-1);
      }

      .cls-4 {
        fill: #f0e771;
      }

      .cls-5, .cls-9 {
        isolation: isolate;
      }

      .cls-5, .cls-6 {
        fill: #c8a8c6;
      }

      .cls-5, .cls-10 {
        mix-blend-mode: multiply;
        opacity: .48;
      }
    </style>
    <clipPath id="clippath">
      <circle class="cls-3" cx="105.75" cy="105.5" r="105.5"/>
    </clipPath>
    <clipPath id="clippath-1">
      <circle class="cls-3" cx="105.95" cy="107.59" r="107.09"/>
    </clipPath>
  </defs>
  <g class="cls-7">
    <g class="cls-9">
      <g id="Layer_1-2" data-name="Layer 1">
        <g>
          <circle class="cls-4" cx="105.75" cy="105.5" r="105.5"/>
          <g class="cls-8">
            <g>
              <path class="cls-1" d="M195.36,199.08S61.25,165.8-3.21,139.82c-20.25-8.17-27.57-18.59-28.09-29.03-1.13-22.84,30.17-45.83,30.17-45.83,0,0,155.28,18.03,211.09,43.9,8.45,3.92,14.63,8,17.63,12.25,0,0,9.35,70.7-32.23,77.97h0Z"/>
              <path class="cls-2" d="M106.47,28.05s-21.84,7.28-14.56,19.75c7.28,12.47,6.24,19.75-2.08,23.91,0,0,15.59-13.51,12.47-22.87s-5.19-15.59,4.16-20.79Z"/>
              <path class="cls-2" d="M125.18,6.21s-18.72,22.87-9.35,33.27c9.35,10.4,7.42,21.66-3.57,32.66,0,0,21.24-16.03,17.08-33.7s-13.51-18.72-4.16-32.23h0Z"/>
              <g>
                <g class="cls-10">
                  <path class="cls-6" d="M60.72,96.67c3.59,5.48,8.11,12.85,14.72,14.62,2.23.47,4.43-.47,6.54-1.18,7.54-2.38,21.97-10.36,27.08-.45-2.83-4.35-8.37-4.04-12.8-2.66-4.57,1.34-8.96,3.4-13.6,5.06-2.42.79-5.04,1.8-7.65,1.13-7.24-2.1-11.59-10.09-14.3-16.54h0Z"/>
                </g>
                <g class="cls-10">
                  <path class="cls-6" d="M95.03,130.98c-4.67,7.35-11.42-15.33-22.54-11.27-1.1.31-2.12.84-3.17,1.35-3.18,1.55-6.62,3.27-9.91,4.6-4.56,1.91-10.5,3.63-13.25-1.95,1.46,1.87,3.57,3.23,5.98,2.8,4.61-.79,8.82-3.56,13.03-5.6,1.2-.57,3.69-1.95,4.89-2.47,15.48-7,19.72,19.09,24.96,12.55h0Z"/>
                </g>
                <g class="cls-10">
                  <path class="cls-6" d="M76.32,106.02c5.66-10.12,18.59-17.98,30.15-13.51-11.81-1.32-22.16,5.47-30.15,13.51h0Z"/>
                </g>
              </g>
              <path class="cls-5" d="M195.36,199.08S61.25,165.8-3.21,139.82c-20.25-8.17-27.57-18.59-28.09-29.03,38.94,14.15,187.11,69.99,223.54,58.15,22.5-7.31,22.48-35.63,17.72-60.07,8.45,3.92,14.63,8,17.63,12.25,0,0,9.35,70.7-32.23,77.97Z"/>
            </g>
          </g>
        </g>
      </g>
    </g>
  </g>
</svg>