<?xml version="1.0" encoding="UTF-8"?>
<svg id="Layer_1" data-name="Layer 1" xmlns="http://www.w3.org/2000/svg" xmlns:xlink="http://www.w3.org/1999/xlink" viewBox="0 0 211 211">
  <defs>
    <style>
      .cls-1 {
        fill: #fcc29c;
        stroke: #45140d;
        stroke-miterlimit: 10;
        stroke-width: 2.08px;
      }

      .cls-2 {
        clip-path: url(#clippath);
      }

      .cls-3 {
        fill: none;
      }

      .cls-3, .cls-4, .cls-5, .cls-6 {
        stroke-width: 0px;
      }

      .cls-7 {
        clip-path: url(#clippath-1);
      }

      .cls-4 {
        fill: #f0e771;
      }

      .cls-5 {
        fill: #ea333c;
      }

      .cls-6 {
        fill: #c8a8c6;
        mix-blend-mode: multiply;
        opacity: .48;
      }

      .cls-6, .cls-8 {
        isolation: isolate;
      }
    </style>
    <clipPath id="clippath">
      <circle class="cls-3" cx="105.5" cy="105.5" r="105.5"/>
    </clipPath>
    <clipPath id="clippath-1">
      <circle class="cls-3" cx="104.88" cy="106.12" r="106.67"/>
    </clipPath>
  </defs>
  <g class="cls-2">
    <g class="cls-8">
      <g id="Layer_1-2" data-name="Layer 1">
        <g>
          <circle class="cls-4" cx="105.5" cy="105.5" r="105.5"/>
          <g class="cls-7">
            <g>
              <path class="cls-1" d="M138.13,142.99c8.91,22.27,11.58,27.62,9.8,35.63-1.79,8.02-17.38,8.47-28.96,5.8-11.58-2.67-27.17,1.33-36.08,1.33s-8.91-1.78-12.47-2.67c-3.57-.88-4.45,2.67-8.02,2.67-6.14,0-7.73-4.2-8.06-7.34-.21-1.86.04-3.35.04-3.35,0,0,4.45-.9,8.91-1.78,4.45-.9,15.49-3.15,23.51-7.61,8.01-4.45,21.03-4.87,19.25-16.45C82.99-.75,77.3,6.73,79.39-12c15.52-4.24,52.8,1.5,67.64,4.07,3.9.68,6.25,1.13,6.25,1.13,0,0-24.05,127.52-15.14,149.79h0Z"/>
              <polygon class="cls-5" points="174.01 37.18 156.92 58.4 174.12 61.33 151.41 87.5 191.94 61.01 170.95 53.35 174.01 37.18"/>
              <path class="cls-6" d="M138.13,142.99c8.91,22.27,11.58,27.62,9.8,35.63-1.79,8.02-17.38,8.47-28.96,5.8-11.58-2.67-27.17,1.33-36.08,1.33s-8.91-1.78-12.47-2.67c-3.57-.88-4.45,2.67-8.02,2.67-6.14,0-7.73-4.2-8.06-7.34,2.99,1.39,8.55,3.59,11.51,2.11,4.16-2.08,11.45,2.08,19.77,2.08s26.02-6.24,40.59-4.16,13.53-5.2,14.57-12.49-11.45-19.77-10.41-59.32c.86-32.86,11.78-93.73,16.64-114.57,3.9.68,6.25,1.13,6.25,1.13,0,0-24.05,127.52-15.14,149.79Z"/>
            </g>
          </g>
        </g>
      </g>
    </g>
  </g>
</svg>