<?xml version="1.0" encoding="UTF-8"?>
<svg id="Layer_1" data-name="Layer 1" xmlns="http://www.w3.org/2000/svg" xmlns:xlink="http://www.w3.org/1999/xlink" viewBox="0 0 211 211">
  <defs>
    <style>
      .cls-1 {
        stroke-width: 1.37px;
      }

      .cls-1, .cls-2, .cls-3 {
        stroke-miterlimit: 10;
      }

      .cls-1, .cls-3 {
        stroke: #5fa3af;
      }

      .cls-1, .cls-3, .cls-4 {
        fill: #cae3ee;
        opacity: .76;
      }

      .cls-1, .cls-3, .cls-4, .cls-5, .cls-6, .cls-7 {
        isolation: isolate;
      }

      .cls-8 {
        clip-path: url(#clippath);
      }

      .cls-9 {
        fill: none;
      }

      .cls-9, .cls-10, .cls-11, .cls-4, .cls-5, .cls-7, .cls-12 {
        stroke-width: 0px;
      }

      .cls-10 {
        fill: #92cbdf;
      }

      .cls-13 {
        clip-path: url(#clippath-1);
      }

      .cls-11 {
        fill: #f0e771;
      }

      .cls-2 {
        fill: #fcc29c;
        stroke: #45140d;
        stroke-width: 2px;
      }

      .cls-3 {
        stroke-width: 1.73px;
      }

      .cls-5 {
        fill: #c8a8c6;
        opacity: .48;
      }

      .cls-5, .cls-7 {
        mix-blend-mode: multiply;
      }

      .cls-7 {
        fill: #99c9da;
      }

      .cls-12 {
        fill: #fff;
      }
    </style>
    <clipPath id="clippath">
      <circle class="cls-9" cx="105.5" cy="105.5" r="105.5"/>
    </clipPath>
    <clipPath id="clippath-1">
      <circle class="cls-9" cx="102.18" cy="105.83" r="103.5"/>
    </clipPath>
  </defs>
  <g class="cls-8">
    <g class="cls-6">
      <g id="Layer_1-2" data-name="Layer 1">
        <g>
          <circle class="cls-11" cx="105.5" cy="105.5" r="105.5"/>
          <g class="cls-13">
            <g>
              <path class="cls-2" d="M90.42,172.62c-5.08,3.34-14.41,5.71-30.74,5.71,0,0-9,3-9,34,0,0-5,15-38,3s0-1,0-1c0,0-96-137-10-169,0,0,12.62-4.48,27.61-2.42,14.21,1.96,30.57,9.79,40.33,32.91,0,0,2.06,11.51,6.06,13.51s19,12.31,19,15.66-8,9.34-7,12.34,8,8.44,7,12.72-7,6.28-10,6.28c0,0,10,0,10,5s-5,7-4,10c.69,2.06,9.84,14-1.26,21.29h0Z"/>
              <path class="cls-1" d="M131.19,76.48l.07.06c1.21,1.17-4.08,15.07-11.98,31.46-7.92,16.42-15.51,29.22-17.16,28.96l-.08-.02c-1.48-.71,3.85-14.82,11.9-31.51s15.77-29.65,17.24-28.93v-.02Z"/>
              <path class="cls-3" d="M129.75,75.8l62.39,39.91,4.58,2.92c4.9,31.37-21.41,44.4-21.41,44.4l-74.71-26.82c1.21.31,3.77-2.44,6.98-7.23,3.44-5.1,7.61-12.52,11.7-20.99,7.9-16.39,12.52-30.61,10.48-32.19h0Z"/>
              <path class="cls-4" d="M104.68,136.33l69.93,23.17s18.4-11.56,18.83-39.05l-1.76-4.12-87,20Z"/>
              <ellipse class="cls-10" cx="147.61" cy="125.78" rx="44.95" ry="3.9" transform="translate(-23.52 34.54) rotate(-12.37)"/>
              <path class="cls-12" d="M108.82,129.96c-.09.07-.16.21-.28.2-.09-.06-.01-.14,0-.21.36-.73,1.18-2.04,1.61-2.76,9.46-15.14,17.65-31.19,20.72-48.95,1.64,18.41-7.54,36.47-19.97,49.54-.6.62-1.73,1.69-2.3,2.32-.06-.07-.02,0,.01-.04.07-.03.13-.06.2-.1h.01Z"/>
              <path class="cls-12" d="M129.96,84.79c11.59,5.51,23.09,12.28,34.08,18.93,10.9,6.8,22.12,14,32.27,21.88-11.6-5.5-23.09-12.27-34.08-18.93-10.9-6.81-22.11-14.01-32.27-21.88h0Z"/>
              <path class="cls-7" d="M192.15,115.71l4.58,2.92c4.9,31.37-21.41,44.4-21.41,44.4l-74.71-26.82c1.21.31,3.77-2.44,6.98-7.23,2.36.52,17.24,6.99,32.69,12.79.46.16.92.33,1.37.51.46.16.93.33,1.38.51,15,5.5,29.85,10,33.72,7.45,6.46-4.25,12.21-22.81,14.52-31.22.41-1.45.71-2.59.89-3.31h-.01Z"/>
              <path class="cls-5" d="M90.42,172.62c-5.08,3.34-14.41,5.71-30.74,5.71,0,0-9,3-9,34,0,0-5,15-38,3s0-1,0-1c0,0-96-137-10-169,0,0,12.62-4.48,27.61-2.42-6.66,36.72-21.42,124.45,29.39,128.42,12.81,1,22.86,1.36,30.74,1.29Z"/>
              <circle class="cls-9" cx="102.68" cy="105.33" r="104"/>
            </g>
          </g>
        </g>
      </g>
    </g>
  </g>
</svg>