<?xml version="1.0" encoding="UTF-8"?>
<svg id="Layer_1" data-name="Layer 1" xmlns="http://www.w3.org/2000/svg" xmlns:xlink="http://www.w3.org/1999/xlink" viewBox="0 0 211 211">
  <defs>
    <style>
      .cls-1 {
        clip-path: url(#clippath);
      }

      .cls-2, .cls-3, .cls-4, .cls-5 {
        stroke-width: 0px;
      }

      .cls-2, .cls-6, .cls-7 {
        fill: none;
      }

      .cls-3 {
        fill: #f0e771;
      }

      .cls-8 {
        fill: #fcc29c;
        stroke: #45140d;
        stroke-miterlimit: 10;
        stroke-width: 2px;
      }

      .cls-6 {
        stroke-miterlimit: 10;
        stroke-width: 1px;
      }

      .cls-6, .cls-7 {
        stroke: #c42025;
      }

      .cls-7 {
        stroke-miterlimit: 10;
        stroke-width: 1px;
      }

      .cls-4 {
        fill: #c8a8c6;
        mix-blend-mode: multiply;
        opacity: .48;
      }

      .cls-4, .cls-9 {
        isolation: isolate;
      }

      .cls-5 {
        fill: #fff;
      }
    </style>
    <clipPath id="clippath">
      <circle class="cls-2" cx="105.17" cy="108.6" r="102.5"/>
    </clipPath>
  </defs>
  <g class="cls-9">
    <g id="Layer_1-2" data-name="Layer 1">
      <g>
        <circle class="cls-3" cx="105.5" cy="105.5" r="105.5"/>
        <g class="cls-1">
          <g>
            <path class="cls-8" d="M162.14,144.49c-.53,2.81-8.23,6.62-7.85,9.31.37,2.69,5.42,8.38,3.9,11.83-1.48,3.39-6.66,4.16-9.24,3.76,1.22.26,8.19,1.92,7.47,5.76-.79,4.23-5.32,5.13-4.96,7.81.31,2.27,9.13,19.25-14.68,19.48-4.35.05-9.79-.46-16.57-1.73,0,0-3.99.55-8.05,9.96h0c-1.72,3.99-3.45,9.54-4.9,17.31,0,0-4.26,7.69-19.46,2.7-3.68-1.2-8.01-3.16-13.08-6.15l-.76-9.56c-.74-19.95-12.93-27.18-27.8-52.35-7.46-12.62-10.3-27.56-7.52-41.95,3.46-17.95,14.05-28.36,25-34.22,9.85-5.29,20.01-6.9,25.54-7,2.51-.05,5.02-.16,7.53-.29,10.61-.51,41.1,1.21,48.87,36.77,0,0-.07,10.03,2.99,12.35,3.06,2.32,14.1,13.38,13.57,16.21h0Z"/>
            <ellipse class="cls-6" cx="99.87" cy="47.97" rx="67.56" ry="8.7" transform="translate(-9.05 27.66) rotate(-15.09)"/>
            <ellipse class="cls-7" cx="99.88" cy="48.21" rx="8.09" ry="62.82" transform="translate(31.74 135.71) rotate(-77.86)"/>
            <path class="cls-4" d="M87.8,230.68c-3.68-1.2-8.01-3.16-13.08-6.15l-.76-9.56c-.74-19.95-12.93-27.18-27.8-52.35-7.46-12.62-10.3-27.56-7.52-41.95,3.46-17.95,14.05-28.36,25-34.22-6.54,16.19-16.15,49.32.53,76.15,17.91,28.8,22.48,57,23.63,68.08h0Z"/>
            <path class="cls-4" d="M136.78,202.44c-4.35.05-9.79-.46-16.57-1.73,0,0-3.99.55-8.05,9.96-5.47-8.67-8.49-14.57-8.49-14.57,7,5.83,22.28,3.14,33.11,6.34Z"/>
          </g>
        </g>
        <path class="cls-5" d="M123,18s4,11-3,12c0,0,7.75,1.35,9.8,7.5,0,0-1.95-11.5,4.2-11.5,0,0-7.7,3-11-8Z"/>
        <path class="cls-5" d="M81.74,51.39s0,8.21-4.85,7.19c0,0,4.79,2.75,4.67,7.29,0,0,1.47-8.05,5.52-6.58,0,0-5.8.13-5.34-7.91h0Z"/>
      </g>
    </g>
  </g>
</svg>