<?xml version="1.0" encoding="UTF-8"?>
<svg xmlns="http://www.w3.org/2000/svg" xmlns:xlink="http://www.w3.org/1999/xlink" viewBox="0 0 211 211">
  <defs>
    <style>
      .cls-1 {
        clip-path: url(#clippath);
      }

      .cls-2 {
        fill: none;
      }

      .cls-2, .cls-3, .cls-4, .cls-5 {
        stroke-width: 0px;
      }

      .cls-6 {
        fill: #fdc199;
        stroke: #480c01;
        stroke-miterlimit: 10;
        stroke-width: 2.29px;
      }

      .cls-3 {
        fill: #a19521;
      }

      .cls-7 {
        clip-path: url(#clippath-1);
      }

      .cls-4 {
        fill: #c7a6c5;
        mix-blend-mode: multiply;
        opacity: .48;
      }

      .cls-5 {
        fill: #efe770;
      }

      .cls-8 {
        isolation: isolate;
      }
    </style>
    <clipPath id="clippath">
      <circle class="cls-2" cx="105.5" cy="105.5" r="105.5"/>
    </clipPath>
    <clipPath id="clippath-1">
      <circle class="cls-2" cx="110.5" cy="103.5" r="112.5"/>
    </clipPath>
  </defs>
  <g class="cls-8">
    <g id="Layer_1" data-name="Layer 1">
      <g class="cls-1">
        <circle class="cls-5" cx="105.5" cy="105.5" r="105.5"/>
        <g class="cls-7">
          <path class="cls-6" d="M115.81,126.64c-.61,3.22-9.43,7.59-9,10.67.42,3.08,6.21,9.61,4.47,13.56-1.7,3.89-7.63,4.77-10.59,4.31,1.4.3,9.39,2.2,8.56,6.6-.91,4.85-6.1,5.88-5.69,8.95.36,2.6,10.47,22.07-16.83,22.33-4.99.06-11.22-.53-18.99-1.98,0,0-4.57.63-9.23,11.42h0c-1.97,4.57-3.95,10.94-5.62,19.84,0,0-4.88,8.82-22.31,3.1-4.22-1.38-9.18-3.62-14.99-7.05l-.87-10.96c-.85-22.87-14.82-31.16-31.87-60.01-8.55-14.47-11.81-31.59-8.62-48.09,3.97-20.58,16.11-32.51,28.66-39.23,11.29-6.06,22.94-7.91,29.28-8.02,2.88-.06,5.75-.18,8.63-.33,12.16-.58,47.11,1.39,56.02,42.15,0,0-.08,11.5,3.43,14.16,3.51,2.66,16.16,15.34,15.56,18.58Z"/>
          <path class="cls-4" d="M44.59,214.45c-4.22-1.38-9.18-3.62-14.99-7.05l-.87-10.96c-.85-22.87-14.82-31.16-31.87-60.01-8.55-14.47-11.81-31.59-8.62-48.09,3.97-20.58,14.21-26.62,26.77-33.34-7.5,18.56-16.62,50.65,2.5,81.4,20.53,33.01,25.77,65.34,27.09,78.04Z"/>
          <path class="cls-4" d="M86.74,193.07c-4.99.06-11.22-.53-18.99-1.98,0,0-4.57.63-9.23,11.42-6.27-9.94-9.73-16.7-9.73-16.7,8.02,6.68,25.54,3.6,37.96,7.27Z"/>
        </g>
        <path class="cls-3" d="M124.5,151.5s32-17,36-8-4,9-4,9c0,0,30,1,24,17s-21.4,8.81-25,1c-6-13-24-22-31-19Z"/>
        <path class="cls-3" d="M128.5,161.5c2,4,6,10,6,19s12,10,10-1-16-18-16-18Z"/>
      </g>
    </g>
  </g>
</svg>