<?xml version="1.0" encoding="UTF-8"?>
<svg xmlns="http://www.w3.org/2000/svg" viewBox="0 0 211 211">
  <defs>
    <style>
      .cls-1 {
        fill: #5eb260;
        stroke: #3c8a41;
      }

      .cls-1, .cls-2 {
        stroke-miterlimit: 10;
        stroke-width: 3px;
      }

      .cls-3 {
        fill: #9fd194;
      }

      .cls-3, .cls-4, .cls-5, .cls-6, .cls-7, .cls-8, .cls-9 {
        stroke-width: 0px;
      }

      .cls-4 {
        fill: #3c8a41;
      }

      .cls-5 {
        fill: #84d0d4;
      }

      .cls-6 {
        fill: #3b8c42;
      }

      .cls-7 {
        fill: #231f20;
      }

      .cls-10 {
        isolation: isolate;
      }

      .cls-8 {
        mix-blend-mode: multiply;
      }

      .cls-8, .cls-2 {
        fill: #415a87;
      }

      .cls-2 {
        stroke: #231f20;
      }

      .cls-9 {
        fill: #a5bcde;
      }
    </style>
  </defs>
  <g class="cls-10">
    <g id="Layer_1" data-name="Layer 1">
      <g>
        <circle class="cls-5" cx="105.5" cy="105.5" r="105.5"/>
        <path class="cls-2" d="M113.56,107.36s-17.84,16.56-40.78,10.19l-6.37-12.74-7.65,12.74s-1.65.37-5.23.13c-5.85-.39-16.87-2.41-34.27-10.32l11.47-57.35h72.64l10.19,57.35Z"/>
        <path class="cls-7" d="M30.21,57.41c24.97,1.65,49.94,1.38,74.91,0-1.54.27-3.09.52-4.64.75-23.23,3.35-47.14,3.39-70.27-.75h0Z"/>
        <path class="cls-7" d="M88.57,60.89c4.47,8.03,10.47,13.61,20.04,13.94-2.15.57-4.49.88-6.77.38-6.89-1.19-12.15-7.62-13.26-14.32h0Z"/>
        <path class="cls-7" d="M46.76,59.15c-.96,9.46-9.85,19.78-20.04,15.68,10.32.75,16.02-7.33,20.04-15.68h0Z"/>
        <path class="cls-7" d="M67.66,60.02c1.37,14.89,1.38,29.89,0,44.78-1.38-14.89-1.37-29.89,0-44.78h0Z"/>
        <path class="cls-9" d="M74.91,52.51c-14.31,1.02-28.64,1.59-42.98,1.98,0,0,.94-.8.94-.8-1.62,8.84-3.35,17.66-5.14,26.47-1.82,8.81-3.71,17.6-5.82,26.35,1.85-13.36,4.12-26.66,6.55-39.93.86-4.68,1.72-9.36,2.64-14.03,0,0,.79-.02.79-.02,14.34-.28,28.68-.38,43.02-.02h0Z"/>
        <path class="cls-8" d="M113.56,107.36s-17.84,16.56-40.78,10.19l-6.37-12.74-7.65,12.74s-1.65.37-5.23.13c15.33-16.67,32.74-52.17,39.97-67.67h9.87l10.19,57.35Z"/>
        <path class="cls-1" d="M187.17,99.95c-3.36,8.39-16.79,18.46-16.79,18.46l-5.03-10.07v72.19c-12.9,3.68-25.78,4.67-36.94,4.45-11.16.22-24.04-.77-36.94-4.45v-72.19l-5.03,10.07s-13.43-10.07-16.79-18.46c0,0,7.71-20,15.11-25.19,16.79-11.75,26.86-11.75,26.86-11.75l.02.02c5.49,6.09,11.43,7.75,16.77,7.38,5.34.37,11.28-1.29,16.77-7.38l.02-.02s10.07,0,26.86,11.75c5.57,3.9,11.31,16.19,13.81,22.03.83,1.93,1.3,3.16,1.3,3.16Z"/>
        <path class="cls-4" d="M145.19,63.01s2.86,22.5-17.29,22.5c-21.89,0-18-22-18-22l1.73-.48s6.27,8.29,16.77,7.39,16.79-7.4,16.79-7.4Z"/>
        <path class="cls-3" d="M108.91,65.51c-6,2.89-11.99,5.58-17.5,9.19-2.44,1.6-4.65,3.31-6.26,5.64-1.87,2.95-3.87,6.17-5.75,9.11-2.38,3.74-4.82,7.46-7.48,11.06,2.78-7.33,6.31-14.29,10.28-21.03.21-.39.71-1.12.98-1.47,5.58-7.11,17.13-10.89,25.74-12.5h0Z"/>
        <path class="cls-6" d="M187.17,99.95c-3.36,8.39-16.79,18.46-16.79,18.46l-5.03-10.07v72.19c-12.9,3.68-25.78,4.67-36.94,4.45-11.16.22-24.04-.77-36.94-4.45v-10.15c16.27,3.41,59.84,10.86,63.94-6.37,5-21,6-72,6-72,0,0,11.01,13.56,24.46,4.78.83,1.93,1.3,3.16,1.3,3.16Z"/>
      </g>
    </g>
  </g>
</svg>