<?xml version="1.0" encoding="UTF-8"?>
<svg xmlns="http://www.w3.org/2000/svg" xmlns:xlink="http://www.w3.org/1999/xlink" viewBox="0 0 211 211">
  <defs>
    <style>
      .cls-1 {
        clip-path: url(#clippath);
      }

      .cls-2, .cls-3, .cls-4, .cls-5, .cls-6, .cls-7, .cls-8, .cls-9 {
        stroke-width: 0px;
      }

      .cls-2, .cls-10 {
        fill: none;
      }

      .cls-3, .cls-11 {
        fill: #d92731;
      }

      .cls-4 {
        fill: #bbc9e1;
      }

      .cls-10 {
        stroke-width: 1.89px;
      }

      .cls-10, .cls-11, .cls-12, .cls-13 {
        stroke-miterlimit: 10;
      }

      .cls-10, .cls-12, .cls-13 {
        stroke: #182135;
      }

      .cls-5 {
        fill: #84d0d4;
      }

      .cls-6 {
        mix-blend-mode: multiply;
      }

      .cls-6, .cls-13 {
        fill: #556e9f;
      }

      .cls-14 {
        isolation: isolate;
      }

      .cls-11 {
        stroke: #9b1c21;
      }

      .cls-11, .cls-12, .cls-13 {
        stroke-width: 1.94px;
      }

      .cls-7 {
        fill: #182135;
      }

      .cls-8 {
        fill: #779bd1;
      }

      .cls-9 {
        fill: #fff;
      }

      .cls-12 {
        fill: #304166;
      }
    </style>
    <clipPath id="clippath">
      <circle class="cls-2" cx="106.92" cy="105.5" r="106"/>
    </clipPath>
  </defs>
  <g class="cls-14">
    <g id="Layer_1" data-name="Layer 1">
      <g>
        <circle class="cls-5" cx="105.42" cy="106" r="105.5"/>
        <g class="cls-1">
          <g>
            <g>
              <path class="cls-13" d="M92.52,151.94v189.35c0,2.04-1.68,3.72-3.72,3.72s-3.72-1.67-3.72-3.72v-189.35c0-2.05,1.67-3.72,3.72-3.72.55,0,1.07.12,1.55.34.4.18.77.44,1.09.75.26.26.48.56.65.89.28.52.44,1.12.44,1.74Z"/>
              <path class="cls-13" d="M91.89,151.72c-2.15.59-4.46.63-6.81.29-1.14-.16-2.3-.42-3.45-.74-12.7-3.57-24.13-14.98-25.11-28.14-.68-9.18-1.05-20.54.2-29.33.22-1.56.49-3.04.82-4.41,4.06-16.9,30.93-27.87,30.93-27.87-10.77,34.16-6.57,61.16-2.01,76.4,1.41,4.71,2.85,8.31,3.89,10.64.93,2.08,1.55,3.16,1.55,3.16Z"/>
              <path class="cls-13" d="M92.52,151.94s-.16-.61-.44-1.74c-2.44-10.02-13.85-60.77-.8-88.56,0,0,9.78.95,12.94,19.25,2.59,15.04,12.26,67.31-11.69,71.05Z"/>
              <path class="cls-6" d="M92.52,151.94v24.24c-2,1.46-4.78,2.01-7.44-2.4v-21.77c-1.14-.16-2.3-.42-3.45-.74-12.7-3.57-24.13-14.98-25.11-28.14-.68-9.18-1.05-20.54.2-29.33,4.15,16.58,13.84,44.8,29.74,44.12.66-.03,1.31-.1,1.99-.23,0,0-11.36-67.53,2.84-76.05,0,0,9.78.95,12.94,19.25,2.59,15.04,12.26,67.31-11.69,71.05Z"/>
              <path class="cls-7" d="M120.24,35.96c6.39,21.67,9.08,44.35,9.29,66.91.19,22.54-2.84,45.28-9.29,66.88,0,0,1.9-8.24,1.9-8.24.61-2.49,1.34-5.79,1.71-8.27,4.23-22.05,5.23-44.86,3.91-67.23-1.17-16.71-3.4-33.81-7.52-50.05h0Z"/>
              <path class="cls-7" d="M85.76,106.96c19.94-2.73,40.44-4.34,60.46-1.61,2.86.4,5.7.97,8.51,1.61-1.43-.18-2.86-.36-4.29-.57-21.5-2.49-43.16-.67-64.69.57h0Z"/>
              <path class="cls-7" d="M140.86,53.77c-2.24,30.69-11.2,66-31.89,89.55-3.13,3.38-6.51,6.53-10.21,9.25,3.52-2.95,6.79-6.17,9.74-9.66,20.01-24.3,28.44-58.43,32.35-89.14h0Z"/>
              <path class="cls-11" d="M150.74,125.92c-4.8,27.56-17.85,47.32-33.2,47.32-19.42,0-35.17-31.64-35.17-70.67s15.75-70.67,35.17-70.67,34.79,30.89,35.15,69.27c-.44-36.17-14.8-65.21-32.45-65.21s-32.46,29.97-32.46,66.94,14.53,66.95,32.46,66.95c14,0,25.94-18.3,30.49-43.93Z"/>
              <path class="cls-7" d="M92.75,131.95c18.5-15.11,38.41-30.34,55.84-46.58,0,0,3.43-3.43,3.43-3.43-8.37,9.88-18.42,18.27-28.32,26.56-9.89,8.02-20.47,16.19-30.96,23.45h0Z"/>
              <path class="cls-7" d="M105.64,42.61c12.52,29.59,34.64,89.24,30.93,120.28.78-10.41-1.02-20.77-3.08-30.93-2.12-10.18-4.8-20.24-7.79-30.2-5.88-19.97-12.8-39.63-20.06-59.14h0Z"/>
              <path class="cls-7" d="M133.13,40.89c-.68,21.59-2.71,43.13-5.9,64.49-2.91,17.25-6.01,34.83-13.34,50.85-.4.9-1.35,2.75-1.86,3.61-1.27,2.39-2.88,4.59-4.64,6.63,17.35-21.64,23.18-95.82,25.73-125.59h0Z"/>
              <ellipse class="cls-10" cx="127.25" cy="100.45" rx="20.51" ry="45.44"/>
              <path class="cls-3" d="M125.41,61.81s11.99-3.29,18.75.77c6.76,4.06,16.91,6.76,24.34,2.7s18.93-4.06,18.93-4.06c0,0-14.2.68-23.67,1.35-9.47.68-28.71-6.95-38.36-.77Z"/>
              <path class="cls-9" d="M118.1,82.78c1.64-5.63,6.77-18.53,14.42-15.81,5.32,2.56,7.41,9.92,8.94,15.18-2.04-4.52-3.82-9.36-7.46-12.79-7.05-6.21-13.43,8.38-15.9,13.42h0Z"/>
              <g>
                <g>
                  <path class="cls-9" d="M102.64,90.03c-1.46,18.08-1.55,43.81,13.88,56.17-2.14-1.35-4.04-3.07-5.73-4.98-11.02-13.44-11.09-34.84-8.16-51.19h0Z"/>
                  <path class="cls-9" d="M149.97,102.66c-.03,13.71-3.23,47.51-19.75,50.63-2.78.41-5.57-.24-8.02-1.4,2.56.89,5.31,1.38,7.91.79,15.2-3.44,18.43-36.88,19.86-50.02h0Z"/>
                  <path class="cls-9" d="M100.25,78.67c-.45-.29-.47-.92-.54-1.4-.16-3.59.81-7.13,1.88-10.53,3.19-9.44,9.67-19.61,20.18-21.57,2.04-.33,4.12-.32,6.12.04-12.91-.89-21.26,11.08-25.38,21.85-1.22,3.28-2.39,6.68-2.6,10.19.01.48-.04,1.06.35,1.4h0Z"/>
                </g>
                <path class="cls-9" d="M114.31,109.28c1.13,8.07,2.78,27.96,12.9,29.11,1.59.17,3.2-.21,4.77-.71-1.46.76-3.08,1.29-4.8,1.33-11.42-.53-13.22-21.03-12.87-29.73h0Z"/>
              </g>
              <path class="cls-7" d="M93.17,67.31c7.1.97,14.48,4.11,18.65,10.2,2.74,5.08,6.02,10.16,8.95,15.46.79,1.44,1.61,2.87,2.38,4.32-.97-1.33-1.89-2.69-2.83-4.04-2.8-4.09-5.53-8.24-8.15-12.45-3.31-7.53-11.48-11.34-19-13.49h0Z"/>
              <path class="cls-7" d="M88.94,84.97c6.69,1.51,13.53,2.56,19.89,5.2,3.08,1.55,5.99,3.35,8.9,5.17,11.33,7.46,23.02,15.85,29.68,27.99,1.56,3.06,2.55,6.51,2.24,9.94.02-3.43-1.08-6.74-2.79-9.65-5.16-8.81-13.3-15.42-21.39-21.48-5.45-4.06-11.17-7.8-17.09-11.11-6.15-2.77-12.99-4.07-19.44-6.06h0Z"/>
              <g>
                <ellipse class="cls-12" cx="131.79" cy="100.97" rx="8.11" ry="16.23"/>
                <path class="cls-8" d="M127.13,91.05c2.67-7.01,8.11-6.53,11.01.04,1.99,4.63,1.86,9.96.9,14.79-.79,3.1-1.62,6.66-4.21,8.76,1.9-2.6,2.22-5.94,2.72-9.01.46-4.26.52-8.64-.7-12.76-2.16-6.32-5.56-7.88-9.71-1.82h0Z"/>
              </g>
              <path class="cls-4" d="M58.79,89.38c4.3-10.58,13.33-20.35,24.82-22.72-2.58,1.33-5.05,2.67-7.34,4.34-6.92,4.97-12.45,11.53-17.48,18.39h0Z"/>
            </g>
            <path class="cls-11" d="M152.69,101.17s-.95,18.67-1.96,24.75"/>
          </g>
        </g>
      </g>
    </g>
  </g>
</svg>