<?xml version="1.0" encoding="UTF-8"?>
<svg xmlns="http://www.w3.org/2000/svg" viewBox="0 0 211 211">
  <defs>
    <style>
      .cls-1 {
        fill: #63b5c9;
      }

      .cls-1, .cls-2, .cls-3, .cls-4, .cls-5, .cls-6, .cls-7, .cls-8, .cls-9, .cls-10, .cls-11 {
        stroke-width: 0px;
      }

      .cls-2 {
        fill: #b7b533;
      }

      .cls-12, .cls-4 {
        fill: #edd615;
      }

      .cls-12, .cls-13 {
        stroke: #b7b533;
      }

      .cls-12, .cls-13, .cls-14, .cls-15 {
        stroke-miterlimit: 10;
      }

      .cls-12, .cls-15 {
        stroke-width: 3px;
      }

      .cls-3 {
        fill: #94d9f3;
        opacity: .63;
      }

      .cls-4, .cls-5, .cls-6, .cls-11 {
        mix-blend-mode: multiply;
      }

      .cls-5, .cls-15 {
        fill: #8ed2ea;
      }

      .cls-6 {
        opacity: .61;
      }

      .cls-6, .cls-14 {
        fill: #286e82;
      }

      .cls-7 {
        fill: #84d0d4;
      }

      .cls-8 {
        fill: #fff39a;
      }

      .cls-9 {
        fill: #231f20;
      }

      .cls-13 {
        fill: none;
      }

      .cls-10 {
        fill: #f2fafe;
      }

      .cls-11 {
        fill: #c8a8c6;
        opacity: .48;
      }

      .cls-16 {
        isolation: isolate;
      }

      .cls-14 {
        stroke: #104c58;
        stroke-width: 1.61px;
      }

      .cls-15 {
        stroke: #5fa3af;
      }
    </style>
  </defs>
  <g class="cls-16">
    <g id="Layer_1" data-name="Layer 1">
      <g>
        <circle class="cls-7" cx="105.5" cy="105.5" r="105.5"/>
        <g>
          <path class="cls-15" d="M90.27,168.57c-.12,4.83-4.09,8.87-9.12,8.87h-29.91c-5.49,0-9.75-4.84-9.04-10.3l13.2-83.14h21.32l12.84,79.1.59,3.81c.09.56.12,1.1.11,1.65Z"/>
          <path class="cls-14" d="M114.11,81.4c-.15-.3-5.22-6.09-8.7-12.18-3.22-5.63-6.79-17.92-5.73-22.18l-2.43-9.71.81-.4,1.62-.8,1.22,1.2,12.13-3.63-.34-1.36-.35-1.37-1.74-6.97-12.13,1.21,1.21,2.43-4.85,1.22-1.21-4.85-30.33,8.49-20.76,13.84-1.06.7,14.56,7.28v18.21s-2.43,0-2.43,3.63v8.5s12.11-3.64,24.25,0v-9.7s0-1.23-2.43-1.23v-15.76s3.64,1.2,6.07-1.23l8.49,3.65,1.22,2.43,1.61-.41,3.24-.82s-.1,3.85,2.41,7.63c3.48,5.22,12.18,11.31,11.31,11.31,3.48,3.48,5.57,3.3,4.35.87ZM47.53,45.84c-1.68-.4,16.98-10.93,16.98-10.93,0,0-.4,14.9-16.98,10.93ZM88.89,54.44l-13.47-4.97,15.78-4.85-2.3,9.83Z"/>
          <path class="cls-6" d="M77.85,74.95v9.7c-12.13-3.65-24.25,0-24.25,0v-8.5c0-3.63,2.43-3.63,2.43-3.63v-18.2l-14.56-7.28,1.06-.71c4.98,1.56,19.17,6.17,19.17,7.49,0,1.61-1.61,14.46,1.61,14.46,2.28,0,8.63-.82,12.11-1.29v6.73c2.43,0,2.43,1.22,2.43,1.22Z"/>
          <path class="cls-9" d="M56.02,72.52c6.49-.34,12.92-.43,19.41,0-6.27,1.79-13.14,1.86-19.41,0h0Z"/>
          <path class="cls-11" d="M65.91,111.66c-.18.21-.39.43-.59.64.19-.22.35-.47.53-.71.02.02.05.05.06.06Z"/>
          <path class="cls-1" d="M68.13,32.93c7.71-3.19,15.83-5.37,24.1-6.43-7.7,3.2-15.83,5.36-24.1,6.43h0Z"/>
          <path class="cls-1" d="M101.87,26.51c2.34-1.59,5.26-2.18,8.03-1.61-2.34,1.59-5.26,2.17-8.03,1.61h0Z"/>
          <path class="cls-6" d="M113.03,33.71l-12.13,3.63-1.22-1.2-1.62.8-.81.4-2.43-8.48,4.85-1.22s3.63,7.77,13.01,4.71l.34,1.36Z"/>
          <path class="cls-5" d="M90.27,168.57c-.12,4.83-4.09,8.87-9.12,8.87h-29.91c-5.49,0-9.75-4.84-9.04-10.3l13.2-83.14h7.51l-9.66,75.66s0,9.57,13.91,8.7c7.64-.48,16.6-.17,23.12.21Z"/>
        </g>
        <path class="cls-10" d="M74.5,89.5c5.35,24.09,9.36,48.47,12,73-5.36-24.09-9.35-48.47-12-73h0Z"/>
        <g>
          <path class="cls-12" d="M198.5,94.5c-9,18-28,54-55,62-21.91,6.49-44.48-2.16-48.47-12.07-.93-2.3-.85-4.67.47-6.93,7-12,38-26,38-29,0,0,5-3,8-9s8-30,24-31c9.7-.61,23.09,2.47,30.11,9,4.55,4.23,6.43,9.92,2.89,17Z"/>
          <path class="cls-13" d="M189.5,87.5s-26,55-54,61"/>
          <path class="cls-4" d="M198.5,94.5c-9,18-28,54-55,62-21.91,6.49-44.48-2.16-48.47-12.07,10.83,4.6,38.42,10.74,53.47-1.93.19-.16.39-.33.58-.51,11.38-9.78,24.11-26.89,34.38-43.29.43-.67.85-1.35,1.27-2.02.01-.04.04-.08.06-.11.59-.97,1.18-1.93,1.75-2.88,3.44-5.71,6.52-11.22,9.07-16.19,4.55,4.23,6.43,9.92,2.89,17Z"/>
          <path class="cls-8" d="M172,71c-8.54-1.79-16.25,2.41-19.78,10.24-3.74,7.33-7.03,14.85-10.56,22.35-.71,1.42-1.39,2.85-2.27,4.2-1.48,2.07-4.46,3.36-6.49,4.82-6.16,3.83-14.96,9.25-21,13.08-3.37,2.29-7.17,4.24-9.9,7.3,1.09-1.76,2.84-3.02,4.41-4.34,4.84-3.88,9.98-7.38,15.12-10.83,3.42-2.31,6.9-4.54,10.34-6.81,1.7-1.13,3.49-2.25,5.07-3.42.38-.28.54-.48.81-.9,4.34-7.91,8.57-18.41,13.1-26.19,3.94-8.02,12.48-12.24,21.15-9.51h0Z"/>
          <path class="cls-3" d="M149.62,87.65s-5.12,19.85-11.12,22.85-18,6-14,11,7,3,12,9,17,7,19,0,9-12,14-20,9-23,0-25-15.77-3.71-19.88,2.15Z"/>
          <g>
            <ellipse class="cls-2" cx="161" cy="86" rx="4.5" ry="2.5"/>
            <ellipse class="cls-2" cx="161" cy="108.5" rx="1.5" ry="2"/>
            <ellipse class="cls-2" cx="138" cy="122.5" rx="3.5" ry="2"/>
            <ellipse class="cls-2" cx="121" cy="136.5" rx="1.5" ry="2"/>
            <ellipse class="cls-2" cx="150.5" cy="125.5" rx="2" ry="1"/>
            <circle class="cls-2" cx="178" cy="83" r="1.5"/>
            <ellipse class="cls-2" cx="127" cy="152.5" rx="1.5" ry="1"/>
            <circle class="cls-2" cx="164" cy="138" r="1.5"/>
            <circle class="cls-2" cx="185.5" cy="96.5" r="3"/>
            <ellipse class="cls-2" cx="195.5" cy="87" rx="1" ry="1.5"/>
          </g>
        </g>
      </g>
    </g>
  </g>
</svg>