<?xml version="1.0" encoding="UTF-8"?>
<svg xmlns="http://www.w3.org/2000/svg" xmlns:xlink="http://www.w3.org/1999/xlink" viewBox="0 0 211 211">
  <defs>
    <style>
      .cls-1 {
        fill: #4d4b49;
        stroke: #1e1d1c;
      }

      .cls-1, .cls-2, .cls-3 {
        stroke-miterlimit: 10;
      }

      .cls-1, .cls-3 {
        stroke-width: 2.12px;
      }

      .cls-4 {
        clip-path: url(#clippath);
      }

      .cls-5 {
        fill: none;
      }

      .cls-5, .cls-6, .cls-7, .cls-8, .cls-9 {
        stroke-width: 0px;
      }

      .cls-2 {
        fill: #4eafb2;
        stroke: #106f6c;
        stroke-width: 2.35px;
      }

      .cls-6 {
        fill: #84d0d4;
      }

      .cls-3 {
        fill: #fcc29c;
        stroke: #45140d;
      }

      .cls-7 {
        fill: #94d9f3;
        opacity: .43;
      }

      .cls-8 {
        fill: #106f6c;
      }

      .cls-9 {
        fill: #c8a8c6;
        mix-blend-mode: multiply;
        opacity: .48;
      }

      .cls-10 {
        isolation: isolate;
      }
    </style>
    <clipPath id="clippath">
      <circle class="cls-5" cx="106" cy="105" r="105"/>
    </clipPath>
  </defs>
  <g class="cls-10">
    <g id="Layer_1" data-name="Layer 1">
      <g>
        <path class="cls-6" d="M210.89,110.33c-1.38,30.13-15.27,56.72-36.42,75-4.7,4.07-9.77,7.72-15.14,10.91-8.21,4.88-17.12,8.68-26.53,11.19-10.21,2.74-21.01,3.97-32.13,3.46-10.01-.46-19.64-2.3-28.69-5.34-2.73-.9-5.41-1.92-8.03-3.05-5.54-2.37-10.83-5.2-15.83-8.45l-.08-.05C17.71,174.26-1.67,139.43.11,100.67,2.78,42.46,52.13-2.56,110.33.11c58.21,2.67,103.23,52.02,100.56,110.22Z"/>
        <g class="cls-4">
          <path class="cls-8" d="M82.1,113.46c-8.5,2.12-21.24,20.18-21.24,20.18,0,0,4.25,43.54,5.31,46.72,1.06,3.19,13.8,9.56,13.8,9.56l35.04-2.12,25.49,5.31,8.5-8.5,4.25-48.85-12.9-20.42-58.25-1.88Z"/>
          <path class="cls-3" d="M159.48,201.16c-.03.05-.05.1-.05.16-8.71,5.19-18.18,9.22-28.17,11.89-10.84,2.91-22.31,4.21-34.12,3.67-10.63-.49-20.85-2.44-30.46-5.67-2.9-.96-5.75-2.04-8.53-3.24l13.19-22.97,6.4-11.15.89-1.53s3.15-3.42,4.21-12.34c.32-2.76.45-6.04.22-9.92,0,0,5.03-.76,11.49-1.43,8.14-.84,18.54-1.53,24.07-.38,2.21.46,3.63,1.22,3.83,2.38l.04,1.48v.21c-.7,4.77.03,9.16,1.44,13.03,2.71,7.43,8.27,13.38,15.23,16.92.47.25.95.47,1.44.69,0,0,2.34,1.99,5.39,4.65,1.62,1.42,3.43,3.02,5.19,4.63,4.54,4.12,8.73,8.22,8.3,8.92Z"/>
          <path class="cls-3" d="M140.5,127.27v.07c-.36,5.41-2.4,10.61-5.95,14.71-3.57,4.13-7.63,7.54-12.06,10.06-5.54,3.15-11.66,4.89-18.09,4.89-7.66,0-14.86-2.47-21.2-6.85-.04-.03-.09-.06-.14-.09-.91-.63-1.78-1.31-2.61-2.03-6.36-5.5-10.26-13.41-11.07-21.88-1.24-12.94-1.17-25.9.31-37.77,3.45-27.67,14.51-49.43,34.28-51.26,0-.03,0-.06.01-.09h0c.14-.02.28-.02.42-.02.33,0,.64,0,.97.02,3.98.11,7.83.88,11.48,2.24.01,0,.03,0,.05.01l17.14,33.45,8.09,15.8c.3,13.63-.91,27.55-1.63,38.74Z"/>
          <path class="cls-1" d="M104.4,37.01v.07c-.01.45-.07,2.77-.59,6.24h0c-1.71,11.37-8.36,34.99-34.11,45.06,3.44-27.67,14.51-49.43,34.28-51.26,0-.03,0-.06.01-.1.14-.01.28-.02.41-.02Z"/>
          <path class="cls-1" d="M110.9,37.21c2.09.54,4.08,1.24,5.96,2.06.01,0,.03,0,.04.01.53.23,1.06.47,1.58.72,11.87,5.74,19.95,17.2,22.09,30.21.97,5.86,1.42,12.06,1.56,18.32-32.63-8.97-37.87-32.96-38.32-45.19h0c-.11-2.79.04-4.97.17-6.21,0-.03,0-.06.01-.1h0"/>
          <path class="cls-9" d="M151.18,192.24l-.18.76-13.96-.62c-13.96-.61-22.04-24.38-22.04-24.38-17.38,1.29-27.3-4.05-32.16-8.02.32-2.76.45-6.04.22-9.92-.91-.63-1.78-1.31-2.61-2.03l-4.45-6.03c4.94,1.57,14.42,5.79,18.55,6.63,9.46,1.93,17.08,1.9,24.07-.38,3.57-1.15,7.34-2.43,10.38-5.25,14-13,2-66,2-66l1-2c.66-1.06,1.35-1.81,2.04-2.27l8.09,15.8c.3,13.63-.91,27.55-1.63,38.74v.07c-.36,5.41-2.4,10.61-5.95,14.71-3.57,4.13-7.63,7.54-12.06,10.06v.21c-.7,4.77.03,9.16,1.44,13.03,2.71,7.43,8.27,13.38,15.23,16.92.47.25.95.47,1.44.69,0,0,2.34,1.99,5.39,4.65,1.62,1.42,3.43,3.02,5.19,4.63Z"/>
          <path class="cls-2" d="M175.51,189.74c-4.99,4.32-10.37,8.2-16.08,11.59-8.72,5.18-18.18,9.22-28.17,11.88,1.67-5.36,3.91-12.99,5.78-20.82.81-3.39,1.55-6.81,2.12-10.11.68-3.71,1.16-7.25,1.34-10.41,1.06-18.05-1.06-32.92,0-44.6.2-2.24.21-6.39,0-11.69-.63-15.39-3.68-40.12-8.99-56.42-4.58-14.05-19.74-22.13-33.7-17.28-5.37,1.86-10.13,5.45-13.58,11.06-7.66,12.45-15.74,50.48-14.34,69.66.15,2.09.41,3.96.81,5.54,3.25,13.2,7.4,32.67,7.05,45.71-.07,2.89-.38,5.46-.96,7.57-.48,1.74-1.07,3.72-1.73,5.83-2.6,8.21-6.3,18.36-8.38,23.96-2.9-.96-5.74-2.04-8.53-3.24-5.88-2.52-11.5-5.52-16.81-8.97l-.08-.05-4.44-3.07s16.61-14.45,15.55-26.13S37.5,22.14,109.71,28.51c72.21,6.37,33.98,133.8,64.77,160.34.35.3.69.59,1.03.88Z"/>
          <path class="cls-8" d="M63,109s3,34,6,54-10.85,44.97-10.85,44.97c0,0,8.07-25.84,7.61-34.99-.76-14.99-2.76-63.99-2.76-63.99Z"/>
          <path class="cls-8" d="M59,95c-1,1-4,45,0,71"/>
          <path class="cls-8" d="M145,206s9-6,7-30-3-53-3-53c0,0,3,59,0,64s-10,26-10,26c0,0,5-2,6-7Z"/>
          <path class="cls-8" d="M163,207c-1.47-.66-6-10-12-83l14,80-2,3Z"/>
          <path class="cls-7" d="M141.66,81.83s-.66,15.17,1.34,21.17,1,17,0,24,1,19,2,21,6-24,3-36-1.68-29.35-6.34-30.17Z"/>
          <path class="cls-7" d="M68,73c-1.06.94-4,17-4,27s-4.18,31.51-1.59,38.75c2.59,7.25,11.59,8.25,7.59-1.75s-1.55-34.05.22-42.52,6.78-29.48-2.22-21.48Z"/>
          <path class="cls-7" d="M145,158c0-1,6-14,7,1s0,36-5,35,0-15-2-21,0-15,0-15Z"/>
          <path class="cls-7" d="M68.36,149.92c-1.36,1.08-5.33,5.45-3.35,13.77,1.99,8.32,6.99,10.32,6.99,4.32s-3.64-18.08-3.64-18.08Z"/>
        </g>
      </g>
    </g>
  </g>
</svg>